<svg width="68" height="115" viewBox="0 0 68 115" fill="none" xmlns="http://www.w3.org/2000/svg">
    <path fill-rule="evenodd" clip-rule="evenodd" d="M13.6061 17.8127V85.5745H19.6803V83.9092C20.8073 85.0225 22.2543 85.7536 23.8177 85.9995H24.5282C27.0725 85.7927 28.4135 83.9207 28.4937 80.3833V51.016C28.5549 49.7177 28.3682 48.4196 27.9436 47.1915C27.6331 46.5484 27.1428 46.0096 26.5324 45.6405C25.922 45.2715 25.2178 45.0881 24.5053 45.1127C24.4089 45.0785 24.3037 45.0785 24.2073 45.1127C22.6364 45.1869 21.1407 45.8084 19.9783 46.8699L19.6803 47.1111V17.8127H45.8225V45.5376H42.6249V49.8216H45.8225V79.4989C45.7395 80.8192 46.0043 82.1381 46.5904 83.3235C47.5187 84.7246 49.2951 85.4826 51.8967 85.6205H56.1945V81.3251H54.0628C52.6302 81.3251 51.8967 80.5096 51.8394 78.9132V49.8216H55.1401V45.5376H51.8394V17.8127H67.9534V96.0144H39.3013V24.5085H33.2958V96.0144H1.95038V17.8127H13.6061ZM21.0556 50.1202C21.3707 50.0936 21.6846 50.1835 21.9381 50.3729C22.0984 50.4732 22.2315 50.6116 22.3255 50.7759C22.4194 50.9403 22.4714 51.1253 22.4767 51.3146V79.6597C22.4973 79.8831 22.4569 80.1079 22.3601 80.3102C22.2632 80.5124 22.1134 80.6845 21.9266 80.8082C21.6547 80.9567 21.3533 81.043 21.0441 81.0609C20.723 81.0103 20.4197 80.88 20.1617 80.6819C20.0156 80.5924 19.894 80.4678 19.808 80.3194C19.722 80.171 19.6741 80.0035 19.6688 79.832V51.4639C19.6515 51.2616 19.6879 51.0583 19.7745 50.8747C19.861 50.6911 19.9946 50.5338 20.1617 50.4188C20.4148 50.216 20.7317 50.1101 21.0556 50.1202Z" fill="#A70000"/>
    <path fill-rule="evenodd" clip-rule="evenodd" d="M39.3242 24.5085V96.0144H33.3187V24.5085H39.3242ZM19.6803 17.8127V47.0996C20.9121 45.8942 22.5445 45.1867 24.2646 45.1127C24.361 45.0785 24.4662 45.0785 24.5626 45.1127C25.2754 45.0867 25.9802 45.2694 26.5909 45.6386C27.2016 46.0079 27.6915 46.5475 28.0009 47.1915C28.3966 48.2957 28.5831 49.4642 28.551 50.637V80.0387C28.551 83.691 27.2903 85.6664 24.8262 85.9765H24.5855H24.1271C22.5939 85.8329 21.1531 85.1777 20.0356 84.1159L19.7376 83.8747V85.5516H13.6634V17.8127H19.6803ZM51.828 17.8127V45.5376H55.1287V49.8216H51.828V78.649C51.828 80.3144 52.5042 81.1987 53.868 81.2676H56.1602V85.5745H52.2635C49.4517 85.5745 47.5416 84.8089 46.5331 83.2775C45.9946 82.2114 45.7344 81.0261 45.7766 79.832V49.8216H42.5791V45.5376H45.7766V17.8127H51.828ZM21.2046 50.1202H21.0441C20.7227 50.1161 20.4102 50.2259 20.1617 50.4303C20.016 50.5313 19.8957 50.6647 19.8102 50.8202C19.7247 50.9756 19.6763 51.1488 19.6688 51.3261V79.6597C19.6485 79.8559 19.684 80.0538 19.7712 80.2306C19.8584 80.4075 19.9938 80.5559 20.1617 80.6589C20.4197 80.857 20.723 80.9873 21.0441 81.0379C21.3533 81.02 21.6547 80.9337 21.9266 80.7853C22.0867 80.6791 22.2191 80.5362 22.3128 80.3684C22.4065 80.2006 22.4588 80.0127 22.4653 79.8205V51.4639C22.4969 51.2395 22.4616 51.0106 22.3637 50.8062C22.2658 50.6019 22.1097 50.4311 21.9152 50.3154C21.7039 50.1789 21.4558 50.1107 21.2046 50.1202Z" fill="white"/>
    <path fill-rule="evenodd" clip-rule="evenodd" d="M63.2659 101.631C64.0681 101.631 64.7673 101.631 65.3518 101.723C65.8437 101.779 66.3257 101.903 66.7844 102.09C67.1525 102.272 67.4652 102.55 67.6898 102.894C67.9042 103.329 68.0103 103.81 67.9992 104.295C67.9909 104.557 67.9679 104.817 67.9304 105.076V105.363L67.8044 105.915H64.4807V105.547C64.4863 105.486 64.4863 105.424 64.4807 105.363C64.4928 105.156 64.4274 104.951 64.2974 104.789C64.179 104.699 64.0419 104.636 63.8962 104.605H63.7816C63.5295 104.605 63.1971 104.605 62.7043 104.605C62.2536 104.582 61.8019 104.625 61.3634 104.732C61.114 104.754 60.8834 104.873 60.7216 105.065C60.6311 105.211 60.5617 105.37 60.5153 105.536V105.708C60.4961 105.837 60.4961 105.969 60.5153 106.098C60.5136 106.264 60.5659 106.425 60.6643 106.558L60.8018 106.661C60.8782 106.722 60.9691 106.761 61.0654 106.776H61.3061H61.6155H61.7874L63.2315 106.868C64.0799 106.921 64.9229 107.04 65.7529 107.224C66.2531 107.325 66.7119 107.573 67.0709 107.936C67.37 108.331 67.5202 108.819 67.4949 109.314C67.4896 109.653 67.4551 109.992 67.3918 110.325V110.623C67.2849 111.411 67.0808 112.183 66.7844 112.92C66.5713 113.417 66.2313 113.849 65.7987 114.172C65.2618 114.504 64.6598 114.716 64.0338 114.792C63.1593 114.9 62.2787 114.95 61.3978 114.942H60.9852C60.1347 114.965 59.2838 114.919 58.4409 114.804H58.2116C57.6739 114.73 57.1727 114.489 56.779 114.115L56.653 113.977C56.4386 113.725 56.2765 113.433 56.1761 113.117C56.0758 112.802 56.0392 112.469 56.0685 112.139C56.0788 111.755 56.1133 111.371 56.1716 110.991V110.669H59.4953L59.4265 111.244C59.4176 111.351 59.4325 111.46 59.4701 111.561C59.5078 111.662 59.5672 111.754 59.6442 111.829C59.7225 111.913 59.8164 111.98 59.9206 112.028C60.0248 112.075 60.1373 112.101 60.2517 112.105H60.5726H60.9622H61.4092C61.8683 112.11 62.3274 112.091 62.7845 112.048C63.0429 112.001 63.2842 111.886 63.4836 111.715C63.684 111.483 63.8046 111.193 63.8275 110.888V110.463C63.832 110.428 63.832 110.394 63.8275 110.359C63.8392 110.283 63.834 110.206 63.8122 110.133C63.7904 110.059 63.7525 109.991 63.7014 109.934C63.5995 109.877 63.4919 109.831 63.3805 109.796H63.0252H62.3605H62.1542H61.4207L60.5611 109.728L59.6786 109.647H59.3463C58.9088 109.572 58.4791 109.457 58.0627 109.303C57.708 109.14 57.409 108.877 57.2031 108.545C56.9872 108.119 56.8846 107.644 56.9051 107.166C56.9039 106.727 56.9423 106.289 57.0197 105.857C57.1724 104.914 57.5674 104.028 58.1658 103.284C58.7067 102.706 59.41 102.305 60.1829 102.136C61.1876 101.848 62.2222 101.679 63.2659 101.631ZM7.87563 101.631C8.80593 101.616 9.73527 101.697 10.6492 101.872C11.3118 101.987 11.9214 102.308 12.3912 102.791C12.8268 103.324 13.0548 103.997 13.033 104.686C13.0312 104.975 13.0043 105.263 12.9528 105.547V105.777H9.41138C9.41138 105.237 9.26239 104.835 8.91856 104.628C8.43538 104.485 7.932 104.423 7.42866 104.444C6.80439 104.394 6.17684 104.488 5.59492 104.72C5.22039 104.864 4.91631 105.148 4.74682 105.513C4.58549 105.928 4.46646 106.359 4.39153 106.799L4.28838 107.316L3.92164 109.452C3.84169 109.795 3.79941 110.145 3.79557 110.497C3.77615 110.841 3.8643 111.182 4.04771 111.473C4.23283 111.682 4.47646 111.83 4.74682 111.898C5.17814 111.973 5.61587 112.004 6.05335 111.99C6.52256 112.027 6.99466 111.988 7.45158 111.875C7.7686 111.753 8.03784 111.531 8.21945 111.244C8.41022 110.883 8.54546 110.496 8.62058 110.095V109.831H6.17942L6.63786 107.396H12.586L12.162 109.693C12.0277 110.627 11.7814 111.541 11.4285 112.415C11.1843 113.015 10.7895 113.541 10.2824 113.943C9.81203 114.29 9.27271 114.533 8.7008 114.655H8.41428C7.43647 114.808 6.44658 114.869 5.45739 114.838C4.66085 114.85 3.86444 114.808 3.07354 114.712C2.48029 114.654 1.90209 114.491 1.36587 114.23C0.932716 113.999 0.574755 113.648 0.334395 113.219C0.0967104 112.681 -0.0168931 112.096 0.00202946 111.508C0.00735262 111.093 0.037974 110.679 0.0937183 110.267V109.911L0.701142 106.546C0.871316 105.402 1.31137 104.316 1.98476 103.376C2.57376 102.662 3.37803 102.158 4.27693 101.941C5.45766 101.68 6.66812 101.579 7.87563 101.642V101.631ZM55.7934 101.745L55.2777 104.594H49.3639L48.9284 106.971H54.5213L54.0628 109.395H48.5043L48.0459 111.956H54.1201L53.6044 114.804H44.046L46.4184 101.757L55.7934 101.745ZM23.279 101.745L24.895 114.804H21.3536L21.0785 112.507H16.3796L15.3481 114.804H11.715L17.9726 101.745H23.279ZM33.5938 101.745L34.6023 109.946H34.7284L38.5678 101.745H44.218L41.9258 114.804H38.3958L40.539 104.801H40.4359L35.3473 114.804H32.2987L30.7744 104.801H30.6827L29.2272 114.815H25.7889L28.0811 101.757L33.5938 101.745ZM20.2304 104.353L17.6059 110.038H20.8035L20.2304 104.353Z" fill="black"/>
    <path fill-rule="evenodd" clip-rule="evenodd" d="M32.9863 0.412842L41.1923 6.22427C41.2404 8.04559 40.6572 9.82734 39.5419 11.2662C38.7236 12.493 37.5099 13.4012 36.1037 13.8389H35.8286L28.5853 8.9692C30.0631 8.20712 31.2763 7.01508 32.0658 5.54957C32.8553 4.08406 33.1842 2.41357 33.0092 0.757393L32.9863 0.412842Z" fill="#A70000"/>
</svg>
