<svg width="154" height="65" viewBox="0 0 154 65" fill="none" xmlns="http://www.w3.org/2000/svg">
    <path d="M85.9817 35.9074V64.0127H92.1532V35.9074H85.9817Z" fill="black"/>
    <path d="M0.0200348 35.9074L0.0200348 64.0127H6.19151L6.19151 35.9074H0.0200348Z" fill="black"/>
    <path d="M37.049 35.9023V54.5659L20.8879 35.9023H14.7115V64.0125H20.8879V45.3392L37.049 64.0125H43.2205V35.9023H37.049Z" fill="black"/>
    <path d="M77.3201 42.0877V35.9023H56.8135C55.0006 35.9023 53.2619 36.6236 51.98 37.9073C50.6981 39.1911 49.978 40.9322 49.978 42.7478V46.1705C49.978 47.986 50.6981 49.7271 51.98 51.0109C53.2619 52.2947 55.0006 53.0159 56.8135 53.0159H69.9133C70.5465 53.0159 71.1538 53.2678 71.6015 53.7162C72.0493 54.1646 72.3008 54.7727 72.3008 55.4069C72.2995 56.0402 72.0474 56.6471 71.5998 57.0944C71.1522 57.5418 70.5456 57.793 69.9133 57.793H51.1253V63.9979H71.6319C73.4448 63.9979 75.1834 63.2767 76.4653 61.9929C77.7473 60.7091 78.4674 58.968 78.4674 57.1525V53.7298C78.4674 51.9142 77.7473 50.1731 76.4653 48.8893C75.1834 47.6056 73.4448 46.8843 71.6319 46.8843H58.5321C58.2188 46.885 57.9084 46.8237 57.6188 46.7041C57.3292 46.5845 57.0659 46.4088 56.8441 46.1872C56.6224 45.9656 56.4464 45.7023 56.3264 45.4125C56.2063 45.1227 56.1446 44.812 56.1446 44.4982C56.1446 43.8641 56.3961 43.2559 56.8438 42.8075C57.2916 42.3591 57.8989 42.1072 58.5321 42.1072L77.3201 42.0877Z" fill="black"/>
    <path d="M154 6.68726V0.506836H130.911V28.6121H154V22.4317H137.082V17.6497H151.319V11.4693H137.082V6.68726H154Z" fill="black"/>
    <path d="M98.8911 0.506836V28.6121H115.365C117.696 28.6121 119.931 27.6848 121.579 26.0343C123.227 24.3837 124.153 22.1451 124.153 19.8109V9.33252C124.156 8.17467 123.931 7.02755 123.491 5.95691C123.051 4.88627 122.404 3.91316 121.588 3.09329C120.771 2.27343 119.801 1.62296 118.734 1.17912C117.666 0.735291 116.521 0.506831 115.365 0.506836H98.8911ZM105.067 22.4366V6.69214H114.544C115.462 6.69343 116.341 7.05924 116.989 7.70924C117.637 8.35923 118.001 9.24028 118.001 10.1589V18.9601C118.002 19.4151 117.913 19.8658 117.739 20.2864C117.566 20.707 117.312 21.0892 116.99 21.4111C116.669 21.7331 116.288 21.9886 115.868 22.1628C115.449 22.3371 114.999 22.4268 114.544 22.4268L105.067 22.4366Z" fill="black"/>
    <path d="M154 42.0877V35.9023H130.911V64.0125H154V57.8272H137.082V53.0501H151.319V46.8648H137.082V42.0877H154Z" fill="black"/>
    <path d="M98.8911 35.9023V63.9979H115.365C117.696 63.9979 119.931 63.0706 121.579 61.42C123.227 59.7695 124.153 57.5309 124.153 55.1966V44.7281C124.156 43.5702 123.931 42.4231 123.491 41.3524C123.051 40.2818 122.404 39.3087 121.588 38.4888C120.771 37.669 119.801 37.0185 118.734 36.5746C117.666 36.1308 116.521 35.9023 115.365 35.9023H98.8911ZM105.067 57.8272V42.0877H114.544C115.461 42.0877 116.34 42.4524 116.989 43.1016C117.637 43.7508 118.001 44.6314 118.001 45.5495V54.3507C118.001 55.2689 117.637 56.1494 116.989 56.7986C116.34 57.4478 115.461 57.8125 114.544 57.8125L105.067 57.8272Z" fill="black"/>
    <path d="M25.9462 0.506836H6.65538C2.99078 0.506836 0.0200348 3.48188 0.0200348 7.15177V21.9672C0.0200348 25.6371 2.99078 28.6121 6.65538 28.6121H25.9462C29.6108 28.6121 32.5815 25.6371 32.5815 21.9672V7.15177C32.5815 3.48188 29.6108 0.506836 25.9462 0.506836Z" fill="#FFC200"/>
    <path d="M7.28032 12.7896H2.29527V16.3345H7.28032V12.7896Z" fill="black"/>
    <path d="M19.6868 4.61401H14.7018V8.15896H19.6868V4.61401Z" fill="black"/>
    <path d="M19.6868 20.9646H14.7018V24.5095H19.6868V20.9646Z" fill="black"/>
    <path d="M24.9453 8.48169H19.9602V12.0266H24.9453V8.48169Z" fill="black"/>
    <path d="M24.9453 16.9849H19.9602V20.5298H24.9453V16.9849Z" fill="black"/>
    <path d="M30.3063 12.7896H25.3212V16.3345H30.3063V12.7896Z" fill="black"/>
    <path d="M19.6868 12.7896H9.01361V16.3345H19.6868V12.7896Z" fill="black"/>
    <path d="M83.3499 0.506836H73.3408C72.1846 0.506831 71.0398 0.735291 69.9719 1.17912C68.9041 1.62296 67.9341 2.27343 67.1177 3.09329C66.3013 3.91316 65.6544 4.88627 65.2142 5.95691C64.774 7.02755 64.549 8.17467 64.5522 9.33252V19.7913C64.5522 22.1256 65.4782 24.3642 67.1264 26.0147C68.7745 27.6653 71.0099 28.5926 73.3408 28.5926H83.3499C85.6808 28.5926 87.9162 27.6653 89.5644 26.0147C91.2125 24.3642 92.1385 22.1256 92.1385 19.7913V9.33252C92.1417 8.17467 91.9167 7.02755 91.4765 5.95691C91.0363 4.88627 90.3894 3.91316 89.573 3.09329C88.7566 2.27343 87.7867 1.62296 86.7188 1.17912C85.6509 0.735291 84.5061 0.506831 83.3499 0.506836ZM85.9865 18.8428C85.9872 19.3138 85.895 19.7804 85.7155 20.2158C85.5359 20.6512 85.2724 21.0469 84.94 21.3802C84.6076 21.7135 84.2129 21.978 83.7783 22.1584C83.3438 22.3388 82.878 22.4317 82.4076 22.4317H74.2831C73.8127 22.4317 73.3469 22.3388 72.9124 22.1584C72.4779 21.978 72.0831 21.7135 71.7507 21.3802C71.4183 21.0469 71.1548 20.6512 70.9752 20.2158C70.7957 19.7804 70.7036 19.3138 70.7042 18.8428V10.2762C70.7042 9.3252 71.0811 8.41307 71.7521 7.74015C72.4232 7.06724 73.3335 6.68854 74.2831 6.68724H82.4076C83.3573 6.68854 84.2675 7.06724 84.9386 7.74015C85.6096 8.41307 85.9865 9.3252 85.9865 10.2762V18.8428Z" fill="black"/>
    <path d="M46.4528 6.68728H58.7958V0.50687H45.862C44.7038 0.503644 43.5563 0.729725 42.4856 1.17211C41.415 1.6145 40.4422 2.26446 39.6232 3.08464C38.8042 3.90483 38.1551 4.87906 37.7134 5.9513C37.2716 7.02354 37.0459 8.17264 37.0491 9.33255V19.7914C37.0491 20.9492 37.2772 22.0957 37.7204 23.1651C38.1636 24.2345 38.8131 25.2058 39.6318 26.0234C40.4505 26.841 41.4222 27.4888 42.4913 27.9297C43.5604 28.3705 44.7058 28.5958 45.862 28.5926H58.7958V22.4366H46.4528C46.0286 22.4366 45.6085 22.3529 45.2166 22.1901C44.8247 22.0274 44.4688 21.7889 44.169 21.4882C43.8693 21.1876 43.6316 20.8307 43.4697 20.4381C43.3078 20.0454 43.2248 19.6246 43.2255 19.1997V9.90952C43.2293 9.05443 43.5709 8.23561 44.1756 7.63189C44.7803 7.02816 45.5989 6.68856 46.4528 6.68728Z" fill="black"/>
</svg>
