<svg width="27" height="27" viewBox="0 0 27 27" fill="none" xmlns="http://www.w3.org/2000/svg">
    <path d="M12.4364 25.6855L24.0012 12.5418C26.6403 9.54239 26.6215 5.21276 23.6013 2.5553C20.581 -0.102152 16.3766 0.511614 13.7375 3.51098L2.5077 16.274C0.615165 18.4249 0.454161 21.3767 2.62006 23.2824C3.66015 24.1975 5.01866 24.6649 6.39673 24.5816C7.77481 24.4984 9.05957 23.8713 9.96838 22.8384L20.3419 11.0487C20.8354 10.4878 21.0843 9.75254 21.0339 9.00459C20.9835 8.25663 20.6379 7.55727 20.0731 7.06035C19.7936 6.81381 19.4685 6.6244 19.1165 6.50297C18.7645 6.38153 18.3924 6.33045 18.0216 6.35264C17.6508 6.37483 17.2885 6.46986 16.9555 6.63229C16.6224 6.79472 16.3252 7.02137 16.0806 7.29928L5.97413 18.7856" stroke="white" stroke-width="1.03" stroke-miterlimit="10" stroke-linecap="round"/>
</svg>
