<svg width="258" height="63" viewBox="0 0 258 63" fill="none" xmlns="http://www.w3.org/2000/svg">
    <path d="M21.6343 44.2523C20.9868 44.6832 20.2261 44.9124 19.4483 44.9107C18.6706 44.9091 17.9108 44.6767 17.2652 44.243C16.6196 43.8093 16.1172 43.1938 15.8216 42.4744C15.526 41.7551 15.4505 40.9641 15.6046 40.2018C15.7588 39.4395 16.1356 38.7401 16.6875 38.192C17.2394 37.644 17.9415 37.2721 18.7049 37.1233C19.4683 36.9745 20.2586 37.0556 20.9759 37.3562C21.6932 37.6569 22.3051 38.1636 22.7343 38.8123C23.3083 39.6799 23.5149 40.7399 23.3087 41.7596C23.1025 42.7794 22.5004 43.6758 21.6343 44.2523Z" fill="#324C88"/>
    <path d="M52.2643 23.8722C51.6175 24.3034 50.8575 24.5331 50.0802 24.5322C49.3029 24.5314 48.5433 24.3001 47.8975 23.8676C47.2517 23.4351 46.7486 22.8208 46.4519 22.1024C46.1552 21.384 46.0782 20.5937 46.2306 19.8315C46.3831 19.0693 46.7581 18.3695 47.3083 17.8204C47.8585 17.2714 48.5591 16.8978 49.3216 16.747C50.0841 16.5961 50.8742 16.6748 51.592 16.973C52.3098 17.2712 52.9231 17.7755 53.3543 18.4222C53.9298 19.2903 54.1382 20.3509 53.934 21.3722C53.7297 22.3935 53.1294 23.2923 52.2643 23.8722Z" fill="#324C88"/>
    <path d="M20.3143 31.4222C20.22 29.2304 20.6253 27.0458 21.4995 25.0337C22.3738 23.0216 23.6942 21.2346 25.3607 19.8079C27.0273 18.3811 28.9965 17.3521 31.1194 16.7984C33.2422 16.2448 35.4632 16.1811 37.6143 16.6122C38.8009 16.8467 39.9534 17.2297 41.0443 17.7522H41.1043C41.8784 18.1261 42.7542 18.2343 43.5961 18.0603C44.4379 17.8862 45.199 17.4396 45.7614 16.7895C46.3239 16.1393 46.6564 15.3219 46.7075 14.4638C46.7587 13.6056 46.5256 12.7546 46.0443 12.0422C45.6655 11.4874 45.1531 11.0369 44.5543 10.7322L44.4443 10.6622L44.2943 10.6022C42.6724 9.83688 40.9631 9.27269 39.2043 8.92225C33.4005 7.7616 27.3734 8.9515 22.4461 12.2307C17.5189 15.5099 14.0943 20.6104 12.9243 26.4122C12.5727 28.1726 12.4317 29.9686 12.5043 31.7622C12.5048 32.5272 12.7309 33.2751 13.1543 33.9122C13.6344 34.6309 14.3386 35.1708 15.1573 35.4478C15.9761 35.7248 16.8634 35.7235 17.6813 35.444C18.4991 35.1645 19.2017 34.6226 19.6797 33.9025C20.1577 33.1824 20.3843 32.3245 20.3243 31.4622C20.3302 31.4393 20.3302 31.4152 20.3243 31.3922" fill="#324C88"/>
    <path d="M49.2243 30.1623C49.2776 31.329 49.187 32.4978 48.9543 33.6423C48.194 37.3951 45.9791 40.6945 42.7937 42.8193C39.6083 44.9442 35.7113 45.7218 31.9543 44.9823C30.7717 44.7399 29.6231 44.3537 28.5343 43.8323H28.4743C27.5567 43.4509 26.5283 43.4331 25.598 43.7827C24.6678 44.1323 23.9056 44.8229 23.4663 45.7142C23.027 46.6056 22.9436 47.6308 23.2329 48.5814C23.5223 49.5321 24.1628 50.3369 25.0243 50.8323L25.1243 50.9023L25.2743 50.9723C28.3361 52.4167 31.6867 53.1448 35.0719 53.1012C38.4571 53.0575 41.7878 52.2434 44.8114 50.7205C47.835 49.1976 50.472 47.006 52.5223 44.312C54.5725 41.618 55.9822 38.4924 56.6443 35.1723C57.0001 33.4125 57.1411 31.616 57.0643 29.8223C57.0643 29.8223 57.0643 29.8223 57.0643 29.7723C57.0648 29.0103 56.8385 28.2653 56.4143 27.6323C55.9391 26.9064 55.2361 26.3592 54.4158 26.0768C53.5955 25.7943 52.7045 25.7927 51.8832 26.0722C51.0619 26.3517 50.3569 26.8964 49.8791 27.6206C49.4014 28.3448 49.178 29.2073 49.2443 30.0723C49.2384 30.0952 49.2384 30.1193 49.2443 30.1423" fill="#324C88"/>
    <path d="M19.3143 61.9522L18.8743 61.8222C13.1804 59.6666 8.30205 55.7862 4.92075 50.7233C1.53944 45.6603 -0.17593 39.6675 0.0142678 33.5822V33.4122C0.0262465 33.237 0.0530101 33.063 0.0942696 32.8922C0.188659 32.4402 0.371559 32.0114 0.632432 31.6303C0.893304 31.2493 1.22698 30.9237 1.61426 30.6722C2.41479 30.1584 3.38353 29.9756 4.31629 30.1621C5.24904 30.3487 6.07292 30.8901 6.61426 31.6722C6.91114 32.1138 7.10587 32.616 7.18427 33.1422V33.6722C7.02092 38.2672 8.29544 42.7986 10.8301 46.6347C13.3648 50.4708 17.0334 53.4204 21.3243 55.0722L21.7543 55.2622C22.3213 55.5322 22.805 55.9503 23.1543 56.4722C23.4189 56.8655 23.6031 57.3074 23.6961 57.7722C23.7891 58.2371 23.7891 58.7157 23.6962 59.1806C23.6032 59.6455 23.4191 60.0873 23.1544 60.4806C22.8898 60.874 22.5499 61.211 22.1543 61.4722C21.7634 61.7345 21.3243 61.9164 20.8625 62.0074C20.4007 62.0984 19.9254 62.0966 19.4643 62.0022C19.4643 62.0022 19.3643 62.0022 19.3143 62.0022" fill="#324C88"/>
    <path d="M65.8243 31.9622C65.3619 31.8708 64.9222 31.6885 64.5308 31.4259C64.1394 31.1633 63.8041 30.8255 63.5443 30.4322C63.2521 29.9892 63.0609 29.4874 62.9843 28.9622V28.3722C63.1491 23.777 61.8752 19.2449 59.3403 15.4085C56.8054 11.5721 53.136 8.62281 48.8443 6.97224L48.4243 6.79224C47.8566 6.51863 47.373 6.09722 47.0243 5.57224C46.6292 4.98243 46.4185 4.28849 46.4187 3.57861C46.419 2.86873 46.6303 2.17495 47.0258 1.58545C47.4213 0.99595 47.9832 0.537339 48.6399 0.267899C49.2967 -0.00154197 50.0187 -0.0696469 50.7143 0.0722391H50.8643C51.012 0.0992867 51.1563 0.142896 51.2943 0.20224C56.9763 2.37433 61.8388 6.26561 65.2035 11.3333C68.5683 16.4011 70.2675 22.3926 70.0643 28.4722V28.6722C70.0614 28.8444 70.0379 29.0156 69.9943 29.1822C69.9062 29.6446 69.7263 30.0846 69.4653 30.4762C69.2042 30.8678 68.8672 31.2031 68.4743 31.4622C68.0814 31.7243 67.6406 31.906 67.1772 31.997C66.7138 32.088 66.237 32.0863 65.7743 31.9922" fill="#324C88"/>
    <path d="M100.034 53.9523C96.5229 54.0894 93.0478 53.1998 90.0343 51.3923C87.4585 49.7847 85.5024 47.3528 84.4843 44.4923L92.8243 39.6723C93.3602 41.2126 94.3805 42.538 95.7324 43.4501C97.0844 44.3622 98.6954 44.812 100.324 44.7323C103.324 44.7323 104.784 43.8723 104.784 42.1723C104.784 41.0523 103.934 40.1723 102.234 39.4523C101.504 39.1623 99.9143 38.6723 97.4443 37.9823C94.3935 37.1911 91.5623 35.7174 89.1643 33.6723C88.131 32.6972 87.3228 31.5084 86.796 30.1889C86.2692 28.8694 86.0366 27.4509 86.1143 26.0323C86.0608 24.4161 86.3729 22.8086 87.0274 21.3299C87.682 19.8512 88.6619 18.5393 89.8943 17.4923C92.5278 15.2794 95.8864 14.1183 99.3243 14.2323C102.313 14.1768 105.258 14.9597 107.824 16.4923C110.327 18.0204 112.303 20.2782 113.484 22.9623L105.324 27.7423C104.134 24.9223 102.154 23.5023 99.4043 23.5023C98.4699 23.4394 97.5411 23.6892 96.7643 24.2123C96.4821 24.4169 96.2531 24.6863 96.0965 24.9978C95.9399 25.3092 95.8602 25.6537 95.8643 26.0023C95.8821 26.4421 96.0153 26.8695 96.2505 27.2416C96.4857 27.6137 96.8146 27.9174 97.2043 28.1223C98.8431 29.0049 100.587 29.6769 102.394 30.1223C103.896 30.5638 105.375 31.0811 106.824 31.6723C108.114 32.2232 109.349 32.8927 110.514 33.6723C111.817 34.5065 112.857 35.6921 113.514 37.0923C114.208 38.6379 114.55 40.3184 114.514 42.0123C114.59 43.6835 114.266 45.3488 113.571 46.8703C112.875 48.3918 111.828 49.7259 110.514 50.7623C107.881 52.8956 104.388 53.9589 100.034 53.9523Z" fill="#324C88"/>
    <path d="M127.764 44.0023H142.494V53.1323H118.034V15.1323H142.224V24.2023H127.764V29.4823H140.824V38.4823H127.724L127.764 44.0023Z" fill="#324C88"/>
    <path d="M165.224 53.9523C162.598 54.0239 159.985 53.5595 157.544 52.5873C155.103 51.6151 152.886 50.1555 151.029 48.2978C149.171 46.4401 147.711 44.2232 146.739 41.7825C145.767 39.3418 145.303 36.7285 145.374 34.1023C145.367 30.6459 146.263 27.2476 147.972 24.2433C149.681 21.2391 152.144 18.7328 155.119 16.9724C158.093 15.212 161.476 14.2583 164.932 14.2057C168.388 14.153 171.798 15.0032 174.824 16.6723C177.668 18.2124 180.053 20.4795 181.734 23.2423L173.304 28.0823C172.566 26.7259 171.442 25.6192 170.074 24.9023C168.099 23.899 165.862 23.5305 163.669 23.8474C161.476 24.1642 159.435 25.1508 157.824 26.6723C156.879 27.665 156.144 28.8383 155.663 30.1219C155.182 31.4054 154.965 32.7728 155.024 34.1423C154.964 35.5132 155.181 36.8822 155.663 38.1674C156.144 39.4526 156.879 40.6276 157.824 41.6223C159.441 43.1116 161.474 44.0708 163.651 44.3712C165.828 44.6715 168.045 44.2985 170.004 43.3023C171.386 42.5807 172.513 41.4535 173.234 40.0723L181.664 44.9623C180.013 47.7243 177.651 49.9931 174.824 51.5323C171.885 53.1505 168.579 53.984 165.224 53.9523Z" fill="#324C88"/>
    <path d="M216.954 48.2123C213.158 51.8931 208.077 53.9515 202.789 53.9515C197.501 53.9515 192.421 51.8931 188.624 48.2123C186.738 46.3862 185.25 44.1905 184.252 41.7625C183.254 39.3346 182.768 36.7267 182.824 34.1023C182.767 31.4801 183.252 28.8745 184.248 26.4483C185.245 24.0221 186.731 21.8277 188.614 20.0023C192.411 16.3215 197.491 14.2631 202.779 14.2631C208.067 14.2631 213.148 16.3215 216.944 20.0023C218.828 21.8277 220.314 24.0221 221.31 26.4483C222.306 28.8745 222.791 31.4801 222.734 34.1023C222.793 36.7253 222.31 39.3322 221.316 41.7601C220.321 44.188 218.837 46.3845 216.954 48.2123ZM195.444 41.5223C197.171 43.3682 199.489 44.5538 201.996 44.8746C204.504 45.1954 207.045 44.6313 209.181 43.2797C211.317 41.928 212.915 39.8734 213.699 37.47C214.483 35.0666 214.404 32.465 213.475 30.1137C212.547 27.7624 210.827 25.8087 208.613 24.5893C206.398 23.3699 203.828 22.9613 201.344 23.4338C198.861 23.9064 196.62 25.2305 195.008 27.178C193.396 29.1255 192.514 31.5743 192.514 34.1023C192.467 35.4739 192.703 36.8406 193.207 38.1171C193.711 39.3936 194.473 40.5527 195.444 41.5223Z" fill="#324C88"/>
    <path d="M248.234 15.0823H257.914V53.1323H250.414L236.984 34.0023V53.1323H227.254V15.1323H234.824L248.254 34.2623L248.234 15.0823Z" fill="#324C88"/>
</svg>
