<svg width="273" height="241" viewBox="0 0 273 241" fill="none" xmlns="http://www.w3.org/2000/svg">
    <path d="M83.9942 171.808C81.4805 173.481 78.527 174.371 75.5074 174.365C72.4879 174.358 69.5381 173.456 67.0315 171.772C64.525 170.089 62.5744 167.699 61.4268 164.906C60.2791 162.113 59.9859 159.042 60.5844 156.083C61.1829 153.123 62.646 150.407 64.7887 148.28C66.9313 146.152 69.6571 144.708 72.6209 144.13C75.5847 143.553 78.6533 143.868 81.4381 145.035C84.2229 146.202 86.5988 148.169 88.2649 150.688C90.4937 154.057 91.2957 158.172 90.4951 162.131C89.6946 166.09 87.3567 169.57 83.9942 171.808Z" fill="white" fill-opacity="0.2"/>
    <path d="M202.914 92.6839C200.403 94.3578 197.452 95.2495 194.434 95.2463C191.416 95.2432 188.467 94.3452 185.96 92.666C183.453 90.9868 181.5 88.6017 180.348 85.8125C179.196 83.0233 178.897 79.9551 179.489 76.9959C180.08 74.0368 181.536 71.3196 183.672 69.188C185.809 67.0563 188.529 65.606 191.489 65.0203C194.45 64.4347 197.517 64.74 200.304 65.8977C203.091 67.0555 205.472 69.0136 207.146 71.5245C209.38 74.8946 210.189 79.0124 209.396 82.9775C208.603 86.9426 206.273 90.4324 202.914 92.6839Z" fill="white" fill-opacity="0.2"/>
    <path d="M78.8693 121.995C78.5031 113.486 80.0767 105.004 83.4711 97.192C86.8654 89.38 91.9916 82.442 98.462 76.9029C104.932 71.3637 112.578 67.3684 120.82 65.2189C129.062 63.0695 137.684 62.8223 146.036 64.496C150.643 65.4062 155.117 66.8933 159.353 68.9221H159.586C162.591 70.3734 165.991 70.7937 169.26 70.118C172.528 69.4422 175.483 67.7082 177.667 65.1841C179.851 62.6599 181.142 59.4865 181.34 56.1548C181.539 52.823 180.634 49.5188 178.765 46.7532C177.294 44.599 175.305 42.8498 172.98 41.6672L172.553 41.3954L171.971 41.1625C165.674 38.191 159.037 36.0005 152.209 34.6399C129.676 30.1338 106.276 34.7535 87.1461 47.4849C68.0163 60.2162 54.7206 80.0186 50.178 102.544C48.8129 109.379 48.2654 116.351 48.5473 123.315C48.5494 126.285 49.4273 129.189 51.0709 131.663C52.9351 134.453 55.6691 136.549 58.8478 137.624C62.0264 138.7 65.4713 138.695 68.6467 137.61C71.8221 136.524 74.5499 134.42 76.4057 131.625C78.2615 128.829 79.1413 125.498 78.9081 122.151C78.9312 122.061 78.9312 121.968 78.9081 121.879" fill="white" fill-opacity="0.2"/>
    <path d="M191.111 117.106C191.318 121.635 190.966 126.173 190.063 130.617C187.111 145.187 178.512 157.997 166.145 166.246C153.777 174.496 138.648 177.515 124.061 174.644C119.47 173.703 115.011 172.203 110.783 170.179H110.55C106.988 168.698 102.995 168.629 99.3833 169.986C95.7718 171.344 92.8126 174.025 91.107 177.486C89.4014 180.946 89.0774 184.926 90.2009 188.617C91.3245 192.308 93.8112 195.433 97.1557 197.356L97.544 197.628L98.1263 197.9C110.014 203.508 123.022 206.334 136.165 206.165C149.308 205.996 162.24 202.835 173.979 196.922C185.717 191.01 195.955 182.501 203.915 172.042C211.876 161.582 217.349 149.447 219.919 136.557C221.301 129.725 221.848 122.75 221.55 115.786C221.55 115.786 221.55 115.786 221.55 115.592C221.552 112.633 220.673 109.741 219.026 107.283C217.181 104.465 214.452 102.34 211.267 101.244C208.082 100.147 204.623 100.141 201.434 101.226C198.246 102.311 195.509 104.426 193.654 107.238C191.799 110.049 190.932 113.398 191.189 116.756C191.166 116.846 191.166 116.939 191.189 117.028" fill="white" fill-opacity="0.2"/>
    <path d="M74.9869 240.526L73.2786 240.021C51.1723 231.652 32.2324 216.587 19.1046 196.93C5.97683 177.273 -0.68304 154.006 0.0553942 130.38V129.72C0.101901 129.04 0.205809 128.365 0.365998 127.702C0.732459 125.947 1.44256 124.282 2.45539 122.802C3.46822 121.323 4.7637 120.059 6.26729 119.082C9.37532 117.088 13.1364 116.378 16.7578 117.102C20.3792 117.826 23.5778 119.928 25.6796 122.965C26.8322 124.679 27.5882 126.629 27.8926 128.672V130.73C27.2584 148.57 32.2067 166.163 42.0476 181.056C51.8884 195.95 66.1313 207.401 82.7906 213.815L84.46 214.552C86.6615 215.6 88.5394 217.223 89.8955 219.25C90.9231 220.777 91.638 222.492 91.9991 224.297C92.3603 226.102 92.3603 227.96 91.9994 229.765C91.6384 231.57 90.9235 233.285 89.8961 234.812C88.8686 236.339 87.5489 237.648 86.013 238.662C84.4955 239.68 82.7907 240.387 80.9977 240.74C79.2048 241.093 77.3595 241.086 75.5692 240.72C75.5692 240.72 75.181 240.72 74.9869 240.72" fill="white" fill-opacity="0.2"/>
    <path d="M255.56 124.092C253.765 123.737 252.058 123.029 250.538 122.01C249.019 120.99 247.717 119.679 246.708 118.152C245.574 116.432 244.831 114.483 244.534 112.445V110.154C245.174 92.3131 240.228 74.7175 230.386 59.8228C220.544 44.9282 206.298 33.4777 189.636 27.0694L188.005 26.3706C185.801 25.3083 183.923 23.6722 182.57 21.634C181.036 19.3441 180.218 16.6499 180.219 13.8938C180.22 11.1377 181.04 8.44416 182.576 6.15545C184.111 3.86673 186.292 2.0862 188.842 1.04011C191.392 -0.00598664 194.195 -0.270401 196.896 0.280465H197.478C198.052 0.385477 198.612 0.554788 199.148 0.785189C221.208 9.21826 240.086 24.326 253.15 44.0012C266.213 63.6765 272.811 86.9383 272.021 110.542V111.319C272.01 111.987 271.919 112.652 271.75 113.299C271.408 115.094 270.709 116.802 269.696 118.323C268.682 119.843 267.374 121.145 265.848 122.151C264.323 123.168 262.612 123.874 260.813 124.227C259.014 124.58 257.162 124.574 255.366 124.209" fill="white" fill-opacity="0.2"/>
</svg>
