<svg width="210" height="58" viewBox="0 0 210 58" fill="none" xmlns="http://www.w3.org/2000/svg">
    <path d="M1.97566 51.2593V42.212H0V54.3949H1.74079L7.07369 45.6928V54.3949H8.93882V42.212H7.30856L1.97566 51.2593ZM18.2092 48.9388H14.0645V45.458H12.1855V54.3949H14.0368V50.5687H18.1816V54.3949H20.0467V45.458H18.2092V48.9388ZM22.2711 47.1984H25.6421V54.3949H27.4934V47.1984H30.7401V45.458H22.2711V47.1984ZM49.654 45.3475C49.1312 45.337 48.614 45.4556 48.148 45.6928C47.6578 45.8977 47.2225 46.2147 46.877 46.6182L46.4073 47.0879V45.7066H44.5559V58H46.4073V53.1241L46.877 53.5799C47.2602 53.91 47.6881 54.1844 48.148 54.3949C48.5963 54.5332 49.0608 54.6122 49.5296 54.6297C50.1023 54.6349 50.6692 54.5139 51.1897 54.2751C51.7103 54.0364 52.1719 53.6858 52.5415 53.2484C53.3909 52.3301 53.8685 51.1288 53.8816 49.8781C53.8882 49.2525 53.7693 48.632 53.532 48.0531C53.2947 47.4742 52.9438 46.9488 52.5 46.5077C51.7351 45.7706 50.7163 45.3553 49.654 45.3475ZM51.2842 52.2539C51.0162 52.5399 50.6934 52.7691 50.335 52.9281C49.9767 53.0871 49.59 53.1725 49.1981 53.1793C48.8018 53.2016 48.406 53.1294 48.0432 52.9684C47.6804 52.8075 47.3612 52.5626 47.1119 52.2539C46.8338 51.9596 46.6182 51.6121 46.4781 51.2323C46.338 50.8524 46.2763 50.4481 46.2967 50.0438C46.2687 49.6388 46.3268 49.2324 46.4673 48.8514C46.6078 48.4705 46.8275 48.1237 47.1119 47.8338C47.3774 47.5474 47.7006 47.3205 48.0602 47.1681C48.4198 47.0158 48.8076 46.9413 49.1981 46.9498C49.594 46.9297 49.9891 47.003 50.3515 47.1637C50.7139 47.3245 51.0334 47.5682 51.2842 47.8752C51.564 48.1655 51.7808 48.5104 51.921 48.8883C52.0613 49.2662 52.122 49.669 52.0994 50.0714C52.1054 50.8578 51.8142 51.6175 51.2842 52.1986V52.2539ZM62.5303 48.994H58.3856V45.458H56.5066V54.3949H58.3579V50.5687H62.5027V54.3949H64.3678V45.458H62.5303V48.994ZM78.1974 47.1984H81.5132V54.3949H83.3645V47.1984H86.5007V45.458H78.2112L78.1974 47.1984ZM89.1119 49.1736H93.0494V50.914H89.1119V49.1736ZM101.408 45.3475C100.678 45.3187 99.9578 45.53 99.3589 45.9491C98.7601 46.3682 98.3151 46.972 98.0922 47.668L97.5119 49.0493V47.5575C97.5235 46.8849 97.621 46.2164 97.802 45.5685C98.0492 45.0695 98.4086 44.6345 98.852 44.2977C99.367 43.9259 99.9642 43.6842 100.593 43.5932C101.477 43.4806 102.369 43.4437 103.259 43.4827C103.842 43.5009 104.425 43.4639 105 43.3722V41.7561C104.53 41.7561 103.84 41.8666 103.024 41.8666C101.901 41.8549 100.778 41.9334 99.6672 42.1015C98.9654 42.2535 98.2963 42.5295 97.6915 42.9164C97.0787 43.3797 96.6327 44.0291 96.4204 44.7673C96.0009 45.8399 95.8035 46.9865 95.8402 48.1377C95.8365 49.1332 95.9525 50.1257 96.1856 51.0936C96.4593 52.0519 97.0242 52.9014 97.802 53.5247C98.611 54.2127 99.6413 54.5854 100.703 54.5744C101.965 54.6041 103.187 54.1321 104.102 53.2621C105.016 52.392 105.548 51.1949 105.58 49.9333V49.7123C105.603 49.113 105.502 48.5154 105.283 47.9569C105.064 47.3985 104.733 46.891 104.309 46.4663C103.531 45.7159 102.489 45.2995 101.408 45.306V45.3475ZM102.914 52.2539C102.345 52.7664 101.607 53.05 100.841 53.05C100.076 53.05 99.3377 52.7664 98.7691 52.2539C98.4848 51.964 98.2651 51.6171 98.1246 51.2362C97.9841 50.8553 97.926 50.4489 97.954 50.0438C97.9684 49.2737 98.2575 48.534 98.7691 47.9581C99.0267 47.6531 99.3455 47.4058 99.7049 47.232C100.064 47.0583 100.456 46.9621 100.855 46.9498C101.253 46.9166 101.652 46.984 102.017 47.1457C102.381 47.3074 102.699 47.5583 102.942 47.8752C103.215 48.1467 103.43 48.4726 103.57 48.8318C103.71 49.191 103.774 49.5757 103.757 49.9609C103.77 50.371 103.703 50.7797 103.558 51.1637C103.413 51.5476 103.195 51.8993 102.914 52.1986V52.2539ZM111.908 51.8395V51.729L109.145 45.458H107.321L110.803 54.0495L108.951 57.8757H110.913L116.716 45.4442H114.74L111.908 51.8395ZM126.539 45.458H124.342L122.38 48.2205L120.294 45.458H118.084L121.247 49.7123L117.766 54.3534H119.963L122.408 51.0936L124.729 54.3396H126.926L123.334 49.7123L126.539 45.458ZM128.97 54.3949H130.822V47.1984H134.013V45.458H128.901L128.97 54.3949ZM143.284 46.9498L142.828 46.4801C142.481 46.072 142.04 45.7544 141.543 45.5547C141.072 45.33 140.558 45.2121 140.037 45.2093C139.475 45.206 138.918 45.3169 138.4 45.5353C137.883 45.7538 137.415 46.0752 137.025 46.4801C136.197 47.4074 135.739 48.6073 135.74 49.8504C135.724 51.0923 136.184 52.2932 137.025 53.207C137.395 53.6444 137.856 53.9949 138.377 54.2337C138.897 54.4724 139.464 54.5935 140.037 54.5882C140.506 54.5707 140.97 54.4918 141.418 54.3534C141.911 54.1532 142.348 53.8355 142.69 53.428L143.159 52.9583V54.3396H145.066V45.458H143.215V46.9498H143.284ZM142.593 52.171C142.325 52.457 142.002 52.6863 141.644 52.8452C141.285 53.0042 140.899 53.0896 140.507 53.0965C140.11 53.1188 139.715 53.0465 139.352 52.8856C138.989 52.7246 138.67 52.4797 138.42 52.171C137.893 51.5553 137.603 50.7715 137.603 49.9609C137.603 49.1504 137.893 48.3666 138.42 47.7509C138.688 47.4636 139.01 47.2335 139.369 47.0745C139.727 46.9154 140.114 46.8307 140.507 46.8254C140.892 46.8082 141.277 46.8717 141.636 47.0121C141.995 47.1525 142.321 47.3665 142.593 47.6404C142.875 47.9318 143.093 48.2789 143.234 48.6594C143.374 49.04 143.433 49.4456 143.408 49.8504C143.447 50.2773 143.395 50.7076 143.254 51.1125C143.113 51.5175 142.888 51.8878 142.593 52.1986V52.171ZM151.062 45.4303L147.111 54.3672H148.976L151.642 47.9857L154.309 54.3672H156.118L152.181 45.4303H151.062ZM157.21 47.1708H160.581V54.3672H162.543V47.1984H165.679V45.458H157.21V47.1984V47.1708ZM184.593 45.3198C184.07 45.3093 183.553 45.4279 183.087 45.6652C182.593 45.87 182.153 46.1868 181.802 46.5906L181.346 47.0603V45.679H179.481V58H181.346V53.1241L181.802 53.5799C182.208 53.9356 182.676 54.212 183.184 54.3949C183.633 54.5266 184.097 54.6054 184.565 54.6297C185.138 54.6349 185.705 54.5139 186.225 54.2751C186.746 54.0364 187.207 53.6858 187.577 53.2484C188.403 52.3253 188.861 51.1305 188.862 49.8919C188.884 49.2727 188.782 48.6553 188.561 48.0764C188.341 47.4975 188.006 46.9687 187.577 46.5216C186.76 45.7619 185.681 45.3463 184.565 45.3613L184.593 45.3198ZM186.209 52.2262C185.942 52.5135 185.62 52.7436 185.261 52.9027C184.902 53.0617 184.515 53.1465 184.123 53.1517C183.727 53.1718 183.332 53.0985 182.97 52.9377C182.607 52.777 182.288 52.5332 182.037 52.2262C181.487 51.6242 181.194 50.831 181.222 50.0162C181.197 49.6115 181.257 49.206 181.397 48.8256C181.538 48.4452 181.755 48.098 182.037 47.8061C182.31 47.5347 182.636 47.3233 182.995 47.1853C183.355 47.0473 183.739 46.9859 184.123 47.005C184.519 46.9827 184.915 47.055 185.278 47.2159C185.641 47.3768 185.96 47.6218 186.209 47.9305C186.498 48.2145 186.72 48.5584 186.861 48.9379C187.002 49.3174 187.058 49.7233 187.024 50.1267C187.049 50.5107 186.988 50.8953 186.848 51.2534C186.707 51.6114 186.489 51.9341 186.209 52.1986V52.2262ZM193.297 51.5218V45.458H191.432V54.3949H192.371L197.58 48.5935V54.3949H199.445V45.458H198.63L193.297 51.5218ZM204.087 45.7204C203.569 45.8807 203.118 46.2056 202.802 46.6459C202.429 47.1498 202.226 47.7593 202.222 48.3863C202.209 48.8879 202.376 49.3775 202.692 49.7676C202.814 49.9795 202.981 50.1623 203.182 50.303C203.382 50.4438 203.611 50.5391 203.852 50.5825L204.197 50.693V50.8173L201.711 54.5192H203.921L206.173 51.0936H207.099V54.5744H208.95V45.5685H206.753C205.863 45.4781 204.965 45.52 204.087 45.6928V45.7204ZM206.988 49.7814H206.049C204.543 49.7814 204.197 48.9664 204.197 48.4001C204.197 47.8338 204.432 47.0188 205.828 47.0188H206.988V49.7814ZM172.172 45.2646C170.93 45.2607 169.735 45.745 168.846 46.6131C167.958 47.4811 167.445 48.6636 167.42 49.9057C167.42 51.1659 167.921 52.3745 168.812 53.2656C169.703 54.1567 170.912 54.6573 172.172 54.6573C173.125 54.6764 174.06 54.3909 174.839 53.8423C175.554 53.4011 176.122 52.7567 176.469 51.9914H174.618C174.367 52.3713 174.02 52.6785 173.613 52.8821C173.205 53.0858 172.751 53.1788 172.297 53.1517C171.576 53.1528 170.878 52.9038 170.321 52.4473C169.799 51.9901 169.432 51.3819 169.271 50.7068L169.161 50.3615H176.842V50.1267C176.843 48.8193 176.394 47.5515 175.571 46.5354C175.123 46.1083 174.594 45.7758 174.015 45.5575C173.436 45.3392 172.819 45.2396 172.2 45.2646H172.172ZM169.271 49.3256L169.395 48.9664C169.531 48.3111 169.9 47.7273 170.433 47.3234C170.967 46.9194 171.629 46.7229 172.297 46.7702C172.952 46.7072 173.606 46.901 174.122 47.3106C174.637 47.7203 174.974 48.3139 175.06 48.9664L175.184 49.3256H169.271ZM37.3027 45.237C36.0422 45.237 34.8333 45.7376 33.942 46.6287C33.0507 47.5198 32.55 48.7284 32.55 49.9886C32.55 51.2488 33.0507 52.4574 33.942 53.3485C34.8333 54.2396 36.0422 54.7402 37.3027 54.7402C38.2539 54.7623 39.1876 54.4818 39.9691 53.939C40.6809 53.4914 41.2435 52.8423 41.5855 52.0743H39.679C39.4278 52.4542 39.0811 52.7614 38.6738 52.965C38.2664 53.1687 37.8126 53.2616 37.3579 53.2346C36.6406 53.2319 35.945 52.9887 35.3823 52.5439C34.8644 52.0855 34.5023 51.4772 34.3461 50.8035L34.2217 50.4582H41.8895V50.2234C41.8881 48.9098 41.4344 47.6367 40.6046 46.6182C40.1888 46.1606 39.6776 45.7997 39.1071 45.561C38.5365 45.3223 37.9206 45.2117 37.3027 45.237ZM34.4013 49.2979L34.5119 48.9388C34.6447 48.3032 34.9972 47.7346 35.5076 47.333C36.0179 46.9314 36.6535 46.7223 37.3027 46.7426C37.9566 46.6866 38.6073 46.8829 39.1211 47.2913C39.6349 47.6997 39.9729 48.2892 40.0658 48.9388L40.1763 49.2979H34.4013ZM71.704 45.237C70.4603 45.2295 69.2638 45.7126 68.3741 46.5814C67.4844 47.4503 66.9731 48.6348 66.9513 49.8781C66.9513 51.1383 67.4521 52.3469 68.3434 53.238C69.2347 54.1291 70.4435 54.6297 71.704 54.6297C72.6521 54.659 73.5853 54.3883 74.3704 53.8562C75.087 53.4018 75.6502 52.7425 75.9869 51.9638H74.1356C73.8844 52.3437 73.5377 52.6509 73.1304 52.8545C72.723 53.0582 72.2692 53.1511 71.8145 53.1241C71.1013 53.1386 70.4044 52.9096 69.8389 52.4749C69.3252 52.013 68.9639 51.4061 68.8027 50.7345L68.6783 50.3891H76.3461V50.1543C76.3415 48.8455 75.888 47.5778 75.0612 46.563C74.1414 45.7264 72.9474 45.2548 71.704 45.237ZM68.8027 49.2979L68.9132 48.9388C69.0492 48.2784 69.4221 47.6906 69.9616 47.2861C70.5011 46.8816 71.17 46.6882 71.8421 46.7426C72.4961 46.6866 73.1468 46.8829 73.6606 47.2913C74.1744 47.6997 74.5124 48.2892 74.6053 48.9388L74.7158 49.2979H68.8027ZM27.8388 1.16028H26.6783L16.2474 28.6478L5.80263 1.16028H0V34.7945H4.64211V10.3182L13.9263 34.7945H18.5684L27.8388 10.3182V34.7945H32.4809V1.16028H27.8388ZM48.7283 34.7945C51.2537 34.7863 53.7199 34.0293 55.815 32.6195C57.91 31.2096 59.5397 29.2102 60.4979 26.8741C61.4562 24.5381 61.6998 21.9703 61.1981 19.4958C60.6963 17.0213 59.4717 14.7511 57.6793 12.9725C55.8868 11.194 53.6069 9.98689 51.1281 9.50403C48.6493 9.02117 46.0829 9.28422 43.7537 10.2599C41.4244 11.2356 39.437 12.8801 38.0428 14.9853C36.6485 17.0905 35.9102 19.5618 35.9211 22.0867C35.9357 25.4693 37.2928 28.7077 39.6942 31.0905C42.0957 33.4733 45.345 34.8055 48.7283 34.7945ZM48.7283 13.9095C50.3327 13.9095 51.9011 14.3845 53.2358 15.2746C54.5705 16.1646 55.6117 17.4298 56.2282 18.9107C56.8446 20.3916 57.0087 22.0218 56.6997 23.5957C56.3907 25.1697 55.6225 26.617 54.4919 27.755C53.3613 28.8931 51.919 29.6709 50.3468 29.9905C48.7746 30.3101 47.143 30.1571 45.6576 29.5509C44.1723 28.9446 42.8997 27.9122 42.0005 26.5838C41.1012 25.2555 40.6155 23.6907 40.6046 22.0867C40.5973 21.0155 40.8021 19.9534 41.2071 18.9616C41.6121 17.9698 42.2093 17.0679 42.9644 16.3079C43.7195 15.5478 44.6175 14.9446 45.6067 14.533C46.5959 14.1214 47.6568 13.9095 48.7283 13.9095ZM197.234 34.7945C199.761 34.7945 202.232 34.0445 204.332 32.6396C206.433 31.2347 208.069 29.2382 209.034 26.9028C209.998 24.5674 210.248 21.9984 209.751 19.5211C209.254 17.0438 208.032 14.7698 206.241 12.987C204.451 11.2043 202.171 9.99314 199.691 9.50694C197.211 9.02073 194.642 9.28137 192.311 10.2559C189.979 11.2303 187.989 12.8748 186.593 14.9809C185.197 17.0871 184.458 19.5601 184.469 22.0867C184.483 25.4621 185.835 28.6942 188.227 31.0758C190.619 33.4574 193.858 34.7945 197.234 34.7945ZM197.234 13.9095C198.839 13.9095 200.407 14.3845 201.742 15.2746C203.076 16.1646 204.118 17.4298 204.734 18.9107C205.351 20.3916 205.515 22.0218 205.206 23.5957C204.897 25.1697 204.128 26.617 202.998 27.755C201.867 28.8931 200.425 29.6709 198.853 29.9905C197.281 30.3101 195.649 30.1571 194.164 29.5509C192.678 28.9446 191.406 27.9122 190.507 26.5838C189.607 25.2555 189.122 23.6907 189.111 22.0867C189.103 21.0155 189.308 19.9534 189.713 18.9616C190.118 17.9698 190.715 17.0679 191.47 16.3079C192.225 15.5478 193.123 14.9446 194.113 14.533C195.102 14.1214 196.163 13.9095 197.234 13.9095ZM112.543 34.7945H132.259V30.1534H129.371L121.828 9.2684H117.186L109.642 30.1534H106.741V34.7945H112.543ZM119.451 15.6499L124.674 30.1534H114.16L119.451 15.6499ZM174.079 9.2684H169.437L160.111 34.7945H164.753L171.661 15.6499L178.569 34.7945H183.211L174.079 9.2684ZM71.9389 4.62729H83.5303V6.89259H71.9389V4.62729ZM71.9389 0H83.5303V2.32055H71.9389V0ZM84.6908 27.7223C83.9377 28.498 83.0354 29.1132 82.0381 29.531C81.0409 29.9488 79.9694 30.1605 78.8882 30.1534H77.7415C75.9926 30.1541 74.2904 29.5897 72.8887 28.5442C71.4869 27.4987 70.4607 26.0282 69.9632 24.352H90.2586C90.4025 23.6051 90.4811 22.8472 90.4935 22.0867C90.4935 19.5618 89.7444 17.0937 88.3411 14.9945C86.9377 12.8953 84.9432 11.2595 82.6097 10.2939C80.2763 9.32826 77.7088 9.07632 75.2321 9.56991C72.7554 10.0635 70.4808 11.2804 68.696 13.0668C66.9112 14.8531 65.6965 17.1285 65.2055 19.6052C64.7145 22.0819 64.9693 24.6486 65.9376 26.9805C66.9059 29.3124 68.5443 31.3047 70.6454 32.7055C72.7466 34.1062 75.2161 34.8525 77.7415 34.8497H78.8882C80.9421 34.8603 82.9675 34.3687 84.7879 33.4177C86.6083 32.4668 88.1686 31.0853 89.3329 29.3937L84.6908 27.7223ZM77.7829 13.9095C79.5289 13.9139 81.2269 14.4806 82.6254 15.5255C84.024 16.5705 85.0486 18.0381 85.5474 19.7109H69.9632C70.4647 18.037 71.4919 16.569 72.8927 15.5241C74.2936 14.4793 75.9937 13.9132 77.7415 13.9095H77.7829ZM153.19 27.7223C152.435 28.4967 151.533 29.1111 150.536 29.5288C149.539 29.9465 148.468 30.1589 147.387 30.1534H146.226C144.48 30.1512 142.781 29.5853 141.382 28.5401C139.983 27.4948 138.959 26.0259 138.462 24.352H158.757C158.898 23.586 158.976 22.81 158.992 22.0314C158.992 19.5071 158.243 17.0395 156.841 14.9407C155.438 12.8418 153.444 11.2059 151.112 10.2399C148.779 9.27392 146.212 9.02117 143.736 9.51363C141.26 10.0061 138.985 11.2217 137.2 13.0066C135.414 14.7915 134.198 17.0657 133.706 19.5415C133.213 22.0173 133.466 24.5835 134.432 26.9156C135.399 29.2478 137.035 31.2411 139.134 32.6435C141.233 34.0459 143.702 34.7945 146.226 34.7945H147.387C149.441 34.805 151.466 34.3134 153.287 33.3625C155.107 32.4115 156.667 31.0301 157.832 29.3384L153.19 27.7223ZM146.282 13.9095C148.029 13.9132 149.73 14.4793 151.13 15.5241C152.531 16.569 153.558 18.037 154.06 19.7109H138.42C138.919 18.0381 139.944 16.5705 141.342 15.5255C142.741 14.4806 144.439 13.9139 146.185 13.9095H146.282Z" fill="#E95A43"/>
</svg>
