<svg width="220" height="32" viewBox="0 0 220 32" fill="none" xmlns="http://www.w3.org/2000/svg">
    <path d="M56.9114 14.4401L65.565 7.54061C66.3525 6.91342 66.8585 5.99911 66.9718 4.99883C67.0851 3.99854 66.7964 2.99421 66.1692 2.20678C65.5421 1.41935 64.6277 0.913322 63.6275 0.800013C62.6272 0.686704 61.6228 0.975398 60.8354 1.60259L45.4901 13.8165V4.61707C45.4901 3.61082 45.0904 2.64577 44.3788 1.93424C43.6673 1.22271 42.7023 0.822976 41.696 0.822976C40.6898 0.822976 39.7247 1.22271 39.0132 1.93424C38.3016 2.64577 37.9019 3.61082 37.9019 4.61707V27.3427C37.9019 28.3489 38.3016 29.314 39.0132 30.0255C39.7247 30.737 40.6898 31.1368 41.696 31.1368C42.7023 31.1368 43.6673 30.737 44.3788 30.0255C45.0904 29.314 45.4901 28.3489 45.4901 27.3427V23.4446L50.9344 19.2347L61.7969 30.0843C62.1473 30.4379 62.5642 30.7185 63.0236 30.9101C63.483 31.1016 63.9758 31.2002 64.4736 31.2002C64.9713 31.2002 65.4641 31.1016 65.9236 30.9101C66.383 30.7185 66.7999 30.4379 67.1502 30.0843C67.8557 29.3694 68.2512 28.4055 68.2512 27.4011C68.2512 26.3968 67.8557 25.4329 67.1502 24.718L56.9114 14.4401Z" fill="#4DAD33"/>
    <path d="M218.862 24.666L208.636 14.4401L217.29 7.54061C218.077 6.91342 218.583 5.99911 218.697 4.99883C218.81 3.99854 218.521 2.99421 217.894 2.20678C217.267 1.41935 216.353 0.913322 215.352 0.800013C214.352 0.686704 213.348 0.975398 212.56 1.60259L197.215 13.7775V4.61707C197.215 3.61082 196.815 2.64577 196.104 1.93424C195.392 1.22271 194.427 0.822976 193.421 0.822976C192.415 0.822976 191.45 1.22271 190.738 1.93424C190.027 2.64577 189.627 3.61082 189.627 4.61707V27.3427C189.627 28.3489 190.027 29.314 190.738 30.0255C191.45 30.737 192.415 31.1368 193.421 31.1368C194.427 31.1368 195.392 30.737 196.104 30.0255C196.815 29.314 197.215 28.3489 197.215 27.3427V23.4446L202.659 19.2347L213.522 30.0843C213.872 30.4382 214.289 30.7191 214.748 30.9109C215.208 31.1027 215.701 31.2015 216.199 31.2017C216.695 31.2027 217.186 31.1043 217.643 30.9124C218.101 30.7205 218.515 30.4389 218.862 30.0843C219.222 29.7311 219.509 29.3095 219.704 28.8444C219.899 28.3792 220 27.8797 220 27.3752C220 26.8706 219.899 26.3711 219.704 25.906C219.509 25.4408 219.222 25.0193 218.862 24.666Z" fill="#4DAD33"/>
    <path d="M15.1375 0.82312C12.1416 0.82569 9.21373 1.71643 6.72397 3.38274C4.23421 5.04905 2.29436 7.41611 1.14966 10.1847C0.00495276 12.9533 -0.293223 15.9991 0.292826 18.9372C0.878874 21.8752 2.32283 24.5735 4.44217 26.6911C6.56151 28.8086 9.26107 30.2502 12.1996 30.8338C15.1381 31.4173 18.1837 31.1165 20.9513 29.9694C23.719 28.8223 26.0844 26.8805 27.7485 24.3893C29.4127 21.8981 30.3009 18.9694 30.3009 15.9735C30.2975 11.9542 28.6984 8.10066 25.8551 5.25978C23.0118 2.4189 19.1569 0.823119 15.1375 0.82312ZM15.1375 23.5747C13.6393 23.5747 12.1747 23.1304 10.929 22.2981C9.68325 21.4657 8.71231 20.2826 8.13896 18.8984C7.56561 17.5142 7.4156 15.9911 7.70789 14.5217C8.00018 13.0522 8.72165 11.7024 9.78106 10.643C10.8405 9.58362 12.1902 8.86215 13.6597 8.56986C15.1291 8.27757 16.6523 8.42759 18.0364 9.00094C19.4206 9.57428 20.6037 10.5452 21.4361 11.791C22.2685 13.0367 22.7127 14.5013 22.7127 15.9995C22.7093 18.0075 21.9101 19.9323 20.4902 21.3522C19.0703 22.7721 17.1455 23.5713 15.1375 23.5747Z" fill="#4DAD33"/>
    <path d="M91.0063 0.823143H79.637C79.1383 0.821426 78.6441 0.918391 78.183 1.10845C77.722 1.29852 77.303 1.57792 76.9504 1.93058C76.5977 2.28324 76.3183 2.70218 76.1282 3.16327C75.9382 3.62437 75.8412 4.11851 75.8429 4.61724V27.3428C75.8429 27.8405 75.9411 28.3332 76.132 28.7928C76.3228 29.2524 76.6025 29.6698 76.955 30.0211C77.3075 30.3724 77.7258 30.6506 78.1861 30.8399C78.6463 31.0291 79.1394 31.1257 79.637 31.1239H91.0063C92.9959 31.1239 94.966 30.7321 96.8041 29.9707C98.6423 29.2093 100.312 28.0933 101.719 26.6865C103.126 25.2797 104.242 23.6095 105.003 21.7714C105.765 19.9332 106.157 17.9631 106.157 15.9735C106.157 13.984 105.765 12.0139 105.003 10.1757C104.242 8.33761 103.126 6.66744 101.719 5.26059C100.312 3.85375 98.6423 2.73778 96.8041 1.9764C94.966 1.21502 92.9959 0.823142 91.0063 0.823143ZM91.0063 23.5747H83.4311V8.39834H91.0063C93.0188 8.39834 94.9489 9.19781 96.372 10.6209C97.795 12.0439 98.5945 13.974 98.5945 15.9865C98.5945 17.9991 97.795 19.9291 96.372 21.3522C94.9489 22.7753 93.0188 23.5747 91.0063 23.5747Z" fill="#4DAD33"/>
    <path d="M123.256 8.39823H140.317C140.833 8.42846 141.35 8.35293 141.835 8.17625C142.321 7.99958 142.766 7.72549 143.142 7.37081C143.518 7.01613 143.818 6.58834 144.022 6.1137C144.227 5.63905 144.333 5.12757 144.333 4.61063C144.333 4.09369 144.227 3.5822 144.022 3.10755C143.818 2.63291 143.518 2.20512 143.142 1.85044C142.766 1.49576 142.321 1.22167 141.835 1.045C141.35 0.868323 140.833 0.792787 140.317 0.823025H123.256C121.499 0.82662 119.778 1.31822 118.284 2.24301C116.789 3.1678 115.582 4.48942 114.795 6.0605C114.008 7.63158 113.673 9.39035 113.827 11.1407C113.981 12.891 114.619 14.5641 115.668 15.9734C114.436 17.6094 113.775 19.6038 113.784 21.6516C113.787 24.1627 114.787 26.57 116.562 28.3457C118.338 30.1213 120.745 31.1204 123.256 31.1238H140.317C140.833 31.1541 141.35 31.0785 141.835 30.9019C142.321 30.7252 142.766 30.4511 143.142 30.0964C143.518 29.7417 143.818 29.3139 144.022 28.8393C144.227 28.3647 144.333 27.8532 144.333 27.3362C144.333 26.8193 144.227 26.3078 144.022 25.8332C143.818 25.3585 143.518 24.9307 143.142 24.576C142.766 24.2214 142.321 23.9473 141.835 23.7706C141.35 23.5939 140.833 23.5184 140.317 23.5486H123.256C122.995 23.5703 122.732 23.5376 122.484 23.4524C122.235 23.3672 122.008 23.2315 121.815 23.0539C121.622 22.8762 121.468 22.6604 121.362 22.4202C121.257 22.1799 121.202 21.9204 121.202 21.6581C121.202 21.3957 121.257 21.1362 121.362 20.896C121.468 20.6557 121.622 20.44 121.815 20.2623C122.008 20.0846 122.235 19.9489 122.484 19.8638C122.732 19.7786 122.995 19.7458 123.256 19.7675H139.069C139.585 19.7978 140.102 19.7222 140.588 19.5456C141.074 19.3689 141.518 19.0948 141.894 18.7401C142.271 18.3854 142.57 17.9576 142.775 17.483C142.98 17.0084 143.085 16.4969 143.085 15.9799C143.085 15.463 142.98 14.9515 142.775 14.4769C142.57 14.0022 142.271 13.5744 141.894 13.2197C141.518 12.8651 141.074 12.591 140.588 12.4143C140.102 12.2376 139.585 12.1621 139.069 12.1923H123.256C122.753 12.1923 122.271 11.9925 121.915 11.6367C121.559 11.2809 121.359 10.7984 121.359 10.2953C121.359 9.79215 121.559 9.30962 121.915 8.95386C122.271 8.59809 122.753 8.39823 123.256 8.39823Z" fill="#4DAD33"/>
    <path d="M172.567 12.1923H161.197C160.694 12.1923 160.212 11.9925 159.856 11.6367C159.5 11.2809 159.3 10.7984 159.3 10.2953C159.3 9.79215 159.5 9.30962 159.856 8.95386C160.212 8.59809 160.694 8.39823 161.197 8.39823H177.01C177.526 8.42846 178.043 8.35293 178.529 8.17625C179.015 7.99958 179.459 7.72549 179.835 7.37081C180.211 7.01613 180.511 6.58834 180.716 6.1137C180.921 5.63905 181.026 5.12757 181.026 4.61063C181.026 4.09369 180.921 3.5822 180.716 3.10755C180.511 2.63291 180.211 2.20512 179.835 1.85044C179.459 1.49576 179.015 1.22167 178.529 1.045C178.043 0.868323 177.526 0.792787 177.01 0.823025H161.197C158.685 0.823025 156.276 1.82099 154.499 3.59738C152.723 5.37377 151.725 7.78308 151.725 10.2953C151.725 12.8075 152.723 15.2168 154.499 16.9932C156.276 18.7696 158.685 19.7675 161.197 19.7675H172.567C172.828 19.7458 173.091 19.7786 173.339 19.8638C173.587 19.9489 173.815 20.0846 174.008 20.2623C174.201 20.44 174.355 20.6557 174.461 20.896C174.566 21.1362 174.62 21.3957 174.62 21.6581C174.62 21.9204 174.566 22.1799 174.461 22.4202C174.355 22.6604 174.201 22.8762 174.008 23.0539C173.815 23.2315 173.587 23.3672 173.339 23.4524C173.091 23.5376 172.828 23.5703 172.567 23.5486H156.753C156.237 23.5184 155.721 23.5939 155.235 23.7706C154.749 23.9473 154.304 24.2214 153.928 24.576C153.552 24.9307 153.253 25.3585 153.048 25.8332C152.843 26.3078 152.737 26.8193 152.737 27.3362C152.737 27.8532 152.843 28.3647 153.048 28.8393C153.253 29.3139 153.552 29.7417 153.928 30.0964C154.304 30.4511 154.749 30.7252 155.235 30.9019C155.721 31.0785 156.237 31.1541 156.753 31.1238H172.567C173.839 31.171 175.108 30.9611 176.298 30.5066C177.487 30.0521 178.573 29.3625 179.49 28.4789C180.407 27.5952 181.136 26.5358 181.635 25.3638C182.133 24.1919 182.39 22.9315 182.39 21.6581C182.39 20.3846 182.133 19.1243 181.635 17.9523C181.136 16.7804 180.407 15.7209 179.49 14.8373C178.573 13.9537 177.487 13.264 176.298 12.8096C175.108 12.3551 173.839 12.1452 172.567 12.1923Z" fill="#4DAD33"/>
</svg>
