<svg width="247" height="31" viewBox="0 0 247 31" fill="none" xmlns="http://www.w3.org/2000/svg">
    <path d="M70.1552 25.4101C67.9948 25.4101 65.0635 25.1248 62.9698 22.8005C60.8761 20.4761 60.6879 17.0412 60.6879 14.5894C60.6879 11.4093 60.9792 8.13219 62.8788 5.93529C65.1364 3.32571 68.6441 3.13757 70.2524 3.13757H79.307V6.47541H72.249C69.7304 6.47541 67.6064 6.63927 66.3198 8.54487C65.6461 9.53408 65.0635 11.2212 65.0635 14.5287C65.0635 17.8362 65.6704 19.2381 66.1256 19.936C67.2847 21.6899 69.3481 22.0722 72.0184 22.0722H79.6529V25.4101H70.1552Z" fill="black"/>
    <path d="M86.45 21.3382C87.5484 22.5823 89.187 22.7401 90.5403 22.7401C91.8937 22.7401 93.4716 22.5823 94.6004 21.3382C95.7292 20.0941 95.7292 18.4737 95.7292 17.0112C95.7292 15.7974 95.8263 13.8615 94.6368 12.5567C93.5383 11.3429 91.8937 11.2215 90.5403 11.2215C89.3266 11.2215 87.5059 11.349 86.4196 12.5567C85.3333 13.7644 85.3576 15.9309 85.3576 17.0112C85.3576 18.4131 85.3879 20.1305 86.45 21.3382ZM97.4345 10.1352C99.4008 11.9559 99.6253 15.1359 99.6253 16.9141C99.6253 20.4825 98.6907 22.6127 97.4345 23.79C95.6139 25.4771 92.5066 25.6106 90.5403 25.6106C88.5741 25.6106 85.5154 25.4832 83.6523 23.79C81.6192 21.9694 81.4614 18.759 81.4614 17.0415C81.4614 15.1359 81.686 11.9498 83.6523 10.1352C85.5154 8.41774 88.5073 8.35706 90.5403 8.35706C92.5734 8.35706 95.5714 8.41774 97.4345 10.1352Z" fill="black"/>
    <path d="M117.182 22.5456C119.246 22.5456 120.338 22.1632 120.987 21.0527C121.637 19.9421 121.661 18.6251 121.661 17.199C121.661 15.0992 121.497 13.6366 120.854 12.7445C119.956 11.5307 118.311 11.4093 117.249 11.4093H115.307V22.5456H117.182ZM111.544 11.4033H109.615C108.583 11.4033 106.938 11.5004 105.973 12.7384C105.427 13.5031 105.172 14.7472 105.172 17.1929C105.172 18.6251 105.203 19.9967 105.846 21.0466C106.489 22.0965 107.588 22.5395 109.645 22.5395H111.514L111.544 11.4033ZM115.307 3.13757V8.54487H118.791C120.611 8.54487 122.911 8.89686 124.362 11.1848C125.575 13.0661 125.575 15.2934 125.575 17.1686C125.575 19.4323 125.448 21.3682 124.161 23.1221C122.547 25.319 120.326 25.4101 118.7 25.4101H115.307V30.8234H111.544V25.4101H108.194C106.617 25.4101 104.329 25.319 102.733 23.1221C101.519 21.4653 101.312 19.2684 101.312 17.1686C101.312 15.4208 101.41 12.969 102.526 11.1848C103.94 8.89686 106.325 8.54487 108.097 8.54487H111.575V3.13757H115.307Z" fill="black"/>
    <path d="M132.803 25.41V11.4032H126.395V8.5448H142.987V11.4032H136.548V25.41H132.803Z" fill="black"/>
    <path d="M162.443 25.4102V5.33462C162.443 5.17077 162.443 4.72774 162.122 4.72774C161.8 4.72774 161.515 5.26787 161.315 5.6502L149.687 23.7231C149.044 24.7123 148.528 25.6651 147.138 25.6651C145.317 25.6651 145.238 23.9476 145.238 23.0919V3.13772H146.98V22.8977C146.98 23.3468 146.883 23.8505 147.369 23.8505C147.654 23.8505 147.818 23.4378 147.975 23.2436L159.415 5.23752C160.319 3.83563 160.823 2.9071 162.249 2.9071C164.185 2.9071 164.185 5.10401 164.185 5.67448V25.4102H162.443Z" fill="black"/>
    <path d="M179.964 25.41V17.472H169.72V25.41H168.045V8.5448H169.72V15.9609H179.964V8.5448H181.639V25.41H179.964Z" fill="black"/>
    <path d="M186.537 22.8674C186.512 23.1465 186.58 23.4261 186.731 23.6624C186.841 23.7663 186.975 23.8433 187.12 23.8875C187.265 23.9317 187.418 23.9419 187.568 23.9173H193.637C194.572 23.9173 195.312 23.9173 195.895 23.1829C196.477 22.4486 196.502 21.4351 196.502 20.5733C196.592 19.7179 196.377 18.8579 195.895 18.1458C195.658 17.8807 195.364 17.6737 195.034 17.5411C194.705 17.4085 194.349 17.3537 193.995 17.3812H186.537V22.8674ZM194.013 15.864C194.357 15.907 194.706 15.866 195.031 15.7444C195.355 15.6228 195.646 15.4244 195.876 15.166C196.382 14.5142 196.614 13.6919 196.526 12.872C196.526 12.2348 196.526 11.2517 195.816 10.6145C195.307 10.1941 194.653 9.98933 193.995 10.044H187.198C187.015 10.0461 186.836 10.1009 186.682 10.2018C186.581 10.328 186.524 10.4834 186.518 10.6448V15.864H194.013ZM184.862 10.5538C184.852 10.0238 185.048 9.51076 185.408 9.12153C185.799 8.74575 186.316 8.52935 186.858 8.51465H194.299C195.009 8.51465 196.526 8.61175 197.454 9.75875C198.201 10.6509 198.328 12.0163 198.328 13.0359C198.417 13.9326 198.189 14.832 197.685 15.5787C197.481 15.8508 197.225 16.0787 196.931 16.2487C196.636 16.4187 196.311 16.5273 195.974 16.5679V16.6286C196.681 16.7532 197.314 17.1415 197.746 17.7149C198.23 18.4693 198.444 19.3659 198.353 20.2578C198.353 21.6597 198.286 23.189 197.224 24.3299C196.895 24.6803 196.494 24.9555 196.049 25.1367C195.604 25.3179 195.125 25.4008 194.644 25.3798H186.7C186.44 25.3885 186.18 25.3452 185.936 25.2525C185.692 25.1597 185.469 25.0194 185.28 24.8397C184.954 24.4262 184.803 23.9008 184.862 23.3771V10.5538Z" fill="black"/>
    <path d="M212.469 16.0584C213.209 16.0584 213.179 15.1663 213.179 14.9417C213.222 13.694 212.81 12.473 212.019 11.5068C210.806 10.0745 209.119 10.0442 207.601 10.0442C205.896 10.0442 204.063 10.1049 202.868 12.0772C202.194 13.2242 202.091 14.4016 202.091 16.0584H212.469ZM206.157 25.4104C205.294 25.451 204.435 25.285 203.649 24.9261C202.864 24.5672 202.176 24.0258 201.642 23.347C200.325 21.6599 200.258 19.5236 200.258 17.0415C200.258 14.6868 200.392 11.8223 202.546 10.0442C204.094 8.76974 206.187 8.5452 207.893 8.5452C209.4 8.49755 210.895 8.82495 212.244 9.498C212.918 9.91674 214.981 11.3186 214.981 14.8446C214.981 15.324 214.951 16.471 214.271 17.0415C213.741 17.4153 213.098 17.5953 212.45 17.5513H202.091C202.042 18.704 202.14 19.8583 202.382 20.9862C202.589 21.8345 203.078 22.5871 203.77 23.1199C204.462 23.6527 205.314 23.934 206.187 23.9175H214.562V25.4104H206.157Z" fill="black"/>
    <path d="M229.473 25.41V17.472H219.235V25.41H217.554V8.5448H219.235V15.9609H229.473V8.5448H231.154V25.41H229.473Z" fill="black"/>
    <path d="M238.88 25.41V10.0438H232.435V8.5448H247V10.0438H240.561V25.41H238.88Z" fill="black"/>
    <path d="M26.1807 0.00012207L16.5374 30.8235H23.5833L33.2266 0.00012207H26.1807Z" fill="#FEC110"/>
    <path d="M12.5139 0L0 15.3116H8.24142L20.822 0H12.5139Z" fill="#34A5DD"/>
    <path d="M0 15.3115L12.5139 30.8234H20.822L8.24142 15.3115H0Z" fill="#54C3F0"/>
    <path d="M28.8571 0.00012207L40.7823 15.3056H49.1572L37.1653 0.00012207H28.8571Z" fill="#8BC44A"/>
    <path d="M40.7823 15.3054L28.8571 30.8233H37.1653L49.1572 15.3054H40.7823Z" fill="#49B050"/>
</svg>
