<svg xmlns="http://www.w3.org/2000/svg" display="none">

    <symbol id="arrow-btn" viewBox="0 0 29 29">
        <path d="M1 0V20H27" stroke-width="1.5" stroke-miterlimit="10"/>
        <path d="M19 11L27 19.5057L19 28" stroke-width="1.5" stroke-miterlimit="10"/>
    </symbol>

    <symbol id="arrow-right" viewBox="0 0 28 28">
        <path d="M15.6931 25.3069L26.7365 14.2635L15.6931 3.2201" stroke-miterlimit="10"/>
        <path d="M-3.02136e-05 14.2635L26.7366 14.2635" stroke-miterlimit="10"/>
    </symbol>

    <symbol id="arrow-left" viewBox="0 0 24 23">
        <path d="M10.1971 20.3306L1.00003 11.1335L10.1971 1.93635" stroke-miterlimit="10"/>
        <path d="M23.2668 11.1335H1.00008" stroke-miterlimit="10"/>
    </symbol>

    <symbol id="arrow-link-top" viewBox="0 0 15 15">
        <path d="M14.1982 11.8093L14.1982 1.06393L3.45285 1.06393" stroke-miterlimit="10"/>
        <path d="M1.19066 14.0715L14.1982 1.06395" stroke-miterlimit="10"/>
    </symbol>


    <symbol id="arrow-link" viewBox="0 0 47 47">
        <path d="M1 8.26001V45.78H38.52" stroke-width="2" stroke-miterlimit="10"/>
        <path d="M46.07 0.710022L1 45.78" stroke-width="2" stroke-miterlimit="10"/>
    </symbol>

    <symbol id="right" viewBox="0 0 68 67">
        <path d="M38.8938 61.238L66.2635 33.8683L38.8938 6.49864" stroke="white" stroke-width="2"
              stroke-miterlimit="10"/>
        <path d="M9.51449e-05 33.8683H66.2636" stroke-width="2" stroke-miterlimit="10"/>
    </symbol>


    <symbol id="tg" viewBox="0 0 21 18">
        <path fill-rule="evenodd" clip-rule="evenodd"
              d="M1.47854 7.78602C7.11705 5.23766 10.8729 3.55223 12.7459 2.72974C18.121 0.413964 19.233 0.0203641 19.9549 0.00013901C20.2224 -0.00381964 20.4846 0.0768481 20.7061 0.232214C20.8598 0.372475 20.9572 0.567325 20.9793 0.778332C21.0069 1.04048 21.0069 1.30524 20.9793 1.56739C20.6866 4.73262 19.4282 12.4184 18.7843 15.9679C18.5112 17.4747 17.9844 17.9904 17.4674 17.9904C16.3455 18.1017 15.5163 17.2216 14.4042 16.4834C12.7068 15.3306 11.741 14.6126 10.0924 13.4496C8.14137 12.1451 9.4193 11.4267 10.5119 10.2638C10.7948 9.96042 15.7407 5.29845 15.8285 4.87372C15.8452 4.81194 15.8459 4.74726 15.8305 4.6851C15.8151 4.62294 15.7841 4.56592 15.7407 4.52018C15.6334 4.40894 15.4675 4.44939 15.3407 4.52018C15.2139 4.59097 12.4142 6.42087 7.19514 10.1018C6.59382 10.589 5.86026 10.8684 5.09774 10.9008C4.0721 10.7756 3.06385 10.5284 2.09312 10.1631C0.883472 9.75856 -0.0822494 9.5464 0.00554757 8.84863C0.0835893 8.53514 0.561545 8.16019 1.47854 7.78602Z"/>
    </symbol>

    <symbol id="vk" viewBox="0 0 26 17">
        <path d="M13.96 16.27C5.40996 16.27 0.539956 10.41 0.329956 0.659973H4.60999C4.74999 7.80997 7.91003 10.84 10.41 11.47V0.659973H14.41V6.82997C16.88 6.55997 19.48 3.74997 20.35 0.659973H24.35C24.0204 2.26381 23.3637 3.78246 22.4208 5.12107C21.4779 6.45969 20.2691 7.58951 18.87 8.43997C20.4341 9.21526 21.8155 10.3144 22.9224 11.6643C24.0292 13.0143 24.8363 14.5842 25.29 16.27H20.85C20.4418 14.8056 19.6098 13.4946 18.4586 12.5018C17.3074 11.509 15.8884 10.8786 14.38 10.69V16.27H13.96Z"/>
    </symbol>

    <symbol id="youtube" viewBox="0 0 27 19">
        <path d="M19.9452 0H7.0548C0 0 0 2.03834 0 7.05065V11.9494C0 16.7144 0.988528 19 7.0548 19H19.9452C25.4151 19 27 17.6634 27 11.9494V7.05065C27 1.77436 26.7331 0 19.9452 0ZM10.742 13.2225V5.53693L18.0176 9.36634L10.742 13.2225Z"/>
    </symbol>

    <symbol id="location" viewBox="0 0 25 32">
        <path d="M22.7962 17.881C23.7122 16.1205 24.1592 14.1538 24.094 12.1702C24.0288 10.1867 23.4536 8.25332 22.4239 6.55678C21.3942 4.86024 19.9447 3.45842 18.2152 2.48502C16.4858 1.51162 14.5347 1 12.5501 1C10.5655 1 8.61444 1.51162 6.88498 2.48502C5.15552 3.45842 3.70605 4.86024 2.67635 6.55678C1.64664 8.25332 1.07145 10.1867 1.00624 12.1702C0.941028 14.1538 1.388 16.1205 2.30405 17.881V17.881C2.29981 17.9039 2.29981 17.9275 2.30405 17.9504C2.53132 18.3822 2.78601 18.7993 3.06655 19.1985C5.23274 22.5258 8.45602 26.0611 12.5978 31C16.4276 26.1304 19.9455 22.1879 21.9297 19.2332C22.2129 18.8293 22.4732 18.4096 22.7095 17.9766L22.7962 17.881Z"
              stroke-width="0.75" stroke-miterlimit="10"/>
        <path d="M12.5371 17.4827C15.0782 17.4827 17.1381 15.4228 17.1381 12.8817C17.1381 10.3407 15.0782 8.28076 12.5371 8.28076C9.99606 8.28076 7.93613 10.3407 7.93613 12.8817C7.93613 15.4228 9.99606 17.4827 12.5371 17.4827Z"
              stroke-width="0.75" stroke-miterlimit="10"/>
    </symbol>

    <symbol id="mail" viewBox="0 0 29 20">
        <path d="M28 1H1V19.5505H28V1Z" stroke-width="0.75" stroke-miterlimit="10"/>
        <path d="M14.5 10.2718L1 1H28L14.5 10.2718Z" stroke-width="0.75" stroke-linejoin="bevel"/>
    </symbol>

    <symbol id="phone" viewBox="0 0 18 30">
        <rect x="0.911133" y="1.09351" width="16.1658" height="27.6096" rx="3.5"/>
        <path d="M6.13281 25.9334H12.6722"/>
        <rect x="6.63281" y="1.09348" width="4.72192" height="1.45225"/>
    </symbol>


    <symbol id="clock" viewBox="0 0 26 26">
        <path d="M13 25C19.6274 25 25 19.6274 25 13C25 6.37258 19.6274 1 13 1C6.37258 1 1 6.37258 1 13C1 19.6274 6.37258 25 13 25Z"
              stroke-width="0.75" stroke-miterlimit="10"/>
        <path d="M20.0792 14.2212H13V7.44043" stroke-width="0.75" stroke-miterlimit="10"/>
    </symbol>

    <symbol id="btn-play" viewBox="0 0 133 133">
        <circle cx="66.5" cy="66.5" r="65" stroke-width="3"/>
        <path d="M85.75 65.201C86.75 65.7783 86.75 67.2217 85.75 67.799L58 83.8205C57 84.3979 55.75 83.6762 55.75 82.5215L55.75 50.4785C55.75 49.3238 57 48.6021 58 49.1795L85.75 65.201Z"
              stroke-width="3"/>
    </symbol>

    <symbol id="file" viewBox="0 0 71 87">
        <path d="M69.9327 86.4465H1V1H43.7756L69.9327 27.1571V86.4465Z" stroke-miterlimit="10"/>
        <path d="M69.8978 27.2618H43.4617V1.06982" stroke-miterlimit="10"/>
        <path d="M14.2354 41.6655H56.6621" stroke-miterlimit="10"/>
        <path d="M14.2354 51.7798H56.6621" stroke-miterlimit="10"/>
        <path d="M14.2354 61.894H37.7244" stroke-miterlimit="10"/>
    </symbol>

</svg>