<svg width="21" height="18" viewBox="0 0 21 18" fill="none" xmlns="http://www.w3.org/2000/svg">
    <path fill-rule="evenodd" clip-rule="evenodd" d="M1.47854 7.78602C7.11705 5.23766 10.8729 3.55223 12.7459 2.72974C18.121 0.413964 19.233 0.0203641 19.9549 0.00013901C20.2224 -0.00381964 20.4846 0.0768481 20.7061 0.232214C20.8598 0.372475 20.9572 0.567325 20.9793 0.778332C21.0069 1.04048 21.0069 1.30524 20.9793 1.56739C20.6866 4.73262 19.4282 12.4184 18.7843 15.9679C18.5112 17.4747 17.9844 17.9904 17.4674 17.9904C16.3455 18.1017 15.5163 17.2216 14.4042 16.4834C12.7068 15.3306 11.741 14.6126 10.0924 13.4496C8.14137 12.1451 9.4193 11.4267 10.5119 10.2638C10.7948 9.96042 15.7407 5.29845 15.8285 4.87372C15.8452 4.81194 15.8459 4.74726 15.8305 4.6851C15.8151 4.62294 15.7841 4.56592 15.7407 4.52018C15.6334 4.40894 15.4675 4.44939 15.3407 4.52018C15.2139 4.59097 12.4142 6.42087 7.19514 10.1018C6.59382 10.589 5.86026 10.8684 5.09774 10.9008C4.0721 10.7756 3.06385 10.5284 2.09312 10.1631C0.883472 9.75856 -0.0822494 9.5464 0.00554757 8.84863C0.0835893 8.53514 0.561545 8.16019 1.47854 7.78602Z" fill="black"/>
</svg>
