<svg width="154" height="96" viewBox="0 0 154 96" fill="none" xmlns="http://www.w3.org/2000/svg">
    <path d="M116.684 38.5422H116.657C115.859 38.8937 115.466 40.0523 115.719 40.8505C115.887 41.4019 116.253 41.8718 116.746 42.1699C117.051 42.3505 117.399 42.4458 117.753 42.4458C118.107 42.4458 118.455 42.3505 118.76 42.1699C119.323 41.8453 119.817 41.1275 119.749 40.4484C119.725 40.225 119.71 39.9897 119.665 39.7604C119.577 39.4162 119.398 39.1019 119.148 38.8504C118.897 38.5989 118.583 38.4194 118.239 38.3308L117.685 38.2593C117.333 38.2592 116.987 38.3527 116.684 38.5303" fill="black"/>
    <path d="M93.4762 29.7141C93.3719 30.4229 93.4762 31.0812 94.0719 31.0603C94.6676 31.0395 94.7003 30.3485 94.7003 29.9464C94.7003 29.5443 94.882 28.8176 95.0696 29.4222C95.1769 29.7826 94.882 30.7982 95.707 30.9531C96.532 31.108 96.3891 30.8489 96.3027 29.8719C96.2163 28.895 95.7577 26.9859 95.0875 26.9174H95.019C94.0629 26.9174 93.5566 29.0231 93.4524 29.72" fill="black"/>
    <path d="M85.6995 16.7787C85.5566 18.1816 86.1731 19.5546 86.4501 20.2962C87.1023 22.0654 86.0867 23.0602 86.322 23.2568C86.5573 23.4533 87.6295 22.5568 88.0882 20.9902C88.8507 18.4258 87.1768 20.2873 86.7181 16.6953C86.2565 12.9842 88.386 10.8994 87.8708 10.7385H87.8559C87.4836 10.7385 85.9944 13.9373 85.6995 16.7698" fill="black"/>
    <path d="M88.3444 22.4854C88.3444 24.5435 89.2379 25.2166 91.2096 25.166C93.1814 25.1153 93.777 24.6209 93.8604 24.0401C93.9289 23.5606 93.923 22.8488 93.5626 22.6016C93.3325 22.507 93.0795 22.4831 92.8359 22.533C92.2648 22.6192 91.6816 22.5045 91.1858 22.2084C89.9438 21.4042 89.232 20.9604 88.8329 20.9604C88.4338 20.9604 88.3355 21.434 88.3355 22.4765" fill="black"/>
    <path d="M99.5699 20.8235C98.6079 21.4936 97.1574 22.4467 96.7732 22.7118C96.389 22.9768 96.4158 23.6619 96.4753 24.1414C96.5558 24.7103 97.1723 25.3328 99.1261 25.1749C101.163 25.017 101.786 24.0223 101.786 21.9821C101.786 20.7013 101.854 19.915 101.324 19.915C101.005 19.915 100.463 20.195 99.561 20.8235" fill="black"/>
    <path d="M93.089 33.1808C91.4955 32.74 91.7159 32.0669 91.9155 31.9269C92.2848 31.6916 92.8448 32.5524 95.2632 32.5851C96.1954 32.6473 97.1257 32.4405 97.9438 31.9894C98.4203 31.7988 98.4799 32.0758 98.471 32.3647C98.462 32.6536 98.2982 32.9217 97.0413 33.2314C96.4219 33.3872 95.7858 33.4672 95.1471 33.4697C94.4478 33.4637 93.7526 33.3636 93.0801 33.1719L93.089 33.1808ZM91.6981 35.7631C90.0748 34.7325 88.9758 33.5859 89.1277 31.7244C89.2796 29.8629 87.981 28.323 88.2938 27.8078C88.6065 27.2925 89.1873 27.3133 89.917 31.5069C90.3518 33.9999 92.1329 36.0133 96.0346 35.6767C99.4568 35.3789 100.157 31.7422 100.249 30.1398C100.341 28.5375 100.404 28.0043 100.958 27.7244C101.512 27.4444 101.396 28.2009 101.235 29.1093C101.048 30.4329 100.995 31.7721 101.077 33.1063C101.157 34.7683 100.204 34.7683 98.8611 35.7184C97.5179 36.6685 96.5231 37.8569 95.3824 37.973H95.2364C94.1582 37.973 93.2528 36.734 91.6981 35.7512V35.7631ZM86.3608 27.0155C84.1478 26.7832 84.8448 23.8822 85.9646 22.4824C87.1292 21.0259 85.8515 20.883 85.4315 19.3044C85.0592 17.8986 84.8597 16.9664 85.4941 14.3483C86.1285 11.7303 87.8768 7.62609 94.5186 7.62609C103.245 7.62609 104.773 14.7504 104.282 18.0505C104.234 16.5613 103.487 15.224 103.329 15.1972C103.114 15.1495 102.483 16.8443 102.435 18.8874C102.388 20.9306 102.057 21.5442 102.915 22.8249C103.454 23.635 104.088 23.6559 104.321 23.3967C105.032 24.195 105.02 24.0996 104.8 25.9016C104.648 27.1644 103.57 26.9649 102.349 26.7653C101.673 26.6093 100.973 26.584 100.288 26.6909C98.8254 27.0483 99.2126 27.4801 99.4538 28.9068C99.6951 30.3334 98.7748 31.9448 94.8582 31.8167C90.9416 31.6886 90.9862 30.1935 91.1083 28.2754C91.2156 26.5568 89.9349 26.7415 88.395 26.9232C87.9092 26.9896 87.4199 27.0274 86.9296 27.0364C86.7376 27.0369 86.5457 27.027 86.3548 27.0066L86.3608 27.0155ZM85.5298 2.83384C84.3689 3.57298 83.2932 4.43798 82.3221 5.41314C81.3183 6.49398 80.1013 7.35498 78.748 7.9418C77.9736 8.26347 77.1039 8.53748 76.264 8.40346C75.4241 8.26943 74.5425 7.87628 73.7115 8.01031C73.0738 8.12063 72.4956 8.45288 72.0792 8.94832C71.6628 9.44377 71.435 10.0705 71.436 10.7177C71.436 11.504 71.7874 12.1294 71.6028 12.9604C71.3854 13.9403 70.7658 14.5688 70.2327 15.3699C69.6659 16.1664 69.18 17.0175 68.7822 17.9105C67.1382 21.9909 67.2067 26.6075 68.672 30.7177C69.9379 34.2471 72.1746 37.3714 75.2841 39.3163C74.3578 40.3766 74.2506 42.3513 75.4122 43.2865C75.6397 43.5159 75.9105 43.6979 76.2088 43.8222C76.507 43.9464 76.8269 44.0104 77.1501 44.0104C77.4732 44.0104 77.7931 43.9464 78.0914 43.8222C78.3896 43.6979 78.6604 43.5159 78.888 43.2865C79.1998 43.0089 79.4386 42.6589 79.5835 42.2673C79.7284 41.8757 79.7749 41.4546 79.7189 41.0408C80.5683 41.1406 81.4278 41.1114 82.2684 40.9544C82.4716 42.0637 83.0474 43.0703 83.9006 43.8077C84.7602 44.5366 85.8393 44.956 86.9654 44.9991C86.8918 45.2681 86.8429 45.5433 86.8194 45.8211C86.7363 46.5405 86.8294 47.2693 87.0905 47.9448C87.2302 48.309 87.4477 48.6383 87.7279 48.9098C88.669 49.7794 90.5156 49.7794 91.4538 48.9098C92.4903 47.9477 92.5678 45.9314 92.2014 44.74C92.0743 44.328 91.8634 43.9467 91.5819 43.6201C91.3079 43.2955 91.0458 42.8576 90.6437 42.6164C87.013 40.1175 83.43 37.7586 82.5335 37.2553C80.5708 36.1771 80.0108 36.8323 78.5484 37.2553C77.086 37.6782 75.7696 36.5672 76.264 35.2925C76.5767 34.5032 78.1553 34.7117 78.6467 34.2798C78.9445 34.0207 78.9445 33.4459 78.8254 33.011C78.4769 31.8554 78.5574 31.1168 80.0972 30.7862C81.3928 30.5151 81.8842 32.0311 81.9736 33.1868C82.0093 33.702 82.6348 34.6551 83.0428 35.0006C84.1031 35.909 89.2975 39.498 93.6787 42.2798C98.6765 39.3759 106.17 34.7355 106.486 33.8122C106.924 32.5255 106.784 31.358 108.499 30.6372C110.215 29.9165 111.933 31.495 111.397 32.9008C110.861 34.3066 112.791 34.0684 112.791 35.3431C112.791 36.6179 110.659 36.3528 109.482 35.9686C108.633 35.6946 100.618 40.2873 95.4836 43.3967C96.8194 44.2313 98.2038 44.9852 99.6296 45.6544C99.7524 45.7011 99.8824 45.7263 100.014 45.7288C101.363 45.5739 102.361 44.9574 103.749 46.1905C105.137 47.4235 104.437 49.6603 102.936 49.7646C102.057 49.836 101.959 50.4109 101.795 50.9946C101.848 51.4593 101.914 51.9716 101.941 52.4064C102.006 53.6692 101.756 54.9708 102.111 56.186C101.944 56.3409 101.929 56.5732 101.813 56.7817C101.405 57.5263 101.405 58.6938 102.131 59.2716C102.557 59.6112 102.995 59.909 103.579 59.8673C104.675 59.7958 105.664 58.9738 105.634 57.8152C105.629 57.4977 105.559 57.1846 105.431 56.8945C105.302 56.6043 105.116 56.3431 104.883 56.1264C104.716 55.9667 104.52 55.8395 104.306 55.7511C104.58 54.667 104.604 53.4846 104.687 52.4064C104.711 52.1383 104.729 51.8524 104.746 51.5605C105.756 51.4593 107.501 51.0334 108.321 50.2858C109.586 49.1756 110.37 47.6157 110.504 45.9373C110.542 45.2046 110.206 44.7966 110.072 44.1324C109.92 43.3669 110.59 42.8368 111.186 42.4853C112.083 41.9362 112.832 41.1766 113.369 40.2724C113.888 39.4462 114.232 38.5229 114.382 37.5591C114.432 37.1421 114.367 36.9634 114.679 36.6417C115.014 36.3382 115.446 36.1657 115.898 36.1562C116.595 36.1562 116.461 36.6923 116.997 37.008C117.143 37.0957 117.311 37.1419 117.482 37.1419C117.653 37.1419 117.821 37.0957 117.968 37.008C119.373 36.189 119.659 34.5509 119.778 33.0617C119.774 33.0181 119.774 32.9742 119.778 32.9306C119.844 32.2475 119.712 31.5599 119.397 30.95C119.034 30.1756 119.287 29.4012 119.662 28.6715C120.13 27.7452 119.993 26.3722 119.823 25.3774C120.026 21.2076 118.947 16.7609 117.333 13.7854C116.812 12.8476 116.166 11.9849 115.412 11.221C114.002 9.73244 112.295 8.55556 110.402 7.76608C109.983 7.6142 109.535 7.55921 109.092 7.60524C108.817 7.62281 108.541 7.61683 108.267 7.58737C107.418 7.46526 106.673 6.61046 106.465 5.80033C106.346 5.35655 106.525 4.98723 106.465 4.55238C106.339 3.96731 106.074 3.42096 105.694 2.95893C104.822 1.85894 103.554 1.14461 102.161 0.969358C101.431 0.862136 100.785 1.08254 100.139 1.29996C99.3347 1.57397 98.5424 1.84501 97.6072 1.49356C96.0961 0.939672 94.4989 0.657341 92.8894 0.659604C90.2693 0.646047 87.7022 1.39755 85.503 2.82193" fill="black"/>
    <path d="M116.684 38.5422H116.657C115.859 38.8937 115.466 40.0523 115.719 40.8505C115.887 41.4019 116.253 41.8718 116.746 42.1699C117.051 42.3505 117.399 42.4458 117.753 42.4458C118.107 42.4458 118.455 42.3505 118.76 42.1699C119.323 41.8453 119.817 41.1275 119.749 40.4484C119.725 40.225 119.71 39.9897 119.665 39.7604C119.577 39.4162 119.398 39.1019 119.148 38.8504C118.897 38.5989 118.583 38.4194 118.239 38.3308L117.685 38.2593C117.333 38.2592 116.987 38.3527 116.684 38.5303" fill="black"/>
    <path d="M93.4762 29.7141C93.3719 30.4229 93.4762 31.0812 94.0719 31.0603C94.6676 31.0395 94.7003 30.3485 94.7003 29.9464C94.7003 29.5443 94.882 28.8176 95.0696 29.4222C95.1769 29.7826 94.882 30.7982 95.707 30.9531C96.532 31.108 96.3891 30.8489 96.3027 29.8719C96.2163 28.895 95.7577 26.9859 95.0875 26.9174H95.019C94.0629 26.9174 93.5566 29.0231 93.4524 29.72" fill="black"/>
    <path d="M85.6995 16.7787C85.5566 18.1816 86.1731 19.5546 86.4501 20.2962C87.1023 22.0654 86.0867 23.0602 86.322 23.2568C86.5573 23.4533 87.6295 22.5568 88.0882 20.9902C88.8507 18.4258 87.1768 20.2873 86.7181 16.6953C86.2565 12.9842 88.386 10.8994 87.8708 10.7385H87.8559C87.4836 10.7385 85.9944 13.9373 85.6995 16.7698" fill="black"/>
    <path d="M88.3444 22.4854C88.3444 24.5435 89.2379 25.2166 91.2096 25.166C93.1814 25.1153 93.777 24.6209 93.8604 24.0401C93.9289 23.5606 93.923 22.8488 93.5626 22.6016C93.3325 22.507 93.0795 22.4831 92.8359 22.533C92.2648 22.6192 91.6816 22.5045 91.1858 22.2084C89.9438 21.4042 89.232 20.9604 88.8329 20.9604C88.4338 20.9604 88.3355 21.434 88.3355 22.4765" fill="black"/>
    <path d="M99.5699 20.8235C98.6079 21.4936 97.1574 22.4467 96.7732 22.7118C96.389 22.9768 96.4158 23.6619 96.4753 24.1414C96.5558 24.7103 97.1723 25.3328 99.1261 25.1749C101.163 25.017 101.786 24.0223 101.786 21.9821C101.786 20.7013 101.854 19.915 101.324 19.915C101.005 19.915 100.463 20.195 99.561 20.8235" fill="black"/>
    <path d="M93.089 33.1808C91.4955 32.74 91.7159 32.0669 91.9155 31.9269C92.2848 31.6916 92.8448 32.5524 95.2632 32.5851C96.1954 32.6473 97.1257 32.4405 97.9438 31.9894C98.4203 31.7988 98.4799 32.0758 98.471 32.3647C98.462 32.6536 98.2982 32.9217 97.0413 33.2314C96.4219 33.3872 95.7858 33.4672 95.1471 33.4697C94.4478 33.4637 93.7526 33.3636 93.0801 33.1719L93.089 33.1808ZM91.6981 35.7631C90.0748 34.7325 88.9758 33.5859 89.1277 31.7244C89.2796 29.8629 87.981 28.323 88.2938 27.8078C88.6065 27.2925 89.1873 27.3133 89.917 31.5069C90.3518 33.9999 92.1329 36.0133 96.0346 35.6767C99.4568 35.3789 100.157 31.7422 100.249 30.1398C100.341 28.5375 100.404 28.0043 100.958 27.7244C101.512 27.4444 101.396 28.2009 101.235 29.1093C101.048 30.4329 100.995 31.7721 101.077 33.1063C101.157 34.7683 100.204 34.7683 98.8611 35.7184C97.5179 36.6685 96.5231 37.8569 95.3824 37.973H95.2364C94.1582 37.973 93.2528 36.734 91.6981 35.7512V35.7631ZM86.3608 27.0155C84.1478 26.7832 84.8448 23.8822 85.9646 22.4824C87.1292 21.0259 85.8515 20.883 85.4315 19.3044C85.0592 17.8986 84.8597 16.9664 85.4941 14.3483C86.1285 11.7303 87.8768 7.62609 94.5186 7.62609C103.245 7.62609 104.773 14.7504 104.282 18.0505C104.234 16.5613 103.487 15.224 103.329 15.1972C103.114 15.1495 102.483 16.8443 102.435 18.8874C102.388 20.9306 102.057 21.5442 102.915 22.8249C103.454 23.635 104.088 23.6559 104.321 23.3967C105.032 24.195 105.02 24.0996 104.8 25.9016C104.648 27.1644 103.57 26.9649 102.349 26.7653C101.673 26.6093 100.973 26.584 100.288 26.6909C98.8254 27.0483 99.2126 27.4801 99.4538 28.9068C99.6951 30.3334 98.7748 31.9448 94.8582 31.8167C90.9416 31.6886 90.9862 30.1935 91.1083 28.2754C91.2156 26.5568 89.9349 26.7415 88.395 26.9232C87.9092 26.9896 87.4199 27.0274 86.9296 27.0364C86.7376 27.0369 86.5457 27.027 86.3548 27.0066L86.3608 27.0155ZM85.5298 2.83384C84.3689 3.57298 83.2932 4.43798 82.3221 5.41314C81.3183 6.49398 80.1013 7.35498 78.748 7.9418C77.9736 8.26347 77.1039 8.53748 76.264 8.40346C75.4241 8.26943 74.5425 7.87628 73.7115 8.01031C73.0738 8.12063 72.4956 8.45288 72.0792 8.94832C71.6628 9.44377 71.435 10.0705 71.436 10.7177C71.436 11.504 71.7874 12.1294 71.6028 12.9604C71.3854 13.9403 70.7658 14.5688 70.2327 15.3699C69.6659 16.1664 69.18 17.0175 68.7822 17.9105C67.1382 21.9909 67.2067 26.6075 68.672 30.7177C69.9379 34.2471 72.1746 37.3714 75.2841 39.3163C74.3578 40.3766 74.2506 42.3513 75.4122 43.2865C75.6397 43.5159 75.9105 43.6979 76.2088 43.8222C76.507 43.9464 76.8269 44.0104 77.1501 44.0104C77.4732 44.0104 77.7931 43.9464 78.0914 43.8222C78.3896 43.6979 78.6604 43.5159 78.888 43.2865C79.1998 43.0089 79.4386 42.6589 79.5835 42.2673C79.7284 41.8757 79.7749 41.4546 79.7189 41.0408C80.5683 41.1406 81.4278 41.1114 82.2684 40.9544C82.4716 42.0637 83.0474 43.0703 83.9006 43.8077C84.7602 44.5366 85.8393 44.956 86.9654 44.9991C86.8918 45.2681 86.8429 45.5433 86.8194 45.8211C86.7363 46.5405 86.8294 47.2693 87.0905 47.9448C87.2302 48.309 87.4477 48.6383 87.7279 48.9098C88.669 49.7794 90.5156 49.7794 91.4538 48.9098C92.4903 47.9477 92.5678 45.9314 92.2014 44.74C92.0743 44.328 91.8634 43.9467 91.5819 43.6201C91.3079 43.2955 91.0458 42.8576 90.6437 42.6164C87.013 40.1175 83.43 37.7586 82.5335 37.2553C80.5708 36.1771 80.0108 36.8323 78.5484 37.2553C77.086 37.6782 75.7696 36.5672 76.264 35.2925C76.5767 34.5032 78.1553 34.7117 78.6467 34.2798C78.9445 34.0207 78.9445 33.4459 78.8254 33.011C78.4769 31.8554 78.5574 31.1168 80.0972 30.7862C81.3928 30.5151 81.8842 32.0311 81.9736 33.1868C82.0093 33.702 82.6348 34.6551 83.0428 35.0006C84.1031 35.909 89.2975 39.498 93.6787 42.2798C98.6765 39.3759 106.17 34.7355 106.486 33.8122C106.924 32.5255 106.784 31.358 108.499 30.6372C110.215 29.9165 111.933 31.495 111.397 32.9008C110.861 34.3066 112.791 34.0684 112.791 35.3431C112.791 36.6179 110.659 36.3528 109.482 35.9686C108.633 35.6946 100.618 40.2873 95.4836 43.3967C96.8194 44.2313 98.2038 44.9852 99.6296 45.6544C99.7524 45.7011 99.8824 45.7263 100.014 45.7288C101.363 45.5739 102.361 44.9574 103.749 46.1905C105.137 47.4235 104.437 49.6603 102.936 49.7646C102.057 49.836 101.959 50.4109 101.795 50.9946C101.848 51.4593 101.914 51.9716 101.941 52.4064C102.006 53.6692 101.756 54.9708 102.111 56.186C101.944 56.3409 101.929 56.5732 101.813 56.7817C101.405 57.5263 101.405 58.6938 102.131 59.2716C102.557 59.6112 102.995 59.909 103.579 59.8673C104.675 59.7958 105.664 58.9738 105.634 57.8152C105.629 57.4977 105.559 57.1846 105.431 56.8945C105.302 56.6043 105.116 56.3431 104.883 56.1264C104.716 55.9667 104.52 55.8395 104.306 55.7511C104.58 54.667 104.604 53.4846 104.687 52.4064C104.711 52.1383 104.729 51.8524 104.746 51.5605C105.756 51.4593 107.501 51.0334 108.321 50.2858C109.586 49.1756 110.37 47.6157 110.504 45.9373C110.542 45.2046 110.206 44.7966 110.072 44.1324C109.92 43.3669 110.59 42.8368 111.186 42.4853C112.083 41.9362 112.832 41.1766 113.369 40.2724C113.888 39.4462 114.232 38.5229 114.382 37.5591C114.432 37.1421 114.367 36.9634 114.679 36.6417C115.014 36.3382 115.446 36.1657 115.898 36.1562C116.595 36.1562 116.461 36.6923 116.997 37.008C117.143 37.0957 117.311 37.1419 117.482 37.1419C117.653 37.1419 117.821 37.0957 117.968 37.008C119.373 36.189 119.659 34.5509 119.778 33.0617C119.774 33.0181 119.774 32.9742 119.778 32.9306C119.844 32.2475 119.712 31.5599 119.397 30.95C119.034 30.1756 119.287 29.4012 119.662 28.6715C120.13 27.7452 119.993 26.3722 119.823 25.3774C120.026 21.2076 118.947 16.7609 117.333 13.7854C116.812 12.8476 116.166 11.9849 115.412 11.221C114.002 9.73244 112.295 8.55556 110.402 7.76608C109.983 7.6142 109.535 7.55921 109.092 7.60524C108.817 7.62281 108.541 7.61683 108.267 7.58737C107.418 7.46526 106.673 6.61046 106.465 5.80033C106.346 5.35655 106.525 4.98723 106.465 4.55238C106.339 3.96731 106.074 3.42096 105.694 2.95893C104.822 1.85894 103.554 1.14461 102.161 0.969358C101.431 0.862136 100.785 1.08254 100.139 1.29996C99.3347 1.57397 98.5424 1.84501 97.6072 1.49356C96.0961 0.939672 94.4989 0.657341 92.8894 0.659604C90.2693 0.646047 87.7022 1.39755 85.503 2.82193" fill="black"/>
    <path d="M29.1844 52.0938C30.6468 51.7305 33.4256 51.8139 37.3542 53.0946C38.5038 53.4758 39.859 52.6031 40.1122 51.4535C40.7078 48.7312 39.8143 46.5987 37.0355 46.1936C36.7796 46.0668 36.5033 45.9861 36.2194 45.9553C31.025 45.4073 25.8784 46.5719 20.8895 47.8764C19.1263 48.341 17.4405 48.7908 15.6148 48.8861C13.8277 48.9784 12.2254 49.1333 10.5694 49.8153C8.56192 50.6344 6.52767 51.385 4.5232 52.1981C2.82253 52.901 1.05932 53.86 0.109208 55.5011C-0.349467 56.3023 0.672126 59.7156 2.51576 61.3954C3.22164 62.0417 5.36907 62.6046 6.98336 61.0141C9.02655 58.5897 12.2105 55.7305 15.0251 54.2919C16.2164 53.5979 16.8776 53.3984 20.0318 52.8533C22.4145 52.4453 22.9089 54.1549 22.9923 54.9769C23.0489 55.5577 21.4227 63.6441 21.5031 71.102C21.5478 74.8369 21.5031 78.5689 21.9111 82.2859C21.9975 83.099 22.2268 84.2666 23.0399 84.7014C23.7475 85.0162 24.5004 85.2172 25.2708 85.2971C26.1643 85.4252 27.0131 85.166 27.448 84.3261C28.1836 82.9114 27.2663 80.618 27.037 79.0841C26.7212 76.9843 26.474 74.8697 26.3281 72.755C26.2358 71.4356 26.1822 70.1221 26.2 68.8057C26.2685 63.7156 26.2924 57.8392 26.2924 57.8392C26.3668 54.2144 27.0489 52.621 29.1665 52.0908" fill="black"/>
    <path d="M46.9774 60.8951C44.0645 58.84 40.1509 58.9621 37.0176 60.4334C34.3966 61.6605 30.4115 63.4952 30.8255 66.9859C30.9953 68.4119 31.3977 69.8003 32.0168 71.0961C32.5934 72.2929 33.2367 73.4563 33.9439 74.5808C34.4304 75.41 35.0067 76.183 35.6624 76.8861C38.2834 79.5965 42.5961 79.1825 45.6996 77.4818C48.678 75.8397 50.5366 74.419 51.2752 73.2197C52.2164 70.2264 51.5343 66.4021 49.4226 64.0551C48.5112 63.0365 48.0943 61.6933 46.9774 60.901V60.8951ZM46.9327 70.3277C46.1702 71.3046 44.9491 72.1296 43.2573 72.8236C41.0354 73.6794 39.1938 73.9772 37.7324 73.7171C36.3028 73.3061 35.5105 72.3738 35.3497 70.9293C35.3497 69.4461 35.9334 68.1058 37.101 66.9085C38.9148 65.044 43.2812 63.6322 45.7383 64.8236C46.2368 65.0395 46.6763 65.3718 47.0199 65.7926C47.3635 66.2134 47.6011 66.7104 47.713 67.242C47.8441 68.3391 47.5639 69.4459 46.9267 70.3485" fill="black"/>
    <path d="M66.6705 62.3693C66.6795 61.8674 66.5474 61.3731 66.2893 60.9426C66.0524 60.6057 65.7916 60.2862 65.5089 59.9866C65.1999 59.4971 64.7946 59.0755 64.3176 58.7476C63.6843 58.3872 62.96 58.2186 62.2327 58.2621C61.7561 58.2876 61.2902 58.4134 60.8656 58.6314C60.252 58.9769 59.7606 59.8406 59.2721 60.3499C58.334 60.9724 57.5864 61.166 57.0264 60.9218L55.1798 60.0581C54.748 60.0223 54.3637 60.3887 54.0153 61.166C53.7174 61.8243 53.8693 62.9858 53.8842 63.6917C53.9099 64.6519 54.0015 65.6092 54.1582 66.5569C54.3727 67.7483 54.605 68.9039 54.7986 70.0804C55.0666 71.6828 54.7688 73.2762 54.7211 74.8786C54.6884 76.2099 54.9088 77.1392 56.0823 77.8808C56.2217 77.9799 56.3819 78.0458 56.5507 78.0737C56.7194 78.1016 56.8923 78.0906 57.0562 78.0417C57.634 77.8481 58.057 77.1481 58.2476 76.5316L58.1761 72.1206C58.216 71.6652 58.2887 71.2133 58.3935 70.7684C58.5037 70.0953 58.602 69.4102 58.7331 68.7401C58.9326 67.7245 59.153 66.7148 59.3615 65.7051C59.6325 64.3499 60.389 62.9799 61.9527 62.9888C63.2488 63.0169 64.5419 63.1254 65.8246 63.3135C66.1969 63.0811 66.6169 62.8399 66.6824 62.3693" fill="black"/>
    <path d="M80.7494 62.9472C79.3377 62.0536 77.1753 61.6247 76.401 59.9836C75.7457 58.5808 75.8976 57.0708 76.2103 55.6203C76.5391 54.2918 76.7445 52.9359 76.8239 51.5697C76.8239 51.2063 76.9252 50.4438 76.7107 50.1222C76.3146 49.5265 75.8172 49.2971 75.2215 49.4788C74.6953 49.6725 74.2326 50.0074 73.8842 50.4468C73.5149 50.8965 73.5536 51.4148 73.5208 51.9628C73.3779 54.3991 73.1992 56.8355 73.0532 59.2688C72.9132 61.6039 69.9289 63.4803 69.3183 63.9092C68.6194 64.3726 67.8797 64.7714 67.1083 65.1005C66.5127 65.3686 65.8753 65.5443 65.2528 65.7677C65.0477 65.8462 64.8715 65.9856 64.748 66.1671C64.6244 66.3487 64.5595 66.5637 64.5618 66.7833C64.5773 66.9726 64.6378 67.1554 64.7384 67.3166C64.8389 67.4777 64.9764 67.6125 65.1396 67.7096C66.1433 68.3053 67.3049 67.5399 68.3205 67.4505C69.2211 67.3211 70.1397 67.4697 70.9535 67.8764C72.0852 68.4721 72.4099 69.7856 72.5082 70.968C72.7107 73.3984 72.7733 75.9777 73.354 78.3604C73.4821 78.8816 73.8604 79.662 74.462 79.7811C75.3079 79.9479 75.841 79.3046 76.0972 78.5897C76.4218 77.6962 76.1686 76.8831 76.0584 75.9717C75.8887 74.4825 75.4955 73.0201 75.3794 71.5369C75.3053 70.6235 75.446 69.7055 75.7904 68.8563C76.7881 66.6195 79.2781 66.1072 80.8537 64.4483C81.6479 63.9757 81.6142 63.4674 80.7524 62.9233" fill="black"/>
    <path d="M99.5343 70.2262C99.6594 69.4131 99.7815 68.603 99.8708 67.778C99.9934 66.7103 100.022 65.634 99.9572 64.5613C99.9572 64.1248 99.841 63.6961 99.6206 63.3193C99.3675 62.9321 98.6795 62.5121 98.185 62.6938C97.4911 62.947 97.2677 63.8018 97.1069 64.4421C96.8847 65.424 96.7235 66.4187 96.6244 67.4206C96.4189 69.1033 95.5581 70.5687 94.5603 71.8882C93.226 73.6424 90.8194 75.0065 88.5618 74.8815C87.1411 74.7981 86.3727 73.9879 86.2387 72.4392C86.1841 71.0133 86.4014 69.5901 86.879 68.2456L88.9014 64.6715C89.5179 63.5903 89.7115 62.0386 89.0682 60.9515C88.4725 59.9507 87.2632 59.3282 86.4442 60.5464C86.1463 60.9932 86.0063 61.7139 85.8098 62.2262C85.5119 63.0185 85.229 63.8465 84.9163 64.6089L83.5581 67.8852C83.2282 68.841 83.0278 69.8367 82.9624 70.8457C82.9138 71.9672 83.0682 73.0882 83.4181 74.1547C83.6933 74.9263 84.0862 75.6506 84.5827 76.3021C85.4608 77.4127 86.675 78.2089 88.0436 78.5717C89.3034 78.9202 91.022 78.801 92.1151 77.976C93.1307 77.1986 94.3369 75.7482 95.7368 75.8435C96.955 75.9328 97.2051 77.1957 97.7591 78.0266C97.9885 78.3692 98.2655 78.6879 98.4739 79.0512C98.5098 79.1104 98.5496 79.1671 98.5931 79.221C99.1113 79.8911 99.8589 79.5814 100.216 78.8517C100.641 77.8658 100.698 76.7606 100.377 75.7363C99.6206 73.3833 99.3407 71.5496 99.5372 70.2351" fill="black"/>
    <path d="M119.624 62.1785C118.754 61.7497 117.941 61.2165 117.113 60.7191C116.374 60.2843 115.573 59.7601 114.712 59.635C113.979 59.5431 113.235 59.5783 112.514 59.7392C110.483 60.1443 108.869 61.7169 107.796 63.4205C107.516 63.8703 107.087 64.2694 106.775 64.7013C106.405 65.2076 106.072 65.7318 105.747 66.2649C104.883 67.6797 103.945 69.0974 103.522 70.7176C103.167 72.2612 103.238 73.8725 103.728 75.3788C104.133 76.7102 104.69 77.5709 105.378 77.9462C106.352 78.798 107.275 79.3044 108.166 79.4503C108.615 79.5218 109.265 79.2716 109.697 79.1525C110.237 78.9904 110.769 78.8005 111.29 78.5836C112.44 78.113 113.521 77.4965 114.65 76.9901C115.195 76.7429 115.904 76.4332 116.514 76.594C117.452 76.8531 117.658 78.4168 117.738 79.212C117.819 80.0073 117.842 80.7906 117.837 81.5769C117.84 82.8934 117.723 84.2075 117.485 85.5024C117.286 86.5061 116.86 87.498 115.951 88.0579C115.043 88.6178 113.911 88.9067 112.851 89.142C110.964 89.5556 109.016 89.6132 107.108 89.3118C105.977 89.0893 104.939 88.5309 104.13 87.7094C103.814 87.4116 102.224 85.1569 101.634 85.6752C101.467 85.8181 101.402 86.4942 101.354 86.6968C100.892 88.737 101.482 90.5687 102.56 92.2962C103.04 93.1051 103.677 93.8099 104.433 94.3695C105.189 94.929 106.049 95.3319 106.962 95.5545C107.563 95.6836 108.179 95.7267 108.791 95.6826C110.724 95.5575 112.595 94.7087 114.42 94.1219C115.338 93.8241 116.288 93.5531 117.071 92.9901C117.965 92.3587 118.858 91.2537 119.016 90.1487C119.111 89.4845 119.275 88.7995 119.406 88.1353C119.775 86.2619 120.032 84.3885 120.267 82.4764C120.508 80.4659 120.422 78.4108 120.422 76.3855C120.422 74.6125 120.654 72.8472 121.113 71.1346C121.804 68.4699 122.102 66.5131 122.006 65.2642C121.842 63.8137 120.904 62.7951 119.624 62.1726V62.1785ZM117.345 68.6476C115.993 71.1912 113.648 72.8184 110.31 73.5292C109.178 73.7228 108.404 73.5828 107.993 73.1063C107.647 72.5305 107.681 71.7075 108.094 70.6372C109.484 67.4364 111.482 65.4389 114.087 64.6447C115.455 64.3329 116.507 64.6308 117.244 65.5382C117.82 66.4118 117.853 67.4503 117.345 68.6536" fill="black"/>
    <path d="M153.938 78.2352V78.1369C153.932 78.1202 153.924 78.1042 153.914 78.0893C153.783 77.6546 153.549 77.258 153.232 76.9329C152.916 76.6078 152.525 76.3639 152.094 76.2218L151.933 76.1205L151.856 76.1474C151.7 76.1034 151.54 76.0745 151.379 76.061C149.774 75.9359 148.734 76.9188 147.302 77.3774C146.544 77.6236 145.733 77.6555 144.958 77.4698C143.498 77.1153 142.355 76.1682 142.241 74.6224C142.17 73.714 142.042 72.7341 142.241 71.8316C142.39 71.1198 142.608 70.4794 142.816 69.7795C142.974 69.2464 143.135 68.7162 143.26 68.1771C143.497 67.3311 143.57 66.4475 143.475 65.574C143.209 63.6261 142.122 60.9098 140.213 60.0521C138.724 59.3819 136.809 60.1742 135.409 60.7996C133.839 61.5025 132.407 62.4705 130.941 63.3521C129.056 64.472 127.728 65.9672 126.411 67.6976C124.845 69.7557 123.618 72.3201 124.288 74.9858C125.244 78.7981 129.577 79.233 132.627 77.8302C133.552 77.3755 134.447 76.8632 135.308 76.2963C136.32 75.6529 137.446 74.2293 138.638 74.0089C138.367 74.8607 139.424 76.7639 139.829 77.4906C140.356 78.3841 141.02 79.3611 141.929 79.9359C144.466 81.5681 148.675 83.1823 151.564 81.5561C152.34 81.079 153.021 80.4619 153.571 79.7363C153.61 79.6986 153.646 79.6577 153.679 79.6142C153.945 79.2073 154.051 78.7159 153.976 78.2352H153.938ZM139.498 67.1824C138.903 68.5345 137.142 69.6604 136.201 70.399C135.207 71.1734 134.236 72.0491 133.151 72.7013C132.258 73.2434 129.387 74.9649 128.437 73.6902C127.603 72.5703 129.089 70.6552 129.771 69.8182C130.737 68.6938 131.874 67.7279 133.139 66.956C134.331 66.1995 138.798 62.8756 139.62 65.7646C139.748 66.2378 139.705 66.7408 139.498 67.1853" fill="black"/>
    <path d="M116.684 38.5422H116.657C115.859 38.8937 115.466 40.0523 115.719 40.8505C115.887 41.4019 116.253 41.8718 116.746 42.1699C117.051 42.3505 117.399 42.4458 117.753 42.4458C118.107 42.4458 118.455 42.3505 118.76 42.1699C119.323 41.8453 119.817 41.1275 119.749 40.4484C119.725 40.225 119.71 39.9897 119.665 39.7604C119.577 39.4162 119.398 39.1019 119.148 38.8504C118.897 38.5989 118.583 38.4194 118.239 38.3308L117.685 38.2593C117.333 38.2592 116.987 38.3527 116.684 38.5303" fill="black"/>
    <path d="M93.4762 29.7141C93.3719 30.4229 93.4762 31.0812 94.0719 31.0603C94.6676 31.0395 94.7003 30.3485 94.7003 29.9464C94.7003 29.5443 94.882 28.8176 95.0696 29.4222C95.1769 29.7826 94.882 30.7982 95.707 30.9531C96.532 31.108 96.3891 30.8489 96.3027 29.8719C96.2163 28.895 95.7577 26.9859 95.0875 26.9174H95.019C94.0629 26.9174 93.5566 29.0231 93.4524 29.72" fill="black"/>
    <path d="M85.6995 16.7787C85.5566 18.1816 86.1731 19.5546 86.4501 20.2962C87.1023 22.0654 86.0867 23.0602 86.322 23.2568C86.5573 23.4533 87.6295 22.5568 88.0882 20.9902C88.8507 18.4258 87.1768 20.2873 86.7181 16.6953C86.2565 12.9842 88.386 10.8994 87.8708 10.7385H87.8559C87.4836 10.7385 85.9944 13.9373 85.6995 16.7698" fill="black"/>
    <path d="M88.3444 22.4854C88.3444 24.5435 89.2379 25.2166 91.2096 25.166C93.1814 25.1153 93.777 24.6209 93.8604 24.0401C93.9289 23.5606 93.923 22.8488 93.5626 22.6016C93.3325 22.507 93.0795 22.4831 92.8359 22.533C92.2648 22.6192 91.6816 22.5045 91.1858 22.2084C89.9438 21.4042 89.232 20.9604 88.8329 20.9604C88.4338 20.9604 88.3355 21.434 88.3355 22.4765" fill="black"/>
    <path d="M99.5699 20.8235C98.6079 21.4936 97.1574 22.4467 96.7732 22.7118C96.389 22.9768 96.4158 23.6619 96.4753 24.1414C96.5558 24.7103 97.1723 25.3328 99.1261 25.1749C101.163 25.017 101.786 24.0223 101.786 21.9821C101.786 20.7013 101.854 19.915 101.324 19.915C101.005 19.915 100.463 20.195 99.561 20.8235" fill="black"/>
    <path d="M93.089 33.1808C91.4955 32.74 91.7159 32.0669 91.9155 31.9269C92.2848 31.6916 92.8448 32.5524 95.2632 32.5851C96.1954 32.6473 97.1257 32.4405 97.9438 31.9894C98.4203 31.7988 98.4799 32.0758 98.471 32.3647C98.462 32.6536 98.2982 32.9217 97.0413 33.2314C96.4219 33.3872 95.7858 33.4672 95.1471 33.4697C94.4478 33.4637 93.7526 33.3636 93.0801 33.1719L93.089 33.1808ZM91.6981 35.7631C90.0748 34.7325 88.9758 33.5859 89.1277 31.7244C89.2796 29.8629 87.981 28.323 88.2938 27.8078C88.6065 27.2925 89.1873 27.3133 89.917 31.5069C90.3518 33.9999 92.1329 36.0133 96.0346 35.6767C99.4568 35.3789 100.157 31.7422 100.249 30.1398C100.341 28.5375 100.404 28.0043 100.958 27.7244C101.512 27.4444 101.396 28.2009 101.235 29.1093C101.048 30.4329 100.995 31.7721 101.077 33.1063C101.157 34.7683 100.204 34.7683 98.8611 35.7184C97.5179 36.6685 96.5231 37.8569 95.3824 37.973H95.2364C94.1582 37.973 93.2528 36.734 91.6981 35.7512V35.7631ZM86.3608 27.0155C84.1478 26.7832 84.8448 23.8822 85.9646 22.4824C87.1292 21.0259 85.8515 20.883 85.4315 19.3044C85.0592 17.8986 84.8597 16.9664 85.4941 14.3483C86.1285 11.7303 87.8768 7.62609 94.5186 7.62609C103.245 7.62609 104.773 14.7504 104.282 18.0505C104.234 16.5613 103.487 15.224 103.329 15.1972C103.114 15.1495 102.483 16.8443 102.435 18.8874C102.388 20.9306 102.057 21.5442 102.915 22.8249C103.454 23.635 104.088 23.6559 104.321 23.3967C105.032 24.195 105.02 24.0996 104.8 25.9016C104.648 27.1644 103.57 26.9649 102.349 26.7653C101.673 26.6093 100.973 26.584 100.288 26.6909C98.8254 27.0483 99.2126 27.4801 99.4538 28.9068C99.6951 30.3334 98.7748 31.9448 94.8582 31.8167C90.9416 31.6886 90.9862 30.1935 91.1083 28.2754C91.2156 26.5568 89.9349 26.7415 88.395 26.9232C87.9092 26.9896 87.4199 27.0274 86.9296 27.0364C86.7376 27.0369 86.5457 27.027 86.3548 27.0066L86.3608 27.0155ZM85.5298 2.83384C84.3689 3.57298 83.2932 4.43798 82.3221 5.41314C81.3183 6.49398 80.1013 7.35498 78.748 7.9418C77.9736 8.26347 77.1039 8.53748 76.264 8.40346C75.4241 8.26943 74.5425 7.87628 73.7115 8.01031C73.0738 8.12063 72.4956 8.45288 72.0792 8.94832C71.6628 9.44377 71.435 10.0705 71.436 10.7177C71.436 11.504 71.7874 12.1294 71.6028 12.9604C71.3854 13.9403 70.7658 14.5688 70.2327 15.3699C69.6659 16.1664 69.18 17.0175 68.7822 17.9105C67.1382 21.9909 67.2067 26.6075 68.672 30.7177C69.9379 34.2471 72.1746 37.3714 75.2841 39.3163C74.3578 40.3766 74.2506 42.3513 75.4122 43.2865C75.6397 43.5159 75.9105 43.6979 76.2088 43.8222C76.507 43.9464 76.8269 44.0104 77.1501 44.0104C77.4732 44.0104 77.7931 43.9464 78.0914 43.8222C78.3896 43.6979 78.6604 43.5159 78.888 43.2865C79.1998 43.0089 79.4386 42.6589 79.5835 42.2673C79.7284 41.8757 79.7749 41.4546 79.7189 41.0408C80.5683 41.1406 81.4278 41.1114 82.2684 40.9544C82.4716 42.0637 83.0474 43.0703 83.9006 43.8077C84.7602 44.5366 85.8393 44.956 86.9654 44.9991C86.8918 45.2681 86.8429 45.5433 86.8194 45.8211C86.7363 46.5405 86.8294 47.2693 87.0905 47.9448C87.2302 48.309 87.4477 48.6383 87.7279 48.9098C88.669 49.7794 90.5156 49.7794 91.4538 48.9098C92.4903 47.9477 92.5678 45.9314 92.2014 44.74C92.0743 44.328 91.8634 43.9467 91.5819 43.6201C91.3079 43.2955 91.0458 42.8576 90.6437 42.6164C87.013 40.1175 83.43 37.7586 82.5335 37.2553C80.5708 36.1771 80.0108 36.8323 78.5484 37.2553C77.086 37.6782 75.7696 36.5672 76.264 35.2925C76.5767 34.5032 78.1553 34.7117 78.6467 34.2798C78.9445 34.0207 78.9445 33.4459 78.8254 33.011C78.4769 31.8554 78.5574 31.1168 80.0972 30.7862C81.3928 30.5151 81.8842 32.0311 81.9736 33.1868C82.0093 33.702 82.6348 34.6551 83.0428 35.0006C84.1031 35.909 89.2975 39.498 93.6787 42.2798C98.6765 39.3759 106.17 34.7355 106.486 33.8122C106.924 32.5255 106.784 31.358 108.499 30.6372C110.215 29.9165 111.933 31.495 111.397 32.9008C110.861 34.3066 112.791 34.0684 112.791 35.3431C112.791 36.6179 110.659 36.3528 109.482 35.9686C108.633 35.6946 100.618 40.2873 95.4836 43.3967C96.8194 44.2313 98.2038 44.9852 99.6296 45.6544C99.7524 45.7011 99.8824 45.7263 100.014 45.7288C101.363 45.5739 102.361 44.9574 103.749 46.1905C105.137 47.4235 104.437 49.6603 102.936 49.7646C102.057 49.836 101.959 50.4109 101.795 50.9946C101.848 51.4593 101.914 51.9716 101.941 52.4064C102.006 53.6692 101.756 54.9708 102.111 56.186C101.944 56.3409 101.929 56.5732 101.813 56.7817C101.405 57.5263 101.405 58.6938 102.131 59.2716C102.557 59.6112 102.995 59.909 103.579 59.8673C104.675 59.7958 105.664 58.9738 105.634 57.8152C105.629 57.4977 105.559 57.1846 105.431 56.8945C105.302 56.6043 105.116 56.3431 104.883 56.1264C104.716 55.9667 104.52 55.8395 104.306 55.7511C104.58 54.667 104.604 53.4846 104.687 52.4064C104.711 52.1383 104.729 51.8524 104.746 51.5605C105.756 51.4593 107.501 51.0334 108.321 50.2858C109.586 49.1756 110.37 47.6157 110.504 45.9373C110.542 45.2046 110.206 44.7966 110.072 44.1324C109.92 43.3669 110.59 42.8368 111.186 42.4853C112.083 41.9362 112.832 41.1766 113.369 40.2724C113.888 39.4462 114.232 38.5229 114.382 37.5591C114.432 37.1421 114.367 36.9634 114.679 36.6417C115.014 36.3382 115.446 36.1657 115.898 36.1562C116.595 36.1562 116.461 36.6923 116.997 37.008C117.143 37.0957 117.311 37.1419 117.482 37.1419C117.653 37.1419 117.821 37.0957 117.968 37.008C119.373 36.189 119.659 34.5509 119.778 33.0617C119.774 33.0181 119.774 32.9742 119.778 32.9306C119.844 32.2475 119.712 31.5599 119.397 30.95C119.034 30.1756 119.287 29.4012 119.662 28.6715C120.13 27.7452 119.993 26.3722 119.823 25.3774C120.026 21.2076 118.947 16.7609 117.333 13.7854C116.812 12.8476 116.166 11.9849 115.412 11.221C114.002 9.73244 112.295 8.55556 110.402 7.76608C109.983 7.6142 109.535 7.55921 109.092 7.60524C108.817 7.62281 108.541 7.61683 108.267 7.58737C107.418 7.46526 106.673 6.61046 106.465 5.80033C106.346 5.35655 106.525 4.98723 106.465 4.55238C106.339 3.96731 106.074 3.42096 105.694 2.95893C104.822 1.85894 103.554 1.14461 102.161 0.969358C101.431 0.862136 100.785 1.08254 100.139 1.29996C99.3347 1.57397 98.5424 1.84501 97.6072 1.49356C96.0961 0.939672 94.4989 0.657341 92.8894 0.659604C90.2693 0.646047 87.7022 1.39755 85.503 2.82193" fill="black"/>
    <path d="M116.684 38.5422H116.657C115.859 38.8937 115.466 40.0523 115.719 40.8505C115.887 41.4019 116.253 41.8718 116.746 42.1699C117.051 42.3505 117.399 42.4458 117.753 42.4458C118.107 42.4458 118.455 42.3505 118.76 42.1699C119.323 41.8453 119.817 41.1275 119.749 40.4484C119.725 40.225 119.71 39.9897 119.665 39.7604C119.577 39.4162 119.398 39.1019 119.148 38.8504C118.897 38.5989 118.583 38.4194 118.239 38.3308L117.685 38.2593C117.333 38.2592 116.987 38.3527 116.684 38.5303" fill="black"/>
    <path d="M93.4762 29.7141C93.3719 30.4229 93.4762 31.0812 94.0719 31.0603C94.6676 31.0395 94.7003 30.3485 94.7003 29.9464C94.7003 29.5443 94.882 28.8176 95.0696 29.4222C95.1769 29.7826 94.882 30.7982 95.707 30.9531C96.532 31.108 96.3891 30.8489 96.3027 29.8719C96.2163 28.895 95.7577 26.9859 95.0875 26.9174H95.019C94.0629 26.9174 93.5566 29.0231 93.4524 29.72" fill="black"/>
    <path d="M85.6995 16.7787C85.5566 18.1816 86.1731 19.5546 86.4501 20.2962C87.1023 22.0654 86.0867 23.0602 86.322 23.2568C86.5573 23.4533 87.6295 22.5568 88.0882 20.9902C88.8507 18.4258 87.1768 20.2873 86.7181 16.6953C86.2565 12.9842 88.386 10.8994 87.8708 10.7385H87.8559C87.4836 10.7385 85.9944 13.9373 85.6995 16.7698" fill="black"/>
    <path d="M88.3444 22.4854C88.3444 24.5435 89.2379 25.2166 91.2096 25.166C93.1814 25.1153 93.777 24.6209 93.8604 24.0401C93.9289 23.5606 93.923 22.8488 93.5626 22.6016C93.3325 22.507 93.0795 22.4831 92.8359 22.533C92.2648 22.6192 91.6816 22.5045 91.1858 22.2084C89.9438 21.4042 89.232 20.9604 88.8329 20.9604C88.4338 20.9604 88.3355 21.434 88.3355 22.4765" fill="black"/>
    <path d="M99.5699 20.8235C98.6079 21.4936 97.1574 22.4467 96.7732 22.7118C96.389 22.9768 96.4158 23.6619 96.4753 24.1414C96.5558 24.7103 97.1723 25.3328 99.1261 25.1749C101.163 25.017 101.786 24.0223 101.786 21.9821C101.786 20.7013 101.854 19.915 101.324 19.915C101.005 19.915 100.463 20.195 99.561 20.8235" fill="black"/>
    <path d="M93.089 33.1808C91.4955 32.74 91.7159 32.0669 91.9155 31.9269C92.2848 31.6916 92.8448 32.5524 95.2632 32.5851C96.1954 32.6473 97.1257 32.4405 97.9438 31.9894C98.4203 31.7988 98.4799 32.0758 98.471 32.3647C98.462 32.6536 98.2982 32.9217 97.0413 33.2314C96.4219 33.3872 95.7858 33.4672 95.1471 33.4697C94.4478 33.4637 93.7526 33.3636 93.0801 33.1719L93.089 33.1808ZM91.6981 35.7631C90.0748 34.7325 88.9758 33.5859 89.1277 31.7244C89.2796 29.8629 87.981 28.323 88.2938 27.8078C88.6065 27.2925 89.1873 27.3133 89.917 31.5069C90.3518 33.9999 92.1329 36.0133 96.0346 35.6767C99.4568 35.3789 100.157 31.7422 100.249 30.1398C100.341 28.5375 100.404 28.0043 100.958 27.7244C101.512 27.4444 101.396 28.2009 101.235 29.1093C101.048 30.4329 100.995 31.7721 101.077 33.1063C101.157 34.7683 100.204 34.7683 98.8611 35.7184C97.5179 36.6685 96.5231 37.8569 95.3824 37.973H95.2364C94.1582 37.973 93.2528 36.734 91.6981 35.7512V35.7631ZM86.3608 27.0155C84.1478 26.7832 84.8448 23.8822 85.9646 22.4824C87.1292 21.0259 85.8515 20.883 85.4315 19.3044C85.0592 17.8986 84.8597 16.9664 85.4941 14.3483C86.1285 11.7303 87.8768 7.62609 94.5186 7.62609C103.245 7.62609 104.773 14.7504 104.282 18.0505C104.234 16.5613 103.487 15.224 103.329 15.1972C103.114 15.1495 102.483 16.8443 102.435 18.8874C102.388 20.9306 102.057 21.5442 102.915 22.8249C103.454 23.635 104.088 23.6559 104.321 23.3967C105.032 24.195 105.02 24.0996 104.8 25.9016C104.648 27.1644 103.57 26.9649 102.349 26.7653C101.673 26.6093 100.973 26.584 100.288 26.6909C98.8254 27.0483 99.2126 27.4801 99.4538 28.9068C99.6951 30.3334 98.7748 31.9448 94.8582 31.8167C90.9416 31.6886 90.9862 30.1935 91.1083 28.2754C91.2156 26.5568 89.9349 26.7415 88.395 26.9232C87.9092 26.9896 87.4199 27.0274 86.9296 27.0364C86.7376 27.0369 86.5457 27.027 86.3548 27.0066L86.3608 27.0155ZM85.5298 2.83384C84.3689 3.57298 83.2932 4.43798 82.3221 5.41314C81.3183 6.49398 80.1013 7.35498 78.748 7.9418C77.9736 8.26347 77.1039 8.53748 76.264 8.40346C75.4241 8.26943 74.5425 7.87628 73.7115 8.01031C73.0738 8.12063 72.4956 8.45288 72.0792 8.94832C71.6628 9.44377 71.435 10.0705 71.436 10.7177C71.436 11.504 71.7874 12.1294 71.6028 12.9604C71.3854 13.9403 70.7658 14.5688 70.2327 15.3699C69.6659 16.1664 69.18 17.0175 68.7822 17.9105C67.1382 21.9909 67.2067 26.6075 68.672 30.7177C69.9379 34.2471 72.1746 37.3714 75.2841 39.3163C74.3578 40.3766 74.2506 42.3513 75.4122 43.2865C75.6397 43.5159 75.9105 43.6979 76.2088 43.8222C76.507 43.9464 76.8269 44.0104 77.1501 44.0104C77.4732 44.0104 77.7931 43.9464 78.0914 43.8222C78.3896 43.6979 78.6604 43.5159 78.888 43.2865C79.1998 43.0089 79.4386 42.6589 79.5835 42.2673C79.7284 41.8757 79.7749 41.4546 79.7189 41.0408C80.5683 41.1406 81.4278 41.1114 82.2684 40.9544C82.4716 42.0637 83.0474 43.0703 83.9006 43.8077C84.7602 44.5366 85.8393 44.956 86.9654 44.9991C86.8918 45.2681 86.8429 45.5433 86.8194 45.8211C86.7363 46.5405 86.8294 47.2693 87.0905 47.9448C87.2302 48.309 87.4477 48.6383 87.7279 48.9098C88.669 49.7794 90.5156 49.7794 91.4538 48.9098C92.4903 47.9477 92.5678 45.9314 92.2014 44.74C92.0743 44.328 91.8634 43.9467 91.5819 43.6201C91.3079 43.2955 91.0458 42.8576 90.6437 42.6164C87.013 40.1175 83.43 37.7586 82.5335 37.2553C80.5708 36.1771 80.0108 36.8323 78.5484 37.2553C77.086 37.6782 75.7696 36.5672 76.264 35.2925C76.5767 34.5032 78.1553 34.7117 78.6467 34.2798C78.9445 34.0207 78.9445 33.4459 78.8254 33.011C78.4769 31.8554 78.5574 31.1168 80.0972 30.7862C81.3928 30.5151 81.8842 32.0311 81.9736 33.1868C82.0093 33.702 82.6348 34.6551 83.0428 35.0006C84.1031 35.909 89.2975 39.498 93.6787 42.2798C98.6765 39.3759 106.17 34.7355 106.486 33.8122C106.924 32.5255 106.784 31.358 108.499 30.6372C110.215 29.9165 111.933 31.495 111.397 32.9008C110.861 34.3066 112.791 34.0684 112.791 35.3431C112.791 36.6179 110.659 36.3528 109.482 35.9686C108.633 35.6946 100.618 40.2873 95.4836 43.3967C96.8194 44.2313 98.2038 44.9852 99.6296 45.6544C99.7524 45.7011 99.8824 45.7263 100.014 45.7288C101.363 45.5739 102.361 44.9574 103.749 46.1905C105.137 47.4235 104.437 49.6603 102.936 49.7646C102.057 49.836 101.959 50.4109 101.795 50.9946C101.848 51.4593 101.914 51.9716 101.941 52.4064C102.006 53.6692 101.756 54.9708 102.111 56.186C101.944 56.3409 101.929 56.5732 101.813 56.7817C101.405 57.5263 101.405 58.6938 102.131 59.2716C102.557 59.6112 102.995 59.909 103.579 59.8673C104.675 59.7958 105.664 58.9738 105.634 57.8152C105.629 57.4977 105.559 57.1846 105.431 56.8945C105.302 56.6043 105.116 56.3431 104.883 56.1264C104.716 55.9667 104.52 55.8395 104.306 55.7511C104.58 54.667 104.604 53.4846 104.687 52.4064C104.711 52.1383 104.729 51.8524 104.746 51.5605C105.756 51.4593 107.501 51.0334 108.321 50.2858C109.586 49.1756 110.37 47.6157 110.504 45.9373C110.542 45.2046 110.206 44.7966 110.072 44.1324C109.92 43.3669 110.59 42.8368 111.186 42.4853C112.083 41.9362 112.832 41.1766 113.369 40.2724C113.888 39.4462 114.232 38.5229 114.382 37.5591C114.432 37.1421 114.367 36.9634 114.679 36.6417C115.014 36.3382 115.446 36.1657 115.898 36.1562C116.595 36.1562 116.461 36.6923 116.997 37.008C117.143 37.0957 117.311 37.1419 117.482 37.1419C117.653 37.1419 117.821 37.0957 117.968 37.008C119.373 36.189 119.659 34.5509 119.778 33.0617C119.774 33.0181 119.774 32.9742 119.778 32.9306C119.844 32.2475 119.712 31.5599 119.397 30.95C119.034 30.1756 119.287 29.4012 119.662 28.6715C120.13 27.7452 119.993 26.3722 119.823 25.3774C120.026 21.2076 118.947 16.7609 117.333 13.7854C116.812 12.8476 116.166 11.9849 115.412 11.221C114.002 9.73244 112.295 8.55556 110.402 7.76608C109.983 7.6142 109.535 7.55921 109.092 7.60524C108.817 7.62281 108.541 7.61683 108.267 7.58737C107.418 7.46526 106.673 6.61046 106.465 5.80033C106.346 5.35655 106.525 4.98723 106.465 4.55238C106.339 3.96731 106.074 3.42096 105.694 2.95893C104.822 1.85894 103.554 1.14461 102.161 0.969358C101.431 0.862136 100.785 1.08254 100.139 1.29996C99.3347 1.57397 98.5424 1.84501 97.6072 1.49356C96.0961 0.939672 94.4989 0.657341 92.8894 0.659604C90.2693 0.646047 87.7022 1.39755 85.503 2.82193" fill="black"/>
</svg>
