<svg width="133" height="82" viewBox="0 0 133 82" fill="none" xmlns="http://www.w3.org/2000/svg">
    <path d="M100.167 32.5202H100.144C99.4591 32.8219 99.1216 33.8165 99.3389 34.5018C99.4833 34.9752 99.7974 35.3785 100.221 35.6344C100.483 35.7895 100.781 35.8713 101.085 35.8713C101.389 35.8713 101.688 35.7895 101.949 35.6344C102.433 35.3557 102.857 34.7395 102.798 34.1566C102.778 33.9648 102.765 33.7628 102.727 33.566C102.651 33.2705 102.498 33.0007 102.282 32.7848C102.067 32.5689 101.797 32.4148 101.502 32.3387L101.026 32.2773C100.724 32.2772 100.428 32.3576 100.167 32.51" fill="white"/>
    <path d="M80.2434 24.9419C80.1539 25.5504 80.2434 26.1154 80.7547 26.0975C81.2661 26.0796 81.2942 25.4865 81.2942 25.1413C81.2942 24.7961 81.4502 24.1723 81.6113 24.6913C81.7033 25.0007 81.4502 25.8725 82.1584 26.0055C82.8667 26.1384 82.7439 25.916 82.6698 25.0774C82.5956 24.2387 82.2019 22.5998 81.6266 22.541H81.5678C80.7471 22.541 80.3124 24.3487 80.2229 24.947" fill="white"/>
    <path d="M73.569 13.8375C73.4463 15.0418 73.9755 16.2205 74.2133 16.8571C74.7732 18.3759 73.9014 19.2299 74.1034 19.3986C74.3053 19.5674 75.2258 18.7978 75.6195 17.4529C76.2741 15.2515 74.8372 16.8495 74.4434 13.766C74.0471 10.5802 75.8752 8.79041 75.4329 8.65234H75.4201C75.1005 8.65234 73.8221 11.3984 73.569 13.8299" fill="white"/>
    <path d="M75.8397 18.7361C75.8397 20.5028 76.6068 21.0807 78.2994 21.0372C79.992 20.9937 80.5033 20.5693 80.5749 20.0707C80.6337 19.6591 80.6286 19.048 80.3192 18.8358C80.1217 18.7546 79.9045 18.7341 79.6954 18.777C79.2052 18.851 78.7045 18.7525 78.2789 18.4983C77.2127 17.808 76.6016 17.427 76.259 17.427C75.9164 17.427 75.832 17.8335 75.832 18.7284" fill="white"/>
    <path d="M85.4754 17.3099C84.6495 17.8851 83.4044 18.7033 83.0746 18.9309C82.7447 19.1584 82.7677 19.7465 82.8189 20.1581C82.8879 20.6465 83.4172 21.1809 85.0944 21.0454C86.8433 20.9098 87.3777 20.0559 87.3777 18.3045C87.3777 17.205 87.4365 16.53 86.9814 16.53C86.7078 16.53 86.2424 16.7704 85.4677 17.3099" fill="white"/>
    <path d="M79.9125 27.9179C78.5446 27.5395 78.7338 26.9617 78.9051 26.8415C79.2222 26.6395 79.7028 27.3784 81.779 27.4066C82.5791 27.46 83.3778 27.2825 84.0801 26.8952C84.4892 26.7316 84.5403 26.9694 84.5326 27.2174C84.525 27.4654 84.3843 27.6955 83.3054 27.9614C82.7736 28.0951 82.2276 28.1638 81.6792 28.1659C81.079 28.1608 80.4821 28.0748 79.9048 27.9103L79.9125 27.9179ZM78.7185 30.1347C77.325 29.25 76.3815 28.2657 76.5119 26.6677C76.6423 25.0696 75.5276 23.7478 75.796 23.3055C76.0645 22.8631 76.5631 22.881 77.1895 26.481C77.5628 28.6211 79.0917 30.3495 82.4412 30.0605C85.3789 29.8049 85.9798 26.683 86.059 25.3074C86.1383 23.9319 86.192 23.4742 86.6676 23.2339C87.1431 22.9935 87.0434 23.643 86.9053 24.4228C86.7445 25.559 86.6991 26.7086 86.7698 27.854C86.8389 29.2807 86.0207 29.2807 84.8676 30.0963C83.7145 30.912 82.8605 31.9321 81.8812 32.0318H81.7559C80.8304 32.0318 80.0531 30.9682 78.7185 30.1245V30.1347ZM74.1367 22.6253C72.2369 22.4259 72.8352 19.9356 73.7966 18.7339C74.7963 17.4836 73.6994 17.3609 73.3389 16.0058C73.0193 14.799 72.848 13.9987 73.3926 11.7512C73.9372 9.50381 75.4381 5.98053 81.1398 5.98053C88.6312 5.98053 89.9428 12.0964 89.521 14.9294C89.4801 13.6509 88.8383 12.5029 88.7028 12.4799C88.5187 12.439 87.9767 13.8938 87.9357 15.6478C87.8948 17.4018 87.611 17.9285 88.3474 19.0279C88.8102 19.7234 89.3548 19.7413 89.5542 19.5188C90.1653 20.204 90.1551 20.1222 89.9658 21.6691C89.8355 22.7532 88.9099 22.5819 87.8616 22.4106C87.2813 22.2766 86.6807 22.2549 86.0923 22.3466C84.8369 22.6535 85.1693 23.0242 85.3764 24.2489C85.5835 25.4736 84.7934 26.8569 81.4312 26.7469C78.069 26.637 78.1074 25.3535 78.2122 23.7069C78.3043 22.2316 77.2048 22.3901 75.883 22.5461C75.4659 22.6031 75.0459 22.6355 74.625 22.6432C74.4602 22.6437 74.2954 22.6352 74.1315 22.6177L74.1367 22.6253ZM73.4233 1.86662C72.4268 2.50114 71.5033 3.2437 70.6696 4.08082C69.8079 5.00867 68.7632 5.74779 67.6015 6.25155C66.9367 6.52768 66.1901 6.76291 65.4691 6.64785C64.7481 6.5328 63.9913 6.1953 63.2779 6.31036C62.7305 6.40506 62.2341 6.69029 61.8766 7.1156C61.5192 7.54091 61.3236 8.07891 61.3245 8.63449C61.3245 9.30949 61.6262 9.84642 61.4677 10.5598C61.281 11.401 60.7492 11.9404 60.2915 12.6282C59.805 13.312 59.3878 14.0426 59.0464 14.8092C57.635 18.312 57.6938 22.2751 58.9518 25.8035C60.0384 28.8333 61.9586 31.5154 64.6279 33.185C63.8327 34.0952 63.7407 35.7903 64.7378 36.5932C64.9332 36.7901 65.1656 36.9464 65.4217 37.053C65.6777 37.1596 65.9524 37.2146 66.2297 37.2146C66.5071 37.2146 66.7817 37.1596 67.0378 37.053C67.2938 36.9464 67.5263 36.7901 67.7216 36.5932C67.9893 36.3548 68.1943 36.0544 68.3187 35.7182C68.4431 35.3821 68.483 35.0205 68.435 34.6653C69.1641 34.751 69.902 34.726 70.6236 34.5912C70.798 35.5434 71.2923 36.4076 72.0247 37.0406C72.7626 37.6663 73.689 38.0264 74.6557 38.0633C74.5925 38.2943 74.5506 38.5305 74.5304 38.769C74.4591 39.3866 74.5389 40.0122 74.7631 40.592C74.883 40.9047 75.0697 41.1874 75.3102 41.4204C76.1182 42.167 77.7034 42.167 78.5088 41.4204C79.3986 40.5946 79.465 38.8636 79.1506 37.8409C79.0415 37.4872 78.8604 37.1599 78.6187 36.8795C78.3835 36.6009 78.1585 36.225 77.8133 36.0179C74.6966 33.8727 71.6208 31.8477 70.8512 31.4156C69.1662 30.4901 68.6855 31.0526 67.4302 31.4156C66.1748 31.7787 65.0447 30.825 65.4691 29.7307C65.7375 29.0532 67.0927 29.2321 67.5145 28.8614C67.7702 28.639 67.7702 28.1455 67.6679 27.7722C67.3688 26.7801 67.4378 26.1461 68.7597 25.8623C69.8719 25.6296 70.2938 26.931 70.3705 27.923C70.4012 28.3654 70.9381 29.1836 71.2884 29.4801C72.1986 30.26 76.6577 33.3409 80.4187 35.729C84.7091 33.2361 91.142 29.2526 91.413 28.46C91.7889 27.3554 91.6687 26.3532 93.1414 25.7344C94.6141 25.1157 96.0894 26.4708 95.6292 27.6776C95.169 28.8844 96.8258 28.6799 96.8258 29.7742C96.8258 30.8685 94.9951 30.6409 93.9851 30.3111C93.2565 30.0759 86.3761 34.0185 81.9682 36.6878C83.1148 37.4042 84.3033 38.0514 85.5272 38.6258C85.6327 38.6659 85.7443 38.6876 85.8571 38.6898C87.0153 38.5568 87.8718 38.0275 89.0633 39.0861C90.2548 40.1446 89.6539 42.0647 88.3653 42.1542C87.611 42.2156 87.5267 42.7091 87.386 43.2102C87.4321 43.6091 87.4883 44.0488 87.5113 44.4221C87.5676 45.5062 87.3528 46.6235 87.6571 47.6667C87.5139 47.7997 87.5011 47.9991 87.4014 48.1781C87.0511 48.8173 87.0511 49.8195 87.675 50.3156C88.0406 50.607 88.4164 50.8627 88.9176 50.8269C89.8585 50.7656 90.7073 50.0599 90.6818 49.0653C90.6772 48.7928 90.6178 48.524 90.5071 48.2749C90.3964 48.0258 90.2367 47.8016 90.0374 47.6156C89.8934 47.4785 89.7252 47.3693 89.5414 47.2934C89.7766 46.3627 89.7971 45.3477 89.8687 44.4221C89.8892 44.192 89.9045 43.9466 89.9198 43.696C90.7866 43.6091 92.2849 43.2434 92.988 42.6017C94.0747 41.6487 94.747 40.3095 94.8621 38.8687C94.8954 38.2398 94.6065 37.8895 94.4914 37.3193C94.361 36.6622 94.9363 36.2071 95.4476 35.9054C96.2175 35.434 96.8608 34.7819 97.3218 34.0057C97.7669 33.2965 98.0627 32.5039 98.1911 31.6764C98.2346 31.3185 98.1783 31.1651 98.4468 30.8889C98.7336 30.6284 99.1051 30.4804 99.4925 30.4722C100.091 30.4722 99.9757 30.9324 100.436 31.2034C100.562 31.2786 100.706 31.3184 100.853 31.3184C100.999 31.3184 101.143 31.2786 101.269 31.2034C102.476 30.5003 102.722 29.0941 102.824 27.8157C102.82 27.7783 102.82 27.7406 102.824 27.7032C102.88 27.1167 102.767 26.5265 102.497 26.0029C102.185 25.3381 102.402 24.6733 102.724 24.0469C103.126 23.2518 103.008 22.0731 102.862 21.2191C103.036 17.6396 102.111 13.8223 100.725 11.268C100.277 10.4629 99.7226 9.72236 99.0758 9.06659C97.8649 7.78872 96.4 6.77843 94.7752 6.1007C94.4154 5.97031 94.0308 5.92311 93.6502 5.96263C93.4141 5.97771 93.1772 5.97258 92.942 5.94729C92.2133 5.84246 91.5741 5.10866 91.3951 4.4132C91.2928 4.03224 91.4462 3.7152 91.3951 3.3419C91.2866 2.83965 91.0596 2.37064 90.7329 1.97401C89.9846 1.02972 88.8959 0.416512 87.7005 0.266063C87.0741 0.174018 86.5193 0.363221 85.9644 0.549868C85.2741 0.785094 84.594 1.01776 83.7912 0.716061C82.4939 0.240578 81.1228 -0.0017879 79.7412 0.000154732C77.4919 -0.0114835 75.2882 0.633644 73.4003 1.8564" fill="white"/>
    <path d="M100.167 32.5202H100.144C99.4591 32.8219 99.1216 33.8165 99.3389 34.5018C99.4833 34.9752 99.7974 35.3785 100.221 35.6344C100.483 35.7895 100.781 35.8713 101.085 35.8713C101.389 35.8713 101.688 35.7895 101.949 35.6344C102.433 35.3557 102.857 34.7395 102.798 34.1566C102.778 33.9648 102.765 33.7628 102.727 33.566C102.651 33.2705 102.498 33.0007 102.282 32.7848C102.067 32.5689 101.797 32.4148 101.502 32.3387L101.026 32.2773C100.724 32.2772 100.428 32.3576 100.167 32.51" fill="white"/>
    <path d="M80.2434 24.9419C80.1539 25.5504 80.2434 26.1154 80.7547 26.0975C81.2661 26.0796 81.2942 25.4865 81.2942 25.1413C81.2942 24.7961 81.4502 24.1723 81.6113 24.6913C81.7033 25.0007 81.4502 25.8725 82.1584 26.0055C82.8667 26.1384 82.7439 25.916 82.6698 25.0774C82.5956 24.2387 82.2019 22.5998 81.6266 22.541H81.5678C80.7471 22.541 80.3124 24.3487 80.2229 24.947" fill="white"/>
    <path d="M73.569 13.8375C73.4463 15.0418 73.9755 16.2205 74.2133 16.8571C74.7732 18.3759 73.9014 19.2299 74.1034 19.3986C74.3053 19.5674 75.2258 18.7978 75.6195 17.4529C76.2741 15.2515 74.8372 16.8495 74.4434 13.766C74.0471 10.5802 75.8752 8.79041 75.4329 8.65234H75.4201C75.1005 8.65234 73.8221 11.3984 73.569 13.8299" fill="white"/>
    <path d="M75.8397 18.7361C75.8397 20.5028 76.6068 21.0807 78.2994 21.0372C79.992 20.9937 80.5033 20.5693 80.5749 20.0707C80.6337 19.6591 80.6286 19.048 80.3192 18.8358C80.1217 18.7546 79.9045 18.7341 79.6954 18.777C79.2052 18.851 78.7045 18.7525 78.2789 18.4983C77.2127 17.808 76.6016 17.427 76.259 17.427C75.9164 17.427 75.832 17.8335 75.832 18.7284" fill="white"/>
    <path d="M85.4754 17.3099C84.6495 17.8851 83.4044 18.7033 83.0746 18.9309C82.7447 19.1584 82.7677 19.7465 82.8189 20.1581C82.8879 20.6465 83.4172 21.1809 85.0944 21.0454C86.8433 20.9098 87.3777 20.0559 87.3777 18.3045C87.3777 17.205 87.4365 16.53 86.9814 16.53C86.7078 16.53 86.2424 16.7704 85.4677 17.3099" fill="white"/>
    <path d="M79.9125 27.9179C78.5446 27.5395 78.7338 26.9617 78.9051 26.8415C79.2222 26.6395 79.7028 27.3784 81.779 27.4066C82.5791 27.46 83.3778 27.2825 84.0801 26.8952C84.4892 26.7316 84.5403 26.9694 84.5326 27.2174C84.525 27.4654 84.3843 27.6955 83.3054 27.9614C82.7736 28.0951 82.2276 28.1638 81.6792 28.1659C81.079 28.1608 80.4821 28.0748 79.9048 27.9103L79.9125 27.9179ZM78.7185 30.1347C77.325 29.25 76.3815 28.2657 76.5119 26.6677C76.6423 25.0696 75.5276 23.7478 75.796 23.3055C76.0645 22.8631 76.5631 22.881 77.1895 26.481C77.5628 28.6211 79.0917 30.3495 82.4412 30.0605C85.3789 29.8049 85.9798 26.683 86.059 25.3074C86.1383 23.9319 86.192 23.4742 86.6676 23.2339C87.1431 22.9935 87.0434 23.643 86.9053 24.4228C86.7445 25.559 86.6991 26.7086 86.7698 27.854C86.8389 29.2807 86.0207 29.2807 84.8676 30.0963C83.7145 30.912 82.8605 31.9321 81.8812 32.0318H81.7559C80.8304 32.0318 80.0531 30.9682 78.7185 30.1245V30.1347ZM74.1367 22.6253C72.2369 22.4259 72.8352 19.9356 73.7966 18.7339C74.7963 17.4836 73.6994 17.3609 73.3389 16.0058C73.0193 14.799 72.848 13.9987 73.3926 11.7512C73.9372 9.50381 75.4381 5.98053 81.1398 5.98053C88.6312 5.98053 89.9428 12.0964 89.521 14.9294C89.4801 13.6509 88.8383 12.5029 88.7028 12.4799C88.5187 12.439 87.9767 13.8938 87.9357 15.6478C87.8948 17.4018 87.611 17.9285 88.3474 19.0279C88.8102 19.7234 89.3548 19.7413 89.5542 19.5188C90.1653 20.204 90.1551 20.1222 89.9658 21.6691C89.8355 22.7532 88.9099 22.5819 87.8616 22.4106C87.2813 22.2766 86.6807 22.2549 86.0923 22.3466C84.8369 22.6535 85.1693 23.0242 85.3764 24.2489C85.5835 25.4736 84.7934 26.8569 81.4312 26.7469C78.069 26.637 78.1074 25.3535 78.2122 23.7069C78.3043 22.2316 77.2048 22.3901 75.883 22.5461C75.4659 22.6031 75.0459 22.6355 74.625 22.6432C74.4602 22.6437 74.2954 22.6352 74.1315 22.6177L74.1367 22.6253ZM73.4233 1.86662C72.4268 2.50114 71.5033 3.2437 70.6696 4.08082C69.8079 5.00867 68.7632 5.74779 67.6015 6.25155C66.9367 6.52768 66.1901 6.76291 65.4691 6.64785C64.7481 6.5328 63.9913 6.1953 63.2779 6.31036C62.7305 6.40506 62.2341 6.69029 61.8766 7.1156C61.5192 7.54091 61.3236 8.07891 61.3245 8.63449C61.3245 9.30949 61.6262 9.84642 61.4677 10.5598C61.281 11.401 60.7492 11.9404 60.2915 12.6282C59.805 13.312 59.3878 14.0426 59.0464 14.8092C57.635 18.312 57.6938 22.2751 58.9518 25.8035C60.0384 28.8333 61.9586 31.5154 64.6279 33.185C63.8327 34.0952 63.7407 35.7903 64.7378 36.5932C64.9332 36.7901 65.1656 36.9464 65.4217 37.053C65.6777 37.1596 65.9524 37.2146 66.2297 37.2146C66.5071 37.2146 66.7817 37.1596 67.0378 37.053C67.2938 36.9464 67.5263 36.7901 67.7216 36.5932C67.9893 36.3548 68.1943 36.0544 68.3187 35.7182C68.4431 35.3821 68.483 35.0205 68.435 34.6653C69.1641 34.751 69.902 34.726 70.6236 34.5912C70.798 35.5434 71.2923 36.4076 72.0247 37.0406C72.7626 37.6663 73.689 38.0264 74.6557 38.0633C74.5925 38.2943 74.5506 38.5305 74.5304 38.769C74.4591 39.3866 74.5389 40.0122 74.7631 40.592C74.883 40.9047 75.0697 41.1874 75.3102 41.4204C76.1182 42.167 77.7034 42.167 78.5088 41.4204C79.3986 40.5946 79.465 38.8636 79.1506 37.8409C79.0415 37.4872 78.8604 37.1599 78.6187 36.8795C78.3835 36.6009 78.1585 36.225 77.8133 36.0179C74.6966 33.8727 71.6208 31.8477 70.8512 31.4156C69.1662 30.4901 68.6855 31.0526 67.4302 31.4156C66.1748 31.7787 65.0447 30.825 65.4691 29.7307C65.7375 29.0532 67.0927 29.2321 67.5145 28.8614C67.7702 28.639 67.7702 28.1455 67.6679 27.7722C67.3688 26.7801 67.4378 26.1461 68.7597 25.8623C69.8719 25.6296 70.2938 26.931 70.3705 27.923C70.4012 28.3654 70.9381 29.1836 71.2884 29.4801C72.1986 30.26 76.6577 33.3409 80.4187 35.729C84.7091 33.2361 91.142 29.2526 91.413 28.46C91.7889 27.3554 91.6687 26.3532 93.1414 25.7344C94.6141 25.1157 96.0894 26.4708 95.6292 27.6776C95.169 28.8844 96.8258 28.6799 96.8258 29.7742C96.8258 30.8685 94.9951 30.6409 93.9851 30.3111C93.2565 30.0759 86.3761 34.0185 81.9682 36.6878C83.1148 37.4042 84.3033 38.0514 85.5272 38.6258C85.6327 38.6659 85.7443 38.6876 85.8571 38.6898C87.0153 38.5568 87.8718 38.0275 89.0633 39.0861C90.2548 40.1446 89.6539 42.0647 88.3653 42.1542C87.611 42.2156 87.5267 42.7091 87.386 43.2102C87.4321 43.6091 87.4883 44.0488 87.5113 44.4221C87.5676 45.5062 87.3528 46.6235 87.6571 47.6667C87.5139 47.7997 87.5011 47.9991 87.4014 48.1781C87.0511 48.8173 87.0511 49.8195 87.675 50.3156C88.0406 50.607 88.4164 50.8627 88.9176 50.8269C89.8585 50.7656 90.7073 50.0599 90.6818 49.0653C90.6772 48.7928 90.6178 48.524 90.5071 48.2749C90.3964 48.0258 90.2367 47.8016 90.0374 47.6156C89.8934 47.4785 89.7252 47.3693 89.5414 47.2934C89.7766 46.3627 89.7971 45.3477 89.8687 44.4221C89.8892 44.192 89.9045 43.9466 89.9198 43.696C90.7866 43.6091 92.2849 43.2434 92.988 42.6017C94.0747 41.6487 94.747 40.3095 94.8621 38.8687C94.8954 38.2398 94.6065 37.8895 94.4914 37.3193C94.361 36.6622 94.9363 36.2071 95.4476 35.9054C96.2175 35.434 96.8608 34.7819 97.3218 34.0057C97.7669 33.2965 98.0627 32.5039 98.1911 31.6764C98.2346 31.3185 98.1783 31.1651 98.4468 30.8889C98.7336 30.6284 99.1051 30.4804 99.4925 30.4722C100.091 30.4722 99.9757 30.9324 100.436 31.2034C100.562 31.2786 100.706 31.3184 100.853 31.3184C100.999 31.3184 101.143 31.2786 101.269 31.2034C102.476 30.5003 102.722 29.0941 102.824 27.8157C102.82 27.7783 102.82 27.7406 102.824 27.7032C102.88 27.1167 102.767 26.5265 102.497 26.0029C102.185 25.3381 102.402 24.6733 102.724 24.0469C103.126 23.2518 103.008 22.0731 102.862 21.2191C103.036 17.6396 102.111 13.8223 100.725 11.268C100.277 10.4629 99.7226 9.72236 99.0758 9.06659C97.8649 7.78872 96.4 6.77843 94.7752 6.1007C94.4154 5.97031 94.0308 5.92311 93.6502 5.96263C93.4141 5.97771 93.1772 5.97258 92.942 5.94729C92.2133 5.84246 91.5741 5.10866 91.3951 4.4132C91.2928 4.03224 91.4462 3.7152 91.3951 3.3419C91.2866 2.83965 91.0596 2.37064 90.7329 1.97401C89.9846 1.02972 88.8959 0.416512 87.7005 0.266063C87.0741 0.174018 86.5193 0.363221 85.9644 0.549868C85.2741 0.785094 84.594 1.01776 83.7912 0.716061C82.4939 0.240578 81.1228 -0.0017879 79.7412 0.000154732C77.4919 -0.0114835 75.2882 0.633644 73.4003 1.8564" fill="white"/>
    <path d="M25.0533 44.1536C26.3087 43.8417 28.6942 43.9133 32.0666 45.0127C33.0535 45.34 34.2169 44.5908 34.4342 43.6039C34.9456 41.267 34.1785 39.4363 31.793 39.0886C31.5733 38.9797 31.3362 38.9105 31.0925 38.884C26.6334 38.4136 22.2152 39.4133 17.9326 40.5332C16.4189 40.9321 14.9718 41.3181 13.4045 41.3999C11.8704 41.4792 10.4948 41.6122 9.07323 42.1977C7.34994 42.9008 5.60364 43.5451 3.88291 44.2431C2.42297 44.8465 0.909344 45.6698 0.093723 47.0786C-0.300025 47.7664 0.576959 50.6965 2.15962 52.1385C2.76559 52.6934 4.60904 53.1766 5.99483 51.8113C7.7488 49.73 10.482 47.2755 12.8982 46.0406C13.9209 45.4448 14.4885 45.2735 17.1962 44.8056C19.2417 44.4553 19.6661 45.9229 19.7377 46.6286C19.7863 47.1272 18.3902 54.0689 18.4593 60.4712C18.4976 63.6774 18.4593 66.8811 18.8096 70.072C18.8837 70.77 19.0806 71.7723 19.7786 72.1456C20.386 72.4158 21.0323 72.5884 21.6936 72.6569C22.4607 72.7669 23.1894 72.5444 23.5627 71.8234C24.1942 70.6089 23.4067 68.6402 23.2098 67.3234C22.9388 65.5209 22.7266 63.7055 22.6013 61.8902C22.522 60.7575 22.476 59.63 22.4914 58.4999C22.5502 54.1303 22.5706 49.0857 22.5706 49.0857C22.6345 45.9741 23.22 44.6062 25.0379 44.1511" fill="white"/>
    <path d="M40.3267 51.7091C37.8262 49.9449 34.4665 50.0497 31.7768 51.3128C29.5268 52.3662 26.1058 53.9412 26.4612 56.9377C26.6069 58.1619 26.9524 59.3538 27.4839 60.4661C27.9788 61.4935 28.5311 62.4922 29.1381 63.4576C29.5558 64.1694 30.0506 64.833 30.6134 65.4366C32.8634 67.7633 36.5657 67.4079 39.2299 65.9479C41.7867 64.5383 43.3821 63.3187 44.0162 62.2891C44.8242 59.7195 44.2387 56.4366 42.4259 54.4218C41.6435 53.5474 41.2855 52.3943 40.3267 51.7142V51.7091ZM40.2884 59.8065C39.6338 60.6451 38.5856 61.3533 37.1333 61.9491C35.2259 62.6837 33.6449 62.9394 32.3904 62.7161C31.1631 62.3633 30.483 61.563 30.345 60.3229C30.345 59.0497 30.8461 57.8991 31.8484 56.8713C33.4055 55.2707 37.1537 54.0588 39.2631 55.0815C39.691 55.2669 40.0683 55.5521 40.3632 55.9134C40.6582 56.2746 40.8622 56.7013 40.9583 57.1576C41.0708 58.0994 40.8303 59.0495 40.2833 59.8244" fill="white"/>
    <path d="M57.2338 52.9747C57.2415 52.5439 57.1281 52.1195 56.9065 51.75C56.7032 51.4607 56.4793 51.1865 56.2366 50.9293C55.9714 50.509 55.6234 50.1472 55.2139 49.8656C54.6703 49.5563 54.0485 49.4115 53.4242 49.4489C53.015 49.4707 52.6151 49.5788 52.2506 49.7659C51.7239 50.0625 51.302 50.804 50.8827 51.2412C50.0773 51.7756 49.4355 51.9418 48.9549 51.7321L47.3696 50.9906C46.9989 50.9599 46.6691 51.2744 46.3699 51.9418C46.1142 52.5068 46.2446 53.504 46.2574 54.1099C46.2795 54.9342 46.3581 55.756 46.4927 56.5696C46.6767 57.5923 46.8762 58.5844 47.0424 59.5943C47.2725 60.9699 47.0168 62.3377 46.9759 63.7133C46.9478 64.8562 47.137 65.6539 48.1443 66.2906C48.2641 66.3756 48.4016 66.4322 48.5464 66.4561C48.6913 66.48 48.8397 66.4706 48.9804 66.4286C49.4764 66.2624 49.8395 65.6616 50.0031 65.1323L49.9418 61.3457C49.9761 60.9548 50.0385 60.5669 50.1284 60.1849C50.223 59.6071 50.3074 59.019 50.4199 58.4437C50.5912 57.5719 50.7804 56.7051 50.9594 55.8383C51.1921 54.675 51.8415 53.4989 53.1838 53.5065C54.2965 53.5307 55.4065 53.6238 56.5077 53.7852C56.8273 53.5858 57.1878 53.3787 57.244 52.9747" fill="white"/>
    <path d="M69.3201 53.4707C68.1082 52.7037 66.252 52.3355 65.5872 50.9267C65.0247 49.7224 65.1551 48.4261 65.4236 47.181C65.7058 46.0406 65.8821 44.8765 65.9503 43.7037C65.9503 43.3918 66.0372 42.7372 65.8531 42.4611C65.513 41.9497 65.0861 41.7529 64.5747 41.9088C64.123 42.0751 63.7258 42.3626 63.4267 42.7398C63.1096 43.1259 63.1429 43.5707 63.1148 44.0412C62.992 46.1327 62.8386 48.2241 62.7133 50.313C62.5932 52.3176 60.0312 53.9284 59.5071 54.2965C58.9071 54.6944 58.2721 55.0367 57.61 55.3193C57.0986 55.5494 56.5514 55.7002 56.0171 55.892C55.841 55.9594 55.6897 56.079 55.5837 56.2349C55.4777 56.3907 55.4219 56.5754 55.4239 56.7639C55.4372 56.9263 55.4892 57.0833 55.5754 57.2216C55.6617 57.3599 55.7798 57.4756 55.9199 57.559C56.7815 58.0704 57.7787 57.4133 58.6506 57.3366C59.4236 57.2255 60.2122 57.353 60.9108 57.7022C61.8824 58.2136 62.1611 59.3411 62.2454 60.3562C62.4193 62.4425 62.473 64.6567 62.9716 66.7022C63.0815 67.1496 63.4062 67.8195 63.9227 67.9218C64.6488 68.065 65.1065 67.5127 65.3264 66.899C65.6051 66.132 65.3878 65.434 65.2932 64.6516C65.1474 63.3732 64.8099 62.1178 64.7102 60.8445C64.6466 60.0605 64.7674 59.2724 65.063 58.5434C65.9196 56.6232 68.0571 56.1835 69.4096 54.7593C70.0914 54.3536 70.0625 53.9173 69.3227 53.4502" fill="white"/>
    <path d="M85.4465 59.7196C85.5539 59.0216 85.6587 58.3262 85.7354 57.6179C85.8406 56.7014 85.8655 55.7774 85.8095 54.8566C85.8095 54.4818 85.7098 54.1139 85.5206 53.7904C85.3033 53.458 84.7127 53.0975 84.2882 53.2535C83.6925 53.4708 83.5007 54.2046 83.3627 54.7543C83.1719 55.5972 83.0336 56.4511 82.9485 57.3111C82.7721 58.7557 82.0331 60.0136 81.1766 61.1463C80.0312 62.6523 77.9653 63.8233 76.0272 63.7159C74.8076 63.6443 74.1479 62.9489 74.0329 61.6193C73.986 60.3953 74.1726 59.1736 74.5826 58.0193L76.3187 54.9512C76.8479 54.023 77.0141 52.691 76.4619 51.7577C75.9505 50.8986 74.9124 50.3643 74.2093 51.41C73.9536 51.7935 73.8335 52.4123 73.6647 52.852C73.409 53.5321 73.1661 54.2429 72.8977 54.8975L71.7318 57.71C71.4485 58.5305 71.2766 59.3852 71.2204 60.2514C71.1787 61.2141 71.3112 62.1765 71.6116 63.092C71.8479 63.7544 72.1851 64.3762 72.6113 64.9355C73.3652 65.8888 74.4075 66.5724 75.5823 66.8838C76.6638 67.1829 78.1391 67.0807 79.0775 66.3724C79.9493 65.7051 80.9848 64.4599 82.1865 64.5418C83.2323 64.6185 83.447 65.7025 83.9226 66.4159C84.1195 66.7099 84.3573 66.9835 84.5362 67.2954C84.567 67.3463 84.6012 67.3949 84.6385 67.4412C85.0834 68.0165 85.7252 67.7505 86.032 67.1241C86.3963 66.2778 86.4453 65.329 86.1701 64.4497C85.5206 62.4298 85.2803 60.8557 85.449 59.7273" fill="white"/>
    <path d="M102.691 52.8108C101.944 52.4426 101.246 51.985 100.535 51.558C99.9012 51.1847 99.2134 50.7347 98.4745 50.6273C97.8451 50.5484 97.2067 50.5787 96.5876 50.7168C94.8438 51.0645 93.458 52.4145 92.5376 53.877C92.2973 54.2631 91.9291 54.6057 91.6606 54.9764C91.3436 55.4111 91.0572 55.8611 90.7785 56.3188C90.037 57.5332 89.2317 58.7503 88.8686 60.1412C88.5633 61.4663 88.6243 62.8495 89.045 64.1426C89.3927 65.2855 89.8709 66.0244 90.4615 66.3466C91.2975 67.0778 92.0902 67.5125 92.8546 67.6377C93.2407 67.6991 93.7981 67.4843 94.1688 67.3821C94.6329 67.243 95.0895 67.08 95.5367 66.8937C96.5237 66.4897 97.4518 65.9605 98.4208 65.5258C98.8887 65.3136 99.4972 65.0477 100.021 65.1858C100.827 65.4082 101.003 66.7505 101.072 67.4332C101.141 68.1159 101.162 68.7883 101.157 69.4633C101.16 70.5935 101.059 71.7216 100.855 72.8332C100.684 73.6948 100.318 74.5462 99.5381 75.0269C98.7583 75.5076 97.7867 75.7556 96.8765 75.9576C95.2567 76.3126 93.5849 76.3621 91.947 76.1033C90.9758 75.9123 90.0847 75.433 89.3902 74.7278C89.1191 74.4721 87.7538 72.5366 87.2476 72.9815C87.1044 73.1042 87.0481 73.6846 87.0072 73.8585C86.6109 75.6099 87.1172 77.1823 88.0427 78.6653C88.4546 79.3596 89.0011 79.9648 89.65 80.4451C90.2989 80.9254 91.0373 81.2713 91.8217 81.4624C92.3371 81.5732 92.8657 81.6102 93.3916 81.5723C95.0509 81.465 96.6566 80.7363 98.2239 80.2326C99.0114 79.9769 99.8271 79.7442 100.5 79.261C101.267 78.7189 102.034 77.7704 102.169 76.8218C102.251 76.2516 102.392 75.6636 102.504 75.0934C102.821 73.4852 103.041 71.8769 103.243 70.2355C103.45 68.5096 103.376 66.7454 103.376 65.0068C103.376 63.4848 103.575 61.9693 103.969 60.4991C104.562 58.2117 104.818 56.5318 104.736 55.4597C104.596 54.2145 103.79 53.3401 102.691 52.8057V52.8108ZM100.735 58.3642C99.5739 60.5477 97.5609 61.9446 94.6955 62.5548C93.724 62.721 93.0592 62.6008 92.7063 62.1917C92.4098 61.6974 92.4387 60.9909 92.7933 60.0722C93.9865 57.3244 95.7012 55.6097 97.9376 54.9279C99.112 54.6602 100.015 54.9159 100.648 55.6949C101.142 56.4449 101.171 57.3364 100.735 58.3693" fill="white"/>
    <path d="M132.147 66.5949V66.5105C132.142 66.4961 132.135 66.4824 132.126 66.4696C132.014 66.0965 131.813 65.756 131.542 65.4769C131.27 65.1978 130.934 64.9884 130.564 64.8665L130.426 64.7795L130.36 64.8025C130.226 64.7648 130.089 64.74 129.951 64.7284C128.572 64.621 127.68 65.4648 126.45 65.8585C125.8 66.0698 125.103 66.0972 124.438 65.9378C123.185 65.6335 122.203 64.8204 122.106 63.4935C122.045 62.7136 121.935 61.8724 122.106 61.0977C122.234 60.4866 122.421 59.9369 122.6 59.3361C122.735 58.8784 122.873 58.4233 122.981 57.9605C123.185 57.2343 123.247 56.4757 123.165 55.7259C122.937 54.0537 122.004 51.7219 120.365 50.9856C119.087 50.4103 117.443 51.0904 116.241 51.6273C114.894 52.2307 113.664 53.0617 112.406 53.8185C110.787 54.7799 109.647 56.0634 108.517 57.5489C107.172 59.3156 106.119 61.517 106.694 63.8054C107.515 67.0781 111.235 67.4514 113.853 66.2471C114.647 65.8568 115.415 65.4171 116.154 64.9304C117.023 64.3781 117.99 63.156 119.013 62.9667C118.78 63.698 119.688 65.3318 120.035 65.9557C120.488 66.7227 121.058 67.5613 121.838 68.0548C124.016 69.4559 127.629 70.8417 130.109 69.4457C130.775 69.0361 131.36 68.5064 131.832 67.8835C131.866 67.8511 131.897 67.816 131.924 67.7787C132.153 67.4294 132.245 67.0075 132.18 66.5949H132.147ZM119.752 57.1066C119.24 58.2673 117.729 59.2338 116.921 59.8679C116.067 60.5327 115.234 61.2844 114.303 61.8443C113.536 62.3097 111.071 63.7875 110.256 62.6932C109.54 61.7318 110.815 60.0878 111.401 59.3693C112.23 58.404 113.206 57.5749 114.293 56.9122C115.315 56.2628 119.151 53.4094 119.856 55.8895C119.966 56.2957 119.929 56.7275 119.752 57.1091" fill="white"/>
    <path d="M100.167 32.5202H100.144C99.4591 32.8219 99.1216 33.8165 99.3389 34.5018C99.4833 34.9752 99.7974 35.3785 100.221 35.6344C100.483 35.7895 100.781 35.8713 101.085 35.8713C101.389 35.8713 101.688 35.7895 101.949 35.6344C102.433 35.3557 102.857 34.7395 102.798 34.1566C102.778 33.9648 102.765 33.7628 102.727 33.566C102.651 33.2705 102.498 33.0007 102.282 32.7848C102.067 32.5689 101.797 32.4148 101.502 32.3387L101.026 32.2773C100.724 32.2772 100.428 32.3576 100.167 32.51" fill="white"/>
    <path d="M80.2434 24.9419C80.1539 25.5504 80.2434 26.1154 80.7547 26.0975C81.2661 26.0796 81.2942 25.4865 81.2942 25.1413C81.2942 24.7961 81.4502 24.1723 81.6113 24.6913C81.7033 25.0007 81.4502 25.8725 82.1584 26.0055C82.8667 26.1384 82.7439 25.916 82.6698 25.0774C82.5956 24.2387 82.2019 22.5998 81.6266 22.541H81.5678C80.7471 22.541 80.3124 24.3487 80.2229 24.947" fill="white"/>
    <path d="M73.569 13.8375C73.4463 15.0418 73.9755 16.2205 74.2133 16.8571C74.7732 18.3759 73.9014 19.2299 74.1034 19.3986C74.3053 19.5674 75.2258 18.7978 75.6195 17.4529C76.2741 15.2515 74.8372 16.8495 74.4434 13.766C74.0471 10.5802 75.8752 8.79041 75.4329 8.65234H75.4201C75.1005 8.65234 73.8221 11.3984 73.569 13.8299" fill="white"/>
    <path d="M75.8397 18.7361C75.8397 20.5028 76.6068 21.0807 78.2994 21.0372C79.992 20.9937 80.5033 20.5693 80.5749 20.0707C80.6337 19.6591 80.6286 19.048 80.3192 18.8358C80.1217 18.7546 79.9045 18.7341 79.6954 18.777C79.2052 18.851 78.7045 18.7525 78.2789 18.4983C77.2127 17.808 76.6016 17.427 76.259 17.427C75.9164 17.427 75.832 17.8335 75.832 18.7284" fill="white"/>
    <path d="M85.4754 17.3099C84.6495 17.8851 83.4044 18.7033 83.0746 18.9309C82.7447 19.1584 82.7677 19.7465 82.8189 20.1581C82.8879 20.6465 83.4172 21.1809 85.0944 21.0454C86.8433 20.9098 87.3777 20.0559 87.3777 18.3045C87.3777 17.205 87.4365 16.53 86.9814 16.53C86.7078 16.53 86.2424 16.7704 85.4677 17.3099" fill="white"/>
    <path d="M79.9125 27.9179C78.5446 27.5395 78.7338 26.9617 78.9051 26.8415C79.2222 26.6395 79.7028 27.3784 81.779 27.4066C82.5791 27.46 83.3778 27.2825 84.0801 26.8952C84.4892 26.7316 84.5403 26.9694 84.5326 27.2174C84.525 27.4654 84.3843 27.6955 83.3054 27.9614C82.7736 28.0951 82.2276 28.1638 81.6792 28.1659C81.079 28.1608 80.4821 28.0748 79.9048 27.9103L79.9125 27.9179ZM78.7185 30.1347C77.325 29.25 76.3815 28.2657 76.5119 26.6677C76.6423 25.0696 75.5276 23.7478 75.796 23.3055C76.0645 22.8631 76.5631 22.881 77.1895 26.481C77.5628 28.6211 79.0917 30.3495 82.4412 30.0605C85.3789 29.8049 85.9798 26.683 86.059 25.3074C86.1383 23.9319 86.192 23.4742 86.6676 23.2339C87.1431 22.9935 87.0434 23.643 86.9053 24.4228C86.7445 25.559 86.6991 26.7086 86.7698 27.854C86.8389 29.2807 86.0207 29.2807 84.8676 30.0963C83.7145 30.912 82.8605 31.9321 81.8812 32.0318H81.7559C80.8304 32.0318 80.0531 30.9682 78.7185 30.1245V30.1347ZM74.1367 22.6253C72.2369 22.4259 72.8352 19.9356 73.7966 18.7339C74.7963 17.4836 73.6994 17.3609 73.3389 16.0058C73.0193 14.799 72.848 13.9987 73.3926 11.7512C73.9372 9.50381 75.4381 5.98053 81.1398 5.98053C88.6312 5.98053 89.9428 12.0964 89.521 14.9294C89.4801 13.6509 88.8383 12.5029 88.7028 12.4799C88.5187 12.439 87.9767 13.8938 87.9357 15.6478C87.8948 17.4018 87.611 17.9285 88.3474 19.0279C88.8102 19.7234 89.3548 19.7413 89.5542 19.5188C90.1653 20.204 90.1551 20.1222 89.9658 21.6691C89.8355 22.7532 88.9099 22.5819 87.8616 22.4106C87.2813 22.2766 86.6807 22.2549 86.0923 22.3466C84.8369 22.6535 85.1693 23.0242 85.3764 24.2489C85.5835 25.4736 84.7934 26.8569 81.4312 26.7469C78.069 26.637 78.1074 25.3535 78.2122 23.7069C78.3043 22.2316 77.2048 22.3901 75.883 22.5461C75.4659 22.6031 75.0459 22.6355 74.625 22.6432C74.4602 22.6437 74.2954 22.6352 74.1315 22.6177L74.1367 22.6253ZM73.4233 1.86662C72.4268 2.50114 71.5033 3.2437 70.6696 4.08082C69.8079 5.00867 68.7632 5.74779 67.6015 6.25155C66.9367 6.52768 66.1901 6.76291 65.4691 6.64785C64.7481 6.5328 63.9913 6.1953 63.2779 6.31036C62.7305 6.40506 62.2341 6.69029 61.8766 7.1156C61.5192 7.54091 61.3236 8.07891 61.3245 8.63449C61.3245 9.30949 61.6262 9.84642 61.4677 10.5598C61.281 11.401 60.7492 11.9404 60.2915 12.6282C59.805 13.312 59.3878 14.0426 59.0464 14.8092C57.635 18.312 57.6938 22.2751 58.9518 25.8035C60.0384 28.8333 61.9586 31.5154 64.6279 33.185C63.8327 34.0952 63.7407 35.7903 64.7378 36.5932C64.9332 36.7901 65.1656 36.9464 65.4217 37.053C65.6777 37.1596 65.9524 37.2146 66.2297 37.2146C66.5071 37.2146 66.7817 37.1596 67.0378 37.053C67.2938 36.9464 67.5263 36.7901 67.7216 36.5932C67.9893 36.3548 68.1943 36.0544 68.3187 35.7182C68.4431 35.3821 68.483 35.0205 68.435 34.6653C69.1641 34.751 69.902 34.726 70.6236 34.5912C70.798 35.5434 71.2923 36.4076 72.0247 37.0406C72.7626 37.6663 73.689 38.0264 74.6557 38.0633C74.5925 38.2943 74.5506 38.5305 74.5304 38.769C74.4591 39.3866 74.5389 40.0122 74.7631 40.592C74.883 40.9047 75.0697 41.1874 75.3102 41.4204C76.1182 42.167 77.7034 42.167 78.5088 41.4204C79.3986 40.5946 79.465 38.8636 79.1506 37.8409C79.0415 37.4872 78.8604 37.1599 78.6187 36.8795C78.3835 36.6009 78.1585 36.225 77.8133 36.0179C74.6966 33.8727 71.6208 31.8477 70.8512 31.4156C69.1662 30.4901 68.6855 31.0526 67.4302 31.4156C66.1748 31.7787 65.0447 30.825 65.4691 29.7307C65.7375 29.0532 67.0927 29.2321 67.5145 28.8614C67.7702 28.639 67.7702 28.1455 67.6679 27.7722C67.3688 26.7801 67.4378 26.1461 68.7597 25.8623C69.8719 25.6296 70.2938 26.931 70.3705 27.923C70.4012 28.3654 70.9381 29.1836 71.2884 29.4801C72.1986 30.26 76.6577 33.3409 80.4187 35.729C84.7091 33.2361 91.142 29.2526 91.413 28.46C91.7889 27.3554 91.6687 26.3532 93.1414 25.7344C94.6141 25.1157 96.0894 26.4708 95.6292 27.6776C95.169 28.8844 96.8258 28.6799 96.8258 29.7742C96.8258 30.8685 94.9951 30.6409 93.9851 30.3111C93.2565 30.0759 86.3761 34.0185 81.9682 36.6878C83.1148 37.4042 84.3033 38.0514 85.5272 38.6258C85.6327 38.6659 85.7443 38.6876 85.8571 38.6898C87.0153 38.5568 87.8718 38.0275 89.0633 39.0861C90.2548 40.1446 89.6539 42.0647 88.3653 42.1542C87.611 42.2156 87.5267 42.7091 87.386 43.2102C87.4321 43.6091 87.4883 44.0488 87.5113 44.4221C87.5676 45.5062 87.3528 46.6235 87.6571 47.6667C87.5139 47.7997 87.5011 47.9991 87.4014 48.1781C87.0511 48.8173 87.0511 49.8195 87.675 50.3156C88.0406 50.607 88.4164 50.8627 88.9176 50.8269C89.8585 50.7656 90.7073 50.0599 90.6818 49.0653C90.6772 48.7928 90.6178 48.524 90.5071 48.2749C90.3964 48.0258 90.2367 47.8016 90.0374 47.6156C89.8934 47.4785 89.7252 47.3693 89.5414 47.2934C89.7766 46.3627 89.7971 45.3477 89.8687 44.4221C89.8892 44.192 89.9045 43.9466 89.9198 43.696C90.7866 43.6091 92.2849 43.2434 92.988 42.6017C94.0747 41.6487 94.747 40.3095 94.8621 38.8687C94.8954 38.2398 94.6065 37.8895 94.4914 37.3193C94.361 36.6622 94.9363 36.2071 95.4476 35.9054C96.2175 35.434 96.8608 34.7819 97.3218 34.0057C97.7669 33.2965 98.0627 32.5039 98.1911 31.6764C98.2346 31.3185 98.1783 31.1651 98.4468 30.8889C98.7336 30.6284 99.1051 30.4804 99.4925 30.4722C100.091 30.4722 99.9757 30.9324 100.436 31.2034C100.562 31.2786 100.706 31.3184 100.853 31.3184C100.999 31.3184 101.143 31.2786 101.269 31.2034C102.476 30.5003 102.722 29.0941 102.824 27.8157C102.82 27.7783 102.82 27.7406 102.824 27.7032C102.88 27.1167 102.767 26.5265 102.497 26.0029C102.185 25.3381 102.402 24.6733 102.724 24.0469C103.126 23.2518 103.008 22.0731 102.862 21.2191C103.036 17.6396 102.111 13.8223 100.725 11.268C100.277 10.4629 99.7226 9.72236 99.0758 9.06659C97.8649 7.78872 96.4 6.77843 94.7752 6.1007C94.4154 5.97031 94.0308 5.92311 93.6502 5.96263C93.4141 5.97771 93.1772 5.97258 92.942 5.94729C92.2133 5.84246 91.5741 5.10866 91.3951 4.4132C91.2928 4.03224 91.4462 3.7152 91.3951 3.3419C91.2866 2.83965 91.0596 2.37064 90.7329 1.97401C89.9846 1.02972 88.8959 0.416512 87.7005 0.266063C87.0741 0.174018 86.5193 0.363221 85.9644 0.549868C85.2741 0.785094 84.594 1.01776 83.7912 0.716061C82.4939 0.240578 81.1228 -0.0017879 79.7412 0.000154732C77.4919 -0.0114835 75.2882 0.633644 73.4003 1.8564" fill="white"/>
    <path d="M100.167 32.5202H100.144C99.4591 32.8219 99.1216 33.8165 99.3389 34.5018C99.4833 34.9752 99.7974 35.3785 100.221 35.6344C100.483 35.7895 100.781 35.8713 101.085 35.8713C101.389 35.8713 101.688 35.7895 101.949 35.6344C102.433 35.3557 102.857 34.7395 102.798 34.1566C102.778 33.9648 102.765 33.7628 102.727 33.566C102.651 33.2705 102.498 33.0007 102.282 32.7848C102.067 32.5689 101.797 32.4148 101.502 32.3387L101.026 32.2773C100.724 32.2772 100.428 32.3576 100.167 32.51" fill="white"/>
    <path d="M80.2434 24.9419C80.1539 25.5504 80.2434 26.1154 80.7547 26.0975C81.2661 26.0796 81.2942 25.4865 81.2942 25.1413C81.2942 24.7961 81.4502 24.1723 81.6113 24.6913C81.7033 25.0007 81.4502 25.8725 82.1584 26.0055C82.8667 26.1384 82.7439 25.916 82.6698 25.0774C82.5956 24.2387 82.2019 22.5998 81.6266 22.541H81.5678C80.7471 22.541 80.3124 24.3487 80.2229 24.947" fill="white"/>
    <path d="M73.569 13.8375C73.4463 15.0418 73.9755 16.2205 74.2133 16.8571C74.7732 18.3759 73.9014 19.2299 74.1034 19.3986C74.3053 19.5674 75.2258 18.7978 75.6195 17.4529C76.2741 15.2515 74.8372 16.8495 74.4434 13.766C74.0471 10.5802 75.8752 8.79041 75.4329 8.65234H75.4201C75.1005 8.65234 73.8221 11.3984 73.569 13.8299" fill="white"/>
    <path d="M75.8397 18.7361C75.8397 20.5028 76.6068 21.0807 78.2994 21.0372C79.992 20.9937 80.5033 20.5693 80.5749 20.0707C80.6337 19.6591 80.6286 19.048 80.3192 18.8358C80.1217 18.7546 79.9045 18.7341 79.6954 18.777C79.2052 18.851 78.7045 18.7525 78.2789 18.4983C77.2127 17.808 76.6016 17.427 76.259 17.427C75.9164 17.427 75.832 17.8335 75.832 18.7284" fill="white"/>
    <path d="M85.4754 17.3099C84.6495 17.8851 83.4044 18.7033 83.0746 18.9309C82.7447 19.1584 82.7677 19.7465 82.8189 20.1581C82.8879 20.6465 83.4172 21.1809 85.0944 21.0454C86.8433 20.9098 87.3777 20.0559 87.3777 18.3045C87.3777 17.205 87.4365 16.53 86.9814 16.53C86.7078 16.53 86.2424 16.7704 85.4677 17.3099" fill="white"/>
    <path d="M79.9125 27.9179C78.5446 27.5395 78.7338 26.9617 78.9051 26.8415C79.2222 26.6395 79.7028 27.3784 81.779 27.4066C82.5791 27.46 83.3778 27.2825 84.0801 26.8952C84.4892 26.7316 84.5403 26.9694 84.5326 27.2174C84.525 27.4654 84.3843 27.6955 83.3054 27.9614C82.7736 28.0951 82.2276 28.1638 81.6792 28.1659C81.079 28.1608 80.4821 28.0748 79.9048 27.9103L79.9125 27.9179ZM78.7185 30.1347C77.325 29.25 76.3815 28.2657 76.5119 26.6677C76.6423 25.0696 75.5276 23.7478 75.796 23.3055C76.0645 22.8631 76.5631 22.881 77.1895 26.481C77.5628 28.6211 79.0917 30.3495 82.4412 30.0605C85.3789 29.8049 85.9798 26.683 86.059 25.3074C86.1383 23.9319 86.192 23.4742 86.6676 23.2339C87.1431 22.9935 87.0434 23.643 86.9053 24.4228C86.7445 25.559 86.6991 26.7086 86.7698 27.854C86.8389 29.2807 86.0207 29.2807 84.8676 30.0963C83.7145 30.912 82.8605 31.9321 81.8812 32.0318H81.7559C80.8304 32.0318 80.0531 30.9682 78.7185 30.1245V30.1347ZM74.1367 22.6253C72.2369 22.4259 72.8352 19.9356 73.7966 18.7339C74.7963 17.4836 73.6994 17.3609 73.3389 16.0058C73.0193 14.799 72.848 13.9987 73.3926 11.7512C73.9372 9.50381 75.4381 5.98053 81.1398 5.98053C88.6312 5.98053 89.9428 12.0964 89.521 14.9294C89.4801 13.6509 88.8383 12.5029 88.7028 12.4799C88.5187 12.439 87.9767 13.8938 87.9357 15.6478C87.8948 17.4018 87.611 17.9285 88.3474 19.0279C88.8102 19.7234 89.3548 19.7413 89.5542 19.5188C90.1653 20.204 90.1551 20.1222 89.9658 21.6691C89.8355 22.7532 88.9099 22.5819 87.8616 22.4106C87.2813 22.2766 86.6807 22.2549 86.0923 22.3466C84.8369 22.6535 85.1693 23.0242 85.3764 24.2489C85.5835 25.4736 84.7934 26.8569 81.4312 26.7469C78.069 26.637 78.1074 25.3535 78.2122 23.7069C78.3043 22.2316 77.2048 22.3901 75.883 22.5461C75.4659 22.6031 75.0459 22.6355 74.625 22.6432C74.4602 22.6437 74.2954 22.6352 74.1315 22.6177L74.1367 22.6253ZM73.4233 1.86662C72.4268 2.50114 71.5033 3.2437 70.6696 4.08082C69.8079 5.00867 68.7632 5.74779 67.6015 6.25155C66.9367 6.52768 66.1901 6.76291 65.4691 6.64785C64.7481 6.5328 63.9913 6.1953 63.2779 6.31036C62.7305 6.40506 62.2341 6.69029 61.8766 7.1156C61.5192 7.54091 61.3236 8.07891 61.3245 8.63449C61.3245 9.30949 61.6262 9.84642 61.4677 10.5598C61.281 11.401 60.7492 11.9404 60.2915 12.6282C59.805 13.312 59.3878 14.0426 59.0464 14.8092C57.635 18.312 57.6938 22.2751 58.9518 25.8035C60.0384 28.8333 61.9586 31.5154 64.6279 33.185C63.8327 34.0952 63.7407 35.7903 64.7378 36.5932C64.9332 36.7901 65.1656 36.9464 65.4217 37.053C65.6777 37.1596 65.9524 37.2146 66.2297 37.2146C66.5071 37.2146 66.7817 37.1596 67.0378 37.053C67.2938 36.9464 67.5263 36.7901 67.7216 36.5932C67.9893 36.3548 68.1943 36.0544 68.3187 35.7182C68.4431 35.3821 68.483 35.0205 68.435 34.6653C69.1641 34.751 69.902 34.726 70.6236 34.5912C70.798 35.5434 71.2923 36.4076 72.0247 37.0406C72.7626 37.6663 73.689 38.0264 74.6557 38.0633C74.5925 38.2943 74.5506 38.5305 74.5304 38.769C74.4591 39.3866 74.5389 40.0122 74.7631 40.592C74.883 40.9047 75.0697 41.1874 75.3102 41.4204C76.1182 42.167 77.7034 42.167 78.5088 41.4204C79.3986 40.5946 79.465 38.8636 79.1506 37.8409C79.0415 37.4872 78.8604 37.1599 78.6187 36.8795C78.3835 36.6009 78.1585 36.225 77.8133 36.0179C74.6966 33.8727 71.6208 31.8477 70.8512 31.4156C69.1662 30.4901 68.6855 31.0526 67.4302 31.4156C66.1748 31.7787 65.0447 30.825 65.4691 29.7307C65.7375 29.0532 67.0927 29.2321 67.5145 28.8614C67.7702 28.639 67.7702 28.1455 67.6679 27.7722C67.3688 26.7801 67.4378 26.1461 68.7597 25.8623C69.8719 25.6296 70.2938 26.931 70.3705 27.923C70.4012 28.3654 70.9381 29.1836 71.2884 29.4801C72.1986 30.26 76.6577 33.3409 80.4187 35.729C84.7091 33.2361 91.142 29.2526 91.413 28.46C91.7889 27.3554 91.6687 26.3532 93.1414 25.7344C94.6141 25.1157 96.0894 26.4708 95.6292 27.6776C95.169 28.8844 96.8258 28.6799 96.8258 29.7742C96.8258 30.8685 94.9951 30.6409 93.9851 30.3111C93.2565 30.0759 86.3761 34.0185 81.9682 36.6878C83.1148 37.4042 84.3033 38.0514 85.5272 38.6258C85.6327 38.6659 85.7443 38.6876 85.8571 38.6898C87.0153 38.5568 87.8718 38.0275 89.0633 39.0861C90.2548 40.1446 89.6539 42.0647 88.3653 42.1542C87.611 42.2156 87.5267 42.7091 87.386 43.2102C87.4321 43.6091 87.4883 44.0488 87.5113 44.4221C87.5676 45.5062 87.3528 46.6235 87.6571 47.6667C87.5139 47.7997 87.5011 47.9991 87.4014 48.1781C87.0511 48.8173 87.0511 49.8195 87.675 50.3156C88.0406 50.607 88.4164 50.8627 88.9176 50.8269C89.8585 50.7656 90.7073 50.0599 90.6818 49.0653C90.6772 48.7928 90.6178 48.524 90.5071 48.2749C90.3964 48.0258 90.2367 47.8016 90.0374 47.6156C89.8934 47.4785 89.7252 47.3693 89.5414 47.2934C89.7766 46.3627 89.7971 45.3477 89.8687 44.4221C89.8892 44.192 89.9045 43.9466 89.9198 43.696C90.7866 43.6091 92.2849 43.2434 92.988 42.6017C94.0747 41.6487 94.747 40.3095 94.8621 38.8687C94.8954 38.2398 94.6065 37.8895 94.4914 37.3193C94.361 36.6622 94.9363 36.2071 95.4476 35.9054C96.2175 35.434 96.8608 34.7819 97.3218 34.0057C97.7669 33.2965 98.0627 32.5039 98.1911 31.6764C98.2346 31.3185 98.1783 31.1651 98.4468 30.8889C98.7336 30.6284 99.1051 30.4804 99.4925 30.4722C100.091 30.4722 99.9757 30.9324 100.436 31.2034C100.562 31.2786 100.706 31.3184 100.853 31.3184C100.999 31.3184 101.143 31.2786 101.269 31.2034C102.476 30.5003 102.722 29.0941 102.824 27.8157C102.82 27.7783 102.82 27.7406 102.824 27.7032C102.88 27.1167 102.767 26.5265 102.497 26.0029C102.185 25.3381 102.402 24.6733 102.724 24.0469C103.126 23.2518 103.008 22.0731 102.862 21.2191C103.036 17.6396 102.111 13.8223 100.725 11.268C100.277 10.4629 99.7226 9.72236 99.0758 9.06659C97.8649 7.78872 96.4 6.77843 94.7752 6.1007C94.4154 5.97031 94.0308 5.92311 93.6502 5.96263C93.4141 5.97771 93.1772 5.97258 92.942 5.94729C92.2133 5.84246 91.5741 5.10866 91.3951 4.4132C91.2928 4.03224 91.4462 3.7152 91.3951 3.3419C91.2866 2.83965 91.0596 2.37064 90.7329 1.97401C89.9846 1.02972 88.8959 0.416512 87.7005 0.266063C87.0741 0.174018 86.5193 0.363221 85.9644 0.549868C85.2741 0.785094 84.594 1.01776 83.7912 0.716061C82.4939 0.240578 81.1228 -0.0017879 79.7412 0.000154732C77.4919 -0.0114835 75.2882 0.633644 73.4003 1.8564" fill="white"/>
</svg>
