<svg width="26" height="17" viewBox="0 0 26 17" fill="none" xmlns="http://www.w3.org/2000/svg">
    <path d="M13.96 16.27C5.40996 16.27 0.539956 10.41 0.329956 0.659973H4.60999C4.74999 7.80997 7.91003 10.84 10.41 11.47V0.659973H14.41V6.82997C16.88 6.55997 19.48 3.74997 20.35 0.659973H24.35C24.0204 2.26381 23.3637 3.78246 22.4208 5.12107C21.4779 6.45969 20.2691 7.58951 18.87 8.43997C20.4341 9.21526 21.8155 10.3144 22.9224 11.6643C24.0292 13.0143 24.8363 14.5842 25.29 16.27H20.85C20.4418 14.8056 19.6098 13.4946 18.4586 12.5018C17.3074 11.509 15.8884 10.8786 14.38 10.69V16.27H13.96Z" fill="black"/>
</svg>
