<svg width="178" height="51" viewBox="0 0 178 51" fill="none" xmlns="http://www.w3.org/2000/svg">
    <path d="M45.5229 50.0738H4.32838C1.00562 50.0738 -1.08077 46.683 0.586793 43.9691L12.1956 25.0371L21.1825 39.6928C22.847 42.4067 27.0074 42.4067 28.6719 39.6928L37.6588 25.0371L49.2668 43.9691C50.9313 46.683 48.8511 50.0738 45.5229 50.0738Z" fill="#23272D"/>
    <path opacity="0.78" d="M45.5229 50.0738H4.32838C1.00562 50.0738 -1.08077 46.683 0.586793 43.9691L12.1956 25.0371L21.1825 39.6928C22.847 42.4067 27.0074 42.4067 28.6719 39.6928L37.6588 25.0371L49.2668 43.9691C50.9313 46.683 48.8511 50.0738 45.5229 50.0738Z" fill="url(#paint0_linear_12_399)"/>
    <path d="M37.6588 25.0371L28.6696 39.6943C27.0051 42.4082 22.8447 42.4082 21.1802 39.6943L12.1956 25.0371L21.1825 10.3806C22.847 7.66595 27.0074 7.66595 28.6719 10.3806L37.6588 25.0371Z" fill="#CD083D"/>
    <path d="M49.2676 6.10461L37.6588 25.0366L28.6696 10.3817C27.0051 7.66709 22.8447 7.66709 21.1802 10.3817L12.1956 25.0366L0.586793 6.10461C-1.08077 3.39231 1.00562 0 4.32838 0H45.5229C48.8511 0 50.9313 3.39231 49.2676 6.10461Z" fill="#F93367"/>
    <path d="M39.457 41.0325H33.996L33.9497 40.9668L26.1342 29.6656C25.7378 29.0791 25.3259 28.4385 24.9056 27.7562C24.282 28.7916 23.8237 29.5203 23.5479 29.9252L15.7061 41.0325H10.3874L22.5116 24.3646L11.8131 9.04126H17.0839L22.7635 17.2323C23.8369 18.7777 24.6367 20.0095 25.1436 20.9051C25.8066 19.8232 26.5886 18.6788 27.4718 17.505L33.7696 9.04126H38.6216L27.5947 24.132L39.457 41.0325Z" fill="white"/>
    <path d="M178 32.0724C178 33.8389 177.492 35.5304 176.489 37.0998C175.484 38.6546 174.023 39.8817 172.145 40.7526C170.294 41.6026 168.182 42.0337 165.866 42.0337C162.947 42.0337 160.457 41.5964 158.463 40.7348C156.468 39.8732 154.873 38.541 153.723 36.7977C152.59 35.0405 151.986 33.0337 151.926 30.8322L151.917 30.5099L156.553 30.1019L156.593 30.4327C156.774 31.9781 157.196 33.2624 157.844 34.25C158.498 35.2097 159.532 36.0087 160.916 36.6223C162.315 37.2273 163.916 37.5349 165.673 37.5349C167.233 37.5349 168.625 37.2992 169.813 36.8348C170.976 36.3812 171.847 35.7584 172.401 34.9802C172.95 34.2394 173.248 33.3423 173.251 32.4201C173.251 31.4929 172.983 30.6815 172.453 30.0015C171.912 29.2944 170.996 28.6878 169.729 28.2056C168.889 27.8765 166.994 27.3556 164.093 26.6602C161.147 25.94 159.048 25.2515 157.854 24.6124C156.286 23.7864 155.095 22.7447 154.312 21.5161C153.537 20.2554 153.133 18.8015 153.148 17.3217C153.147 15.6401 153.643 13.9958 154.574 12.5956C155.52 11.1274 156.92 10.0008 158.733 9.24579C160.522 8.50087 162.536 8.12378 164.717 8.12378C167.113 8.12378 169.262 8.52406 171.096 9.31225C172.964 10.0958 174.419 11.2742 175.424 12.8151C176.428 14.3559 176.969 16.1108 177.046 18.0496L177.06 18.3811L172.354 18.7373L172.317 18.4066C172.11 16.4747 171.405 15.0065 170.222 14.0352C169.038 13.0639 167.249 12.557 164.89 12.557C162.429 12.557 160.62 13.0106 159.513 13.9054C158.444 14.7678 157.901 15.8202 157.901 17.0334C157.901 18.0797 158.28 18.9521 159.027 19.6267C159.794 20.3291 161.879 21.0764 165.228 21.8483C168.671 22.6211 171.072 23.3165 172.364 23.9077C174.271 24.7917 175.702 25.9384 176.619 27.3154C177.536 28.6925 178 30.2866 178 32.0724Z" fill="#30363D"/>
    <path d="M146.302 8.68115V27.5815C146.302 30.8355 145.929 33.4643 145.192 35.3931C144.443 37.3543 143.072 38.9732 141.117 40.2065C139.183 41.4189 136.621 42.0371 133.493 42.0371C130.462 42.0371 127.941 41.4962 125.998 40.4398C124.037 39.3696 122.616 37.8017 121.776 35.7795C120.952 33.7758 120.533 31.0186 120.533 27.5885V8.68115H125.438V27.5591C125.438 30.2946 125.687 32.3323 126.177 33.6158C126.655 34.8334 127.54 35.8475 128.682 36.485C129.886 37.1673 131.381 37.5135 133.124 37.5135C136.114 37.5135 138.262 36.835 139.509 35.4974C140.756 34.1598 141.396 31.4792 141.396 27.5591V8.68115H146.302Z" fill="#30363D"/>
    <path d="M115.077 30.7072L114.993 31.0395C114.094 34.5871 112.443 37.3404 110.088 39.2205C107.745 41.0874 104.84 42.034 101.455 42.034C97.9678 42.034 95.0793 41.3076 92.8708 39.875C90.6754 38.4269 88.9785 36.3111 87.8248 33.5872C86.6951 30.8826 86.1248 27.9416 86.1248 24.8422C86.1248 21.4576 86.7739 18.464 88.0566 15.9449C89.3579 13.3949 91.2249 11.4391 93.6142 10.1262C96.0035 8.81331 98.664 8.1333 101.524 8.1333C104.776 8.1333 107.551 8.98331 109.779 10.6555C112.007 12.3277 113.577 14.7124 114.449 17.7361L114.551 18.0823L109.73 19.2252L109.634 18.9215C108.919 16.6643 107.876 15.0037 106.534 13.9868C105.191 12.9699 103.478 12.4575 101.433 12.4575C99.0658 12.4575 97.0613 13.0332 95.4749 14.1676C93.9047 15.3012 92.7827 16.8505 92.1421 18.7731C91.4883 20.7222 91.1561 22.7647 91.1584 24.8205C91.1584 27.4957 91.5448 29.865 92.3105 31.8617C93.0756 33.809 94.2725 35.2849 95.8651 36.2485C97.4437 37.2107 99.258 37.7165 101.107 37.7098C103.378 37.7098 105.325 37.0437 106.892 35.7308C108.459 34.4179 109.545 32.4212 110.106 29.8093L110.183 29.4608L115.077 30.7072Z" fill="#30363D"/>
    <path d="M81.16 20.49C80.8541 19.0628 80.3748 17.6783 79.7327 16.3675C78.4763 13.7757 76.6163 11.7311 74.2046 10.2853C71.7929 8.83949 69.0612 8.11389 66.07 8.11389C61.4969 8.11389 57.709 9.67559 54.812 12.7557C51.9204 15.8165 50.4545 20.1052 50.4545 25.5059C50.4486 28.332 51.0848 31.1225 52.3153 33.6667C53.5159 36.1995 55.4265 38.3289 57.8148 39.7961C60.2242 41.2836 62.9922 42.037 66.0445 42.037C68.8104 42.05 71.5338 41.3563 73.9565 40.0217C76.3991 38.6648 78.3124 36.6479 79.6431 34.0276C80.9668 31.4204 81.6383 28.4268 81.6383 25.1303C81.6447 23.5709 81.4843 22.0153 81.16 20.49ZM66.0228 37.7097C63.0161 37.7097 60.48 36.6278 58.4856 34.4905C56.4958 32.3322 55.4874 29.3294 55.4874 25.5661C55.4874 20.8524 56.5344 17.4524 58.6007 15.4719C60.6871 13.472 63.2047 12.4582 66.0877 12.4582C68.1162 12.4582 69.9653 12.986 71.5842 14.0269C73.2139 15.0507 74.4657 16.5259 75.3057 18.4129C76.1658 20.3023 76.6016 22.554 76.6016 25.1064C76.6016 29.1315 75.5924 32.2743 73.6018 34.448L73.5717 34.482C71.6074 36.6232 69.0674 37.7097 66.0228 37.7097Z" fill="#30363D"/>
    <defs>
        <linearGradient id="paint0_linear_12_399" x1="124.248" y1="127.19" x2="18.4424" y2="36.0826" gradientUnits="userSpaceOnUse">
            <stop stop-color="white"/>
            <stop offset="1" stop-color="white" stop-opacity="0"/>
        </linearGradient>
    </defs>
</svg>
